MahrgonoMono-Regular.sfdir
StartChar: exclam
Encoding: 33 33 2
Width: 600
VWidth: 1034
Flags: W
LayerCount: 3
Fore
SplineSet
266 114 m 6,0,-1
 323 122 l 6,1,2
 332 123 332 123 340.5 115 c 132,-1,3
 349 107 349 107 349 96 c 6,4,-1
 349 32 l 6,5,6
 349 22 349 22 340 13 c 4,7,8
 335 8 335 8 323 6 c 6,9,-1
 266 -2 l 6,10,11
 257 -3 257 -3 248.5 5 c 132,-1,12
 240 13 240 13 240 24 c 6,13,-1
 240 88 l 6,14,15
 240 98 240 98 248 107 c 4,16,17
 254 112 254 112 266 114 c 6,0,-1
238 755 m 17,18,-1
 252 196 l 25,19,-1
 336 213 l 25,20,-1
 352 767 l 9,21,-1
 238 755 l 17,18,-1
EndSplineSet
EndChar
StartChar: quotedbl
Encoding: 34 34 3
Width: 600
VWidth: 1034
Flags: W
LayerCount: 3
Fore
SplineSet
339 716 m 0,0,1
 339 737 339 737 351 747 c 0,2,3
 359 755 359 755 376 755 c 2,4,-1
 411 755 l 2,5,6
 430 755 430 755 437 747 c 0,7,8
 447 736 447 736 447 722 c 0,9,10
 447 721 447 721 447 720 c 2,11,-1
 444 637 l 2,12,13
 442 594 442 594 430 556 c 0,14,15
 413 501 413 501 384 464 c 1,16,-1
 340 480 l 1,17,-1
 339 716 l 0,0,1
153 716 m 0,18,19
 153 737 153 737 164 747 c 0,20,21
 172 755 172 755 189 755 c 2,22,-1
 224 755 l 2,23,24
 243 755 243 755 250 747 c 0,25,26
 260 736 260 736 261 722 c 0,27,28
 261 721 261 721 261 720 c 2,29,-1
 258 637 l 2,30,31
 256 596 256 596 244 556 c 0,32,33
 227 501 227 501 198 464 c 1,34,-1
 154 480 l 1,35,-1
 153 716 l 0,18,19
EndSplineSet
Layer: 2
SplineSet
148.965820312 640.344726562 m 4
 142.758789062 715.862304688 l 4
 142.758789062 729.655273438 146.551757812 740 154.137695312 746.896484375 c 4
 158.965820312 751.724609375 167.241210938 754.137695312 178.965820312 754.137695312 c 6
 217.241210938 755.172851562 l 6
 229.655273438 755.172851562 238.275390625 752.4140625 243.103515625 746.896484375 c 4
 250 739.310546875 253.448242188 731.034179688 253.448242188 722.069335938 c 4
 253.448242188 721.034179688 253.448242188 721.034179688 253.448242188 720 c 6
 250.344726562 678.62109375 l 6
 248.275390625 647.5859375 243.79296875 620.344726562 236.896484375 596.896484375 c 4
 225.862304688 560.344726562 210.344726562 530 190.344726562 505.862304688 c 5
 143.79296875 521.37890625 l 5
 147.241210938 561.37890625 148.965820312 601.034179688 148.965820312 640.344726562 c 4
352.758789062 640.344726562 m 4
 346.551757812 715.862304688 l 4
 346.551757812 729.655273438 350.344726562 740 357.930664062 746.896484375 c 4
 362.432617188 751.3984375 370.708984375 753.8125 382.758789062 754.137695312 c 6
 421.034179688 755.172851562 l 6
 433.448242188 755.172851562 442.069335938 752.4140625 446.896484375 746.896484375 c 4
 453.79296875 739.310546875 457.241210938 731.034179688 457.241210938 722.069335938 c 4
 457.241210938 721.034179688 457.241210938 721.034179688 457.241210938 720 c 6
 454.137695312 678.62109375 l 6
 452.069335938 647.5859375 447.5859375 620.344726562 440.689453125 596.896484375 c 4
 429.655273438 560.344726562 414.137695312 530 394.137695312 505.862304688 c 5
 347.5859375 521.37890625 l 5
 351.034179688 561.37890625 352.758789062 601.034179688 352.758789062 640.344726562 c 4
EndSplineSet
EndChar
StartChar: numbersign
Encoding: 35 35 4
Width: 600
VWidth: 1034
Flags: W
LayerCount: 3
Fore
SplineSet
542 286 m 5,0,-1
 532 216 l 5,1,-1
 422 216 l 5,2,-1
 389 0 l 5,3,-1
 314 0 l 5,4,-1
 349 216 l 5,5,-1
 222 216 l 5,6,-1
 186 0 l 5,7,-1
 112 0 l 5,8,-1
 148 216 l 5,9,-1
 31 216 l 5,10,-1
 41 286 l 5,11,-1
 158 286 l 5,12,-1
 181 425 l 5,13,-1
 61 425 l 5,14,-1
 71 493 l 5,15,-1
 190 493 l 5,16,-1
 224 696 l 5,17,-1
 298 696 l 5,18,-1
 264 493 l 5,19,-1
 389 493 l 5,20,-1
 422 696 l 5,21,-1
 496 696 l 5,22,-1
 463 493 l 5,23,-1
 569 493 l 5,24,-1
 559 425 l 5,25,-1
 454 425 l 5,26,-1
 432 286 l 5,27,-1
 542 286 l 5,0,-1
381 425 m 5,28,-1
 256 425 l 5,29,-1
 232 286 l 5,30,-1
 358 286 l 5,31,-1
 381 425 l 5,28,-1
EndSplineSet
EndChar
StartChar: dollar
Encoding: 36 36 5
Width: 600
VWidth: 1034
Flags: W
LayerCount: 3
Fore
SplineSet
274 808 m 1,0,-1
 351 808 l 1,1,-1
 351 693 l 1,2,3
 439 686 439 686 519 634 c 1,4,-1
 474 561 l 1,5,-1
 466 566 l 2,6,7
 405 604 405 604 341 610 c 1,8,-1
 341 389 l 1,9,10
 365 383 365 383 377 379 c 0,11,12
 391 375 391 375 418 362 c 128,-1,13
 445 349 445 349 464 332 c 0,14,15
 503 299 503 299 519 253 c 0,16,17
 527 227 527 227 527.5 203 c 131,-1,18
 528 179 528 179 523 159 c 0,19,20
 507 91 507 91 448 44 c 0,21,22
 406 11 406 11 351 -1 c 1,23,-1
 351 -110 l 1,24,-1
 274 -110 l 1,25,-1
 274 -8 l 1,26,27
 172 -5 172 -5 89 59 c 1,28,-1
 142 127 l 1,29,-1
 149 121 l 2,30,31
 210 74 210 74 283 74 c 1,32,-1
 283 318 l 1,33,34
 247 329 247 329 224 339 c 0,35,36
 177 361 177 361 148 394 c 0,37,38
 101 446 101 446 101 511 c 3,39,40
 101 548 101 548 117.5 583.5 c 128,-1,41
 134 619 134 619 168 646 c 0,42,43
 212 682 212 682 274 691 c 1,44,-1
 274 808 l 1,0,-1
283 608 m 1,45,46
 252 602 252 602 230 583 c 0,47,48
 212 569 212 569 203 550.5 c 128,-1,49
 194 532 194 532 194 511 c 0,50,51
 194 475 194 475 220 446 c 0,52,53
 238 426 238 426 267 413 c 0,54,55
 274 410 274 410 283 407 c 1,56,-1
 283 608 l 1,45,46
341 84 m 1,57,58
 366 92 366 92 387 108 c 0,59,60
 423 136 423 136 432 176 c 0,61,62
 434 187 434 187 434 201 c 131,-1,63
 434 215 434 215 430 230 c 0,64,65
 422 255 422 255 400 272 c 0,66,67
 382 286 382 286 341 301 c 1,68,-1
 341 84 l 1,57,58
EndSplineSet
EndChar
StartChar: percent
Encoding: 37 37 6
Width: 600
VWidth: 1034
Flags: W
LayerCount: 3
Fore
SplineSet
429 -11 m 259,0,1
 364 -11 364 -11 327 31 c 128,-1,2
 290 73 290 73 290 151 c 259,3,4
 290 230 290 230 327 273 c 128,-1,5
 364 316 364 316 429 316 c 259,6,7
 493 316 493 316 532 273 c 0,8,9
 569 232 569 232 569 152 c 259,10,11
 569 73 569 73 531.5 31 c 128,-1,12
 494 -11 494 -11 429 -11 c 259,0,1
429.5 52 m 131,-1,14
 466 52 466 52 480 84 c 0,15,16
 492 112 492 112 492 151 c 259,17,18
 492 191 492 191 480 220 c 0,19,20
 467 252 467 252 429.5 252 c 131,-1,21
 392 252 392 252 379 220 c 0,22,23
 368 193 368 193 367 152 c 3,24,25
 367 109 367 109 379 84 c 0,26,13
 393 52 393 52 429.5 52 c 131,-1,14
171 439 m 259,27,28
 106 439 106 439 68.5 481 c 128,-1,29
 31 523 31 523 31 601 c 259,30,31
 31 680 31 680 68.5 723 c 128,-1,32
 106 766 106 766 171 766 c 259,33,34
 235 766 235 766 273 723 c 0,35,36
 310 682 310 682 310 602 c 259,37,38
 310 523 310 523 273 481 c 128,-1,39
 236 439 236 439 171 439 c 259,27,28
170.5 502 m 131,-1,41
 207 502 207 502 221 534 c 0,42,43
 233 562 233 562 234 601 c 259,44,45
 234 641 234 641 221 670 c 0,46,47
 208 702 208 702 170.5 702 c 131,-1,48
 133 702 133 702 120 670 c 0,49,50
 109 643 109 643 109 602 c 3,51,52
 109 559 109 559 120 534 c 0,53,40
 134 502 134 502 170.5 502 c 131,-1,41
101 -18 m 1,54,-1
 31 -1 l 1,55,-1
 497 771 l 1,56,-1
 569 755 l 1,57,-1
 101 -18 l 1,54,-1
EndSplineSet
EndChar
StartChar: ampersand
Encoding: 38 38 7
Width: 600
VWidth: 1034
Flags: W
LayerCount: 3
Fore
SplineSet
382 553 m 1,0,1
 377 575 377 575 361 591 c 0,2,3
 338 614 338 614 290 613 c 3,4,5
 239 613 239 613 219 592 c 0,6,7
 202 573 202 573 203 532 c 3,8,9
 203 494 203 494 224 461 c 2,10,-1
 402 201 l 1,11,-1
 461 337 l 1,12,-1
 539 302 l 1,13,-1
 469 140 l 2,14,15
 461 120 461 120 459 118 c 1,16,17
 499 59 499 59 540 0 c 1,18,-1
 436 0 l 1,19,-1
 407 43 l 5,20,21
 350 -11 350 -11 273 -10.5 c 132,-1,22
 196 -10 196 -10 137.5 39 c 132,-1,23
 79 88 79 88 79 196 c 4,24,25
 79 369 79 369 170 390 c 5,26,-1
 140 434 l 2,27,28
 114 472 114 472 114 542.5 c 131,-1,29
 114 613 114 613 175 658 c 0,30,31
 219 691 219 691 294.5 691 c 128,-1,32
 370 691 370 691 408 661 c 128,-1,33
 446 631 446 631 461 581 c 1,34,-1
 382 553 l 1,0,1
357 116 m 5,35,-1
 218 320 l 5,36,37
 195 315 195 315 183 283 c 4,38,39
 171 251 171 251 171 192 c 4,40,41
 171 135 171 135 201 103 c 4,42,43
 230 71 230 71 263 71 c 4,44,45
 332 72 332 72 357 116 c 5,35,-1
EndSplineSet
EndChar
StartChar: quotesingle
Encoding: 39 39 8
Width: 600
VWidth: 1034
Flags: W
LayerCount: 3
Back
SplineSet
275.172851562 598.965820312 m 5,0,1
 258.62109375 603.103515625 258.62109375 603.103515625 242.5859375 619.137695312 c 132,-1,2
 226.551757812 635.172851562 226.551757812 635.172851562 226.551757812 660 c 6,3,-1
 226.551757812 693.103515625 l 6,4,5
 226.551757812 717.930664062 226.551757812 717.930664062 245.172851562 736.551757812 c 132,-1,6
 263.79296875 755.172851562 263.79296875 755.172851562 288.62109375 755.172851562 c 6,7,-1
 311.37890625 755.172851562 l 6,8,9
 337.241210938 755.172851562 337.241210938 755.172851562 355.344726562 736.551757812 c 132,-1,10
 373.448242188 717.930664062 373.448242188 717.930664062 373.448242188 693.103515625 c 6,11,-1
 373.448242188 660 l 6,12,13
 373.448242188 609.310546875 373.448242188 609.310546875 346.551757812 558.62109375 c 4,14,15
 314.482421875 496.551757812 314.482421875 496.551757812 240 448.965820312 c 5,16,-1
 195.517578125 484.137695312 l 5,17,18
 214.137695312 493.448242188 214.137695312 493.448242188 243.62109375 526.551757812 c 132,-1,19
 273.103515625 559.655273438 273.103515625 559.655273438 275.172851562 598.965820312 c 5,0,1
EndSplineSet
Fore
SplineSet
246 716 m 4,0,1
 246 737 246 737 258 747 c 4,2,3
 266 755 266 755 282 755 c 6,4,-1
 318 755 l 6,5,6
 337 755 337 755 343 747 c 4,7,8
 353 736 353 736 354 722 c 4,9,10
 354 721 354 721 354 720 c 6,11,-1
 351 637 l 6,12,13
 349 594 349 594 337 556 c 4,14,15
 320 501 320 501 291 464 c 5,16,-1
 247 480 l 5,17,-1
 246 716 l 4,0,1
EndSplineSet
EndChar
StartChar: parenleft
Encoding: 40 40 9
Width: 600
VWidth: 1034
Flags: W
LayerCount: 3
Fore
SplineSet
469 -156 m 5,0,1
 363 -143 363 -143 282 -69 c 4,2,3
 180 24 180 24 159 186 c 4,4,5
 151 246 151 246 151 318 c 7,6,7
 151 526 151 526 222 634 c 4,8,9
 278 718 278 718 368 761 c 4,10,11
 416 784 416 784 469 791 c 5,12,-1
 486 720 l 5,13,14
 413 710 413 710 355 658 c 4,15,16
 269 581 269 581 251 438 c 4,17,18
 244 383 244 383 244 317 c 7,19,20
 244 128 244 128 305 34 c 4,21,22
 348 -33 348 -33 416 -64 c 4,23,24
 449 -80 449 -80 485 -85 c 5,25,-1
 469 -156 l 5,0,1
EndSplineSet
EndChar
StartChar: parenright
Encoding: 41 41 10
Width: 600
VWidth: 1034
Flags: W
LayerCount: 3
Back
SplineSet
345.517578125 317.5859375 m 4,0,1
 345.517578125 212.069335938 345.517578125 212.069335938 339.310546875 137.5859375 c 132,-1,2
 333.103515625 63.103515625 333.103515625 63.103515625 311.896484375 1.0341796875 c 132,-1,3
 290.689453125 -61.0341796875 290.689453125 -61.0341796875 249.310546875 -100.344726562 c 132,-1,4
 207.930664062 -139.655273438 207.930664062 -139.655273438 133.448242188 -152.069335938 c 5,5,-1
 108.62109375 -87.9306640625 l 5,6,7
 170.689453125 -72.4140625 170.689453125 -72.4140625 196.551757812 -46.5517578125 c 4,8,9
 217.241210938 -25.8623046875 217.241210938 -25.8623046875 234.827148438 26.896484375 c 4,10,11
 248.275390625 68.275390625 248.275390625 68.275390625 250.344726562 146.896484375 c 132,-1,12
 252.4140625 225.517578125 252.4140625 225.517578125 252.4140625 320.689453125 c 4,13,14
 252.4140625 409.655273438 252.4140625 409.655273438 250.344726562 488.79296875 c 132,-1,15
 248.275390625 567.930664062 248.275390625 567.930664062 234.827148438 608.275390625 c 4,16,17
 219.310546875 660 219.310546875 660 196.551757812 682.758789062 c 4,18,19
 170.689453125 708.62109375 170.689453125 708.62109375 108.62109375 724.137695312 c 5,20,-1
 133.448242188 788.275390625 l 5,21,22
 207.930664062 775.862304688 207.930664062 775.862304688 249.310546875 736.551757812 c 132,-1,23
 290.689453125 697.241210938 290.689453125 697.241210938 311.896484375 635.172851562 c 132,-1,24
 333.103515625 573.103515625 333.103515625 573.103515625 339.310546875 498.62109375 c 132,-1,25
 345.517578125 424.137695312 345.517578125 424.137695312 345.517578125 317.5859375 c 4,0,1
EndSplineSet
Fore
SplineSet
129 -156 m 1,0,1
 235 -143 235 -143 316 -69 c 0,2,3
 418 24 418 24 439 186 c 0,4,5
 447 246 447 246 447 318 c 3,6,7
 447 526 447 526 376 634 c 0,8,9
 320 718 320 718 230 761 c 0,10,11
 182 784 182 784 129 791 c 1,12,-1
 112 720 l 1,13,14
 185 710 185 710 243 658 c 0,15,16
 329 581 329 581 347 438 c 0,17,18
 354 383 354 383 354 317 c 3,19,20
 354 128 354 128 293 34 c 0,21,22
 250 -33 250 -33 182 -64 c 0,23,24
 149 -80 149 -80 113 -85 c 1,25,-1
 129 -156 l 1,0,1
EndSplineSet
EndChar
StartChar: asterisk
Encoding: 42 42 11
Width: 600
VWidth: 1034
Flags: W
LayerCount: 3
Fore
SplineSet
505 422 m 1,0,-1
 534 333 l 1,1,-1
 340 300 l 1,2,-1
 458 150 l 1,3,-1
 372 96 l 1,4,-1
 286 273 l 1,5,-1
 159 127 l 1,6,-1
 87 202 l 1,7,-1
 242 320 l 1,8,-1
 67 399 l 1,9,-1
 124 477 l 1,10,-1
 276 376 l 1,11,-1
 276 560 l 1,12,-1
 378 544 l 1,13,-1
 337 361 l 1,14,-1
 505 422 l 1,0,-1
EndSplineSet
EndChar
StartChar: plus
Encoding: 43 43 12
Width: 600
VWidth: 1034
Flags: W
LayerCount: 3
Fore
SplineSet
259 365 m 5,0,-1
 65 365 l 5,1,-1
 65 282 l 5,2,-1
 259 282 l 5,3,-1
 259 87 l 5,4,-1
 341 87 l 5,5,-1
 341 282 l 5,6,-1
 535 282 l 5,7,-1
 535 365 l 5,8,-1
 341 365 l 5,9,-1
 341 558 l 5,10,-1
 259 558 l 5,11,-1
 259 365 l 5,0,-1
EndSplineSet
EndChar
StartChar: comma
Encoding: 44 44 13
Width: 600
VWidth: 1034
Flags: W
LayerCount: 3
Fore
SplineSet
275 -11 m 5,0,1
 258 -7 258 -7 242.5 9 c 132,-1,2
 227 25 227 25 227 50 c 6,3,-1
 227 83 l 6,4,5
 227 108 227 108 245.5 126.5 c 132,-1,6
 264 145 264 145 289 145 c 6,7,-1
 311 145 l 6,8,9
 337 145 337 145 355 126.5 c 132,-1,10
 373 108 373 108 373 83 c 6,11,-1
 373 50 l 6,12,13
 373 -1 373 -1 347 -52 c 4,14,15
 315 -114 315 -114 240 -161 c 5,16,-1
 196 -126 l 5,17,18
 215 -117 215 -117 244 -83.5 c 132,-1,19
 273 -50 273 -50 275 -11 c 5,0,1
EndSplineSet
Layer: 2
SplineSet
274.137695312 -11.37890625 m 13
 271.034179688 -11.37890625 l 2
 264.137695312 -11.37890625 258.275390625 -8.9658203125 253.448242188 -4.1376953125 c 0
 247.53515625 1.775390625 244.776367188 7.982421875 245.172851562 14.482421875 c 2
 250.344726562 99.310546875 l 2
 251.034179688 106.896484375 253.79296875 113.103515625 258.62109375 117.930664062 c 0
 263.09765625 122.408203125 268.959960938 124.821289062 276.20703125 125.172851562 c 2
 340.344726562 128.275390625 l 2
 347.930664062 128.965820312 354.827148438 125.862304688 361.034179688 118.965820312 c 0
 365.240234375 114.759765625 366.963867188 108.208007812 366.20703125 99.310546875 c 2
 362.069335938 50.689453125 l 6
 357.241210938 -3.103515625 341.724609375 -47.5859375 315.517578125 -82.7587890625 c 4
 294.137695312 -110.344726562 268.62109375 -133.103515625 238.965820312 -151.034179688 c 5
 204.827148438 -122.069335938 l 5
 219.310546875 -113.103515625 232.069335938 -102.4140625 243.103515625 -90 c 4
 263.79296875 -65.8623046875 274.137695312 -39.6552734375 274.137695312 -11.37890625 c 13
EndSplineSet
EndChar
StartChar: hyphen
Encoding: 45 45 14
Width: 600
VWidth: 1034
Flags: W
LayerCount: 3
Fore
SplineSet
108 364 m 5,0,-1
 108 281 l 5,1,-1
 486 281 l 5,2,-1
 497 364 l 5,3,-1
 108 364 l 5,0,-1
EndSplineSet
EndChar
StartChar: period
Encoding: 46 46 15
Width: 598
VWidth: 1034
Flags: W
LayerCount: 3
Fore
SplineSet
288 -12 m 6,0,1
 263 -12 263 -12 244.5 6.5 c 132,-1,2
 226 25 226 25 226 50 c 6,3,-1
 226 83 l 6,4,5
 226 108 226 108 244.5 126.5 c 132,-1,6
 263 145 263 145 288 145 c 6,7,-1
 310 145 l 6,8,9
 335 145 335 145 353.5 126.5 c 132,-1,10
 372 108 372 108 372 83 c 6,11,-1
 372 50 l 6,12,13
 372 25 372 25 354 6 c 4,14,15
 336 -13 336 -13 310 -12 c 6,16,-1
 288 -12 l 6,0,1
EndSplineSet
EndChar
StartChar: slash
Encoding: 47 47 16
Width: 600
VWidth: 1034
Flags: W
LayerCount: 3
Fore
SplineSet
170 -152 m 5,0,-1
 517 771 l 5,1,-1
 428 785 l 5,2,-1
 83 -136 l 5,3,-1
 170 -152 l 5,0,-1
EndSplineSet
EndChar
StartChar: zero
Encoding: 48 48 17
Width: 600
VWidth: 1034
Flags: W
LayerCount: 3
Fore
SplineSet
236 383 m 2,0,-1
 365 413 l 6,1,2
 376 415 376 415 383 409 c 4,3,4
 391 401 391 401 391 387 c 6,5,-1
 391 330 l 6,6,7
 391 320 391 320 383 311 c 4,8,9
 379 307 379 307 365 304 c 6,10,-1
 236 274 l 2,11,12
 226 272 226 272 217 280 c 0,13,14
 210 287 210 287 210 300 c 2,15,-1
 210 357 l 2,16,17
 210 367 210 367 218 376 c 0,18,19
 223 380 223 380 236 383 c 2,0,-1
68 343 m 259,20,21
 68 425 68 425 75.5 485.5 c 128,-1,22
 83 546 83 546 106 594 c 0,23,24
 130 642 130 642 176 669 c 0,25,26
 220 696 220 696 300 696 c 259,27,28
 377 696 377 696 424.5 669 c 128,-1,29
 472 642 472 642 494 595 c 0,30,31
 518 544 518 544 526 486 c 0,32,33
 533 425 533 425 533 343 c 3,34,35
 533 260 533 260 526 201 c 0,36,37
 519 142 519 142 495 92 c 128,-1,38
 471 42 471 42 424 17 c 0,39,40
 376 -11 376 -11 300 -11 c 259,41,42
 226 -11 226 -11 176 17 c 0,43,44
 129 45 129 45 106 92 c 0,45,46
 83 138 83 138 76 201 c 0,47,48
 68 260 68 260 68 343 c 259,20,21
161 343 m 259,49,50
 161 271 161 271 166 237 c 0,51,52
 171 195 171 195 184 155 c 0,53,54
 196 119 196 119 227 96 c 0,55,56
 256 74 256 74 300 74 c 131,-1,57
 344 74 344 74 376 96 c 0,58,59
 400 114 400 114 417 155 c 0,60,61
 431 191 431 191 436 236 c 0,62,63
 440 279 440 279 440 343 c 259,64,65
 440 414 440 414 436 450 c 0,66,67
 430 496 430 496 418 531 c 0,68,69
 406 567 406 567 376 590 c 0,70,71
 349 611 349 611 300 610 c 3,72,73
 252 610 252 610 227 590 c 0,74,75
 198 566 198 566 183 531 c 0,76,77
 170 497 170 497 166 449 c 0,78,79
 161 396 161 396 161 343 c 259,49,50
EndSplineSet
EndChar
StartChar: one
Encoding: 49 49 18
Width: 600
VWidth: 1034
Flags: W
LayerCount: 3
Fore
SplineSet
228 656 m 2,0,1
 255 680 255 680 274 695 c 1,2,-1
 360 685 l 1,3,-1
 360 150 l 2,4,5
 360 109 360 109 369 99 c 0,6,7
 382 86 382 86 444 80 c 2,8,-1
 505 73 l 1,9,-1
 490 0 l 1,10,-1
 94 0 l 1,11,-1
 104 72 l 1,12,-1
 197 83 l 2,13,14
 240 88 240 88 249 97 c 0,15,16
 262 111 262 111 263 150 c 2,17,-1
 263 577 l 1,18,-1
 252 569 l 2,19,20
 245 563 245 563 223 545 c 0,21,22
 177 508 177 508 164 498 c 0,23,24
 138 478 138 478 124 466 c 1,25,-1
 74 541 l 1,26,27
 111 561 111 561 128 572 c 0,28,29
 156 593 156 593 183 617 c 2,30,-1
 228 656 l 2,0,1
EndSplineSet
EndChar
StartChar: two
Encoding: 50 50 19
Width: 600
VWidth: 1034
Flags: W
LayerCount: 3
Fore
SplineSet
108 0 m 25,0,-1
 90 81 l 1,1,-1
 187 184 l 1,2,-1
 278 286 l 2,3,4
 328 341 328 341 367 401 c 0,5,6
 404 458 404 458 404 516 c 3,7,8
 404 559 404 559 383 586 c 0,9,10
 360 612 360 612 293 611 c 3,11,12
 238 611 238 611 211 576 c 0,13,14
 193 553 193 553 184 507 c 1,15,-1
 92 532 l 17,16,-1
 93 539 l 2,17,18
 99 586 99 586 126 622 c 0,19,20
 181 696 181 696 300 696 c 0,21,22
 385 696 385 696 439 661 c 0,23,24
 501 621 501 621 501 523 c 3,25,26
 501 452 501 452 469 393 c 0,27,28
 434 330 434 330 366 256 c 0,29,30
 314 199 l 2,31,-1
 214 94 l 1,32,-1
 520 94 l 5,33,-1
 498 0 l 9,34,-1
 108 0 l 25,0,-1
EndSplineSet
EndChar
StartChar: three
Encoding: 51 51 20
Width: 600
VWidth: 1034
Flags: W
LayerCount: 3
Fore
SplineSet
91 552 m 17,0,1
 101 609 101 609 147 650 c 0,2,3
 200 697 200 697 299 696 c 0,4,5
 389 696 389 696 444 654 c 0,6,7
 498 613 498 613 498 527 c 3,8,9
 498 469 498 469 468.5 428.5 c 128,-1,10
 439 388 439 388 386 372 c 1,11,-1
 386 368 l 1,12,13
 449 355 449 355 482 308.5 c 128,-1,14
 515 262 515 262 515 192 c 3,15,16
 515 79 515 79 448 30 c 0,17,18
 391 -11 391 -11 298 -11 c 3,19,20
 200 -11 200 -11 148 37 c 0,21,22
 98 83 98 83 84 153 c 1,23,-1
 175 176 l 9,24,-1
 181 154 l 2,25,26
 190 121 190 121 224 93 c 0,27,28
 248 73 248 73 305 73 c 3,29,30
 371 73 371 73 401 114 c 0,31,32
 420 139 420 139 420 192.5 c 131,-1,33
 420 246 420 246 383 287 c 0,34,35
 362 310 362 310 283 317 c 2,36,-1
 238 321 l 1,37,-1
 238 406 l 1,38,-1
 282 410 l 2,39,40
 346 416 346 416 373 444 c 128,-1,41
 400 472 400 472 400 527 c 3,42,43
 400 556 400 556 386 577 c 0,44,45
 363 610 363 610 293 610 c 0,46,47
 235 610 235 610 210 583 c 0,48,49
 196 567 196 567 187 545 c 2,50,-1
 181 528 l 25,51,-1
 91 552 l 17,0,1
EndSplineSet
EndChar
StartChar: four
Encoding: 52 52 21
Width: 600
VWidth: 1034
Flags: W
LayerCount: 3
Fore
SplineSet
343 276 m 1,0,-1
 343 560 l 1,1,-1
 170 276 l 1,2,-1
 343 276 l 1,0,-1
343 37 m 2,3,-1
 343 190 l 1,4,-1
 86 190 l 1,5,-1
 58 263 l 1,6,7
 156 394 156 394 239 532 c 0,8,9
 280 600 280 600 328 694 c 1,10,-1
 442 684 l 1,11,-1
 442 276 l 1,12,-1
 543 276 l 1,13,-1
 532 190 l 1,14,-1
 442 190 l 1,15,-1
 442 37 l 2,16,-1
 442 0 l 1,17,18
 393 0 393 0 343 0 c 1,19,-1
 343 37 l 2,3,-1
EndSplineSet
EndChar
StartChar: five
Encoding: 53 53 22
Width: 600
VWidth: 1034
Flags: W
LayerCount: 3
Fore
SplineSet
183 144 m 17,0,1
 188 123 188 123 211 100 c 0,2,3
 240 72 240 72 304 72 c 3,4,5
 359 72 359 72 391 99 c 0,6,7
 425 129 425 129 424.5 214 c 128,-1,8
 424 299 424 299 398 335 c 0,9,10
 373 368 373 368 300 368 c 3,11,12
 261 368 261 368 200 323 c 1,13,-1
 117 356 l 1,14,15
 117 357 117 357 119 402.5 c 128,-1,16
 121 448 121 448 121 479 c 0,17,18
 121 518 121 518 120 569 c 128,-1,19
 119 620 119 620 115 685 c 1,20,-1
 490 685 l 25,21,-1
 462 592 l 21,22,-1
 202 592 l 1,23,-1
 202 412 l 1,24,25
 219 423 219 423 245.5 436.5 c 128,-1,26
 272 450 272 450 321 450 c 0,27,28
 424 449 424 449 471.5 388.5 c 128,-1,29
 519 328 519 328 519 216 c 3,30,31
 519 105 519 105 461 47 c 0,32,33
 404 -11 404 -11 304 -11 c 0,34,35
 195 -11 195 -11 153 24 c 0,36,37
 103 65 103 65 96 100 c 9,38,-1
 183 144 l 17,0,1
EndSplineSet
EndChar
StartChar: six
Encoding: 54 54 23
Width: 600
VWidth: 1034
Flags: W
LayerCount: 3
Fore
SplineSet
497 547 m 9,0,1
 409 532 l 17,2,3
 401 565 401 565 385 584 c 0,4,5
 363 611 363 611 311 611 c 3,6,7
 250 611 250 611 229 593 c 0,8,9
 200 569 200 569 190 535 c 0,10,11
 182 506 182 506 176 457 c 0,12,13
 173 430 173 430 173 396 c 1,14,15
 192 413 192 413 238 430 c 0,16,17
 269 441 269 441 326 442 c 3,18,19
 432 442 432 442 482 385 c 0,20,21
 531 330 531 330 531 223 c 3,22,23
 531 106 531 106 469 48 c 0,24,25
 408 -11 408 -11 295 -11 c 3,26,27
 217 -11 217 -11 170 20 c 0,28,29
 124 50 124 50 103.5 99.5 c 128,-1,30
 83 149 83 149 77.5 209 c 128,-1,31
 72 269 72 269 72 359 c 3,32,33
 72 436 72 436 82 494 c 0,34,35
 91 552 91 552 116.5 599 c 128,-1,36
 142 646 142 646 189 670 c 0,37,38
 237 696 237 696 310 696 c 0,39,40
 400 696 400 696 445.5 658 c 128,-1,41
 491 620 491 620 497 547 c 9,0,1
303 356 m 0,42,43
 236 356 236 356 205 323 c 0,44,45
 173 288 173 288 173 228 c 3,46,47
 173 161 173 161 203 120 c 4,48,49
 237 73 237 73 310 73 c 7,50,51
 368 73 368 73 402 106 c 4,52,53
 434 137 434 137 434 226 c 3,54,55
 434 294 434 294 415 319 c 0,56,57
 385 356 385 356 303 356 c 0,42,43
EndSplineSet
EndChar
StartChar: seven
Encoding: 55 55 24
Width: 600
VWidth: 1034
Flags: W
LayerCount: 3
Fore
SplineSet
66 685 m 17,0,-1
 501 685 l 1,1,-1
 511 605 l 1,2,3
 478 548 478 548 445 492 c 0,4,5
 395 406 395 406 368 355 c 0,6,7
 333 288 333 288 291 199 c 0,8,9
 241 95 241 95 216 0 c 1,10,-1
 111 0 l 1,11,12
 155 132 155 132 188 194 c 0,13,14
 236 282 236 282 236 283 c 0,15,16
 253 301 253 301 294 383 c 0,17,18
 295 385 295 385 378 520 c 0,19,20
 402 559 402 559 421 592 c 1,21,-1
 85 592 l 9,22,-1
 66 685 l 17,0,-1
EndSplineSet
EndChar
StartChar: eight
Encoding: 56 56 25
Width: 600
VWidth: 1034
Flags: W
LayerCount: 3
Fore
SplineSet
300 71 m 3,0,1
 427 71 427 71 427 189 c 3,2,3
 427 323 427 323 299 324 c 3,4,5
 172 324 172 324 172 189 c 3,6,7
 172 71 172 71 300 71 c 3,0,1
298 613 m 3,8,9
 195 613 195 613 194 518 c 27,10,11
 194 407 194 407 298 408 c 3,12,13
 404 408 404 408 403 515 c 3,14,15
 404 613 404 613 298 613 c 3,8,9
300 -11 m 259,16,17
 197 -11 197 -11 137 39 c 0,18,19
 79 88 79 88 79 196 c 3,20,21
 79 342 79 342 188 369 c 1,22,23
 127 392 127 392 111 445 c 0,24,25
 100 482 100 482 99 514 c 27,26,27
 99 614 99 614 161 660 c 0,28,29
 211 696 211 696 298 696 c 3,30,31
 390 696 390 696 437 660 c 0,32,33
 499 611 499 611 499 517 c 3,34,35
 499 487 499 487 486 445 c 0,36,37
 470 392 470 392 410 369 c 1,38,39
 522 338 522 338 521 192 c 3,40,41
 521 85 521 85 463 39 c 0,42,43
 400 -11 400 -11 300 -11 c 259,16,17
EndSplineSet
EndChar
StartChar: nine
Encoding: 57 57 26
Width: 600
VWidth: 1034
Flags: W
LayerCount: 3
Fore
SplineSet
193 144 m 1,0,1
 202 128 l 2,2,3
 218 99 218 99 240 87 c 0,4,5
 267 73 267 73 295 72 c 3,6,7
 350 72 350 72 385 100 c 128,-1,8
 420 128 420 128 427 232 c 26,9,-1
 431 289 l 1,10,11
 403 256 403 256 354 239 c 0,12,13
 326 230 326 230 268 230 c 0,14,15
 178 230 178 230 130 294 c 0,16,17
 81 359 81 359 82 458 c 0,18,19
 82 575 82 575 144 636 c 0,20,21
 205 696 205 696 311 696 c 0,22,23
 384 696 384 696 434 665 c 0,24,25
 473 640 473 640 497 584 c 0,26,27
 518 532 518 532 522 476 c 0,28,29
 527 418 527 418 528 330 c 0,30,31
 528 266 528 266 515 179 c 0,32,33
 508 126 508 126 481 79 c 0,34,35
 453 30 453 30 412 11 c 0,36,37
 360 -12 360 -12 293 -11 c 3,38,39
 210 -11 210 -11 168 23 c 0,40,41
 118 63 118 63 108 112 c 9,42,-1
 193 144 l 1,0,1
176 464 m 0,43,44
 176 411 176 411 199 365 c 0,45,46
 224 314 224 314 294 314 c 0,47,48
 381 314 381 314 408 364 c 0,49,50
 428 400 428 400 427 476 c 3,51,52
 427 523 427 523 403 563 c 0,53,54
 373 614 373 614 302 613 c 0,55,56
 218 613 218 613 192 556 c 0,57,58
 176 518 176 518 176 464 c 0,43,44
EndSplineSet
EndChar
StartChar: colon
Encoding: 58 58 27
Width: 600
VWidth: 1034
Flags: W
LayerCount: 3
Fore
SplineSet
289 -12 m 2,0,1
 264 -12 264 -12 245.5 6.5 c 128,-1,2
 227 25 227 25 227 50 c 2,3,-1
 227 83 l 2,4,5
 227 108 227 108 245.5 126.5 c 128,-1,6
 264 145 264 145 289 145 c 2,7,-1
 311 145 l 2,8,9
 337 145 337 145 355 126.5 c 128,-1,10
 373 108 373 108 373 83 c 2,11,-1
 373 50 l 2,12,13
 373 25 373 25 355 6.5 c 128,-1,14
 337 -12 337 -12 311 -12 c 2,15,-1
 289 -12 l 2,0,1
289 373 m 2,16,17
 264 373 264 373 245.5 392 c 128,-1,18
 227 411 227 411 227 436 c 2,19,-1
 227 469 l 2,20,21
 227 494 227 494 245.5 512.5 c 128,-1,22
 264 531 264 531 289 531 c 2,23,-1
 311 531 l 2,24,25
 337 531 337 531 355 512 c 128,-1,26
 373 493 373 493 373 469 c 2,27,-1
 373 436 l 2,28,29
 373 411 373 411 355 392 c 128,-1,30
 337 373 337 373 311 373 c 2,31,-1
 289 373 l 2,16,17
EndSplineSet
EndChar
StartChar: semicolon
Encoding: 59 59 28
Width: 600
VWidth: 1034
Flags: W
LayerCount: 3
Fore
SplineSet
275 -11 m 5,0,1
 258 -7 258 -7 242.5 9 c 132,-1,2
 227 25 227 25 227 50 c 6,3,-1
 227 83 l 6,4,5
 227 108 227 108 245.5 126.5 c 132,-1,6
 264 145 264 145 289 145 c 6,7,-1
 311 145 l 6,8,9
 337 145 337 145 355 126.5 c 132,-1,10
 373 108 373 108 373 83 c 6,11,-1
 373 50 l 6,12,13
 373 -1 373 -1 347 -52 c 4,14,15
 315 -114 315 -114 240 -161 c 5,16,-1
 196 -126 l 5,17,18
 215 -117 215 -117 244 -83.5 c 132,-1,19
 273 -50 273 -50 275 -11 c 5,0,1
289 373 m 2,20,21
 264 373 264 373 245.5 392 c 128,-1,22
 227 411 227 411 227 436 c 2,23,-1
 227 469 l 2,24,25
 227 494 227 494 245.5 512.5 c 128,-1,26
 264 531 264 531 289 531 c 2,27,-1
 311 531 l 2,28,29
 337 531 337 531 355 512 c 128,-1,30
 373 493 373 493 373 469 c 2,31,-1
 373 436 l 2,32,33
 373 411 373 411 355 392 c 128,-1,34
 337 373 337 373 311 373 c 2,35,-1
 289 373 l 2,20,21
EndSplineSet
Layer: 2
SplineSet
277.241210938 -11.37890625 m 13
 263.79296875 -11.37890625 l 6
 256.896484375 -11.37890625 251.034179688 -8.9658203125 246.20703125 -4.1376953125 c 4
 240 2.0693359375 237.241210938 8.275390625 237.930664062 14.482421875 c 6
 243.103515625 99.310546875 l 6
 243.79296875 106.896484375 246.551757812 113.103515625 251.37890625 117.930664062 c 4
 255.517578125 122.069335938 261.37890625 124.482421875 268.965820312 125.172851562 c 6
 328.965820312 128.275390625 l 6
 336.551757812 128.965820312 343.448242188 125.862304688 349.655273438 118.965820312 c 4
 353.79296875 114.827148438 355.517578125 108.275390625 354.827148438 99.310546875 c 6
 350.689453125 50.689453125 l 6
 346.551757812 1.724609375 334.482421875 -35.8623046875 314.482421875 -62.0693359375 c 4
 293.103515625 -89.6552734375 267.5859375 -112.4140625 237.930664062 -130.344726562 c 5
 218.275390625 -101.37890625 l 5
 228.62109375 -95.1728515625 241.37890625 -84.482421875 256.551757812 -69.310546875 c 4
 270.344726562 -53.4482421875 277.241210938 -34.1376953125 277.241210938 -11.37890625 c 13
268.965820312 477.930664062 m 6
 328.965820312 481.034179688 l 6
 335.862304688 481.724609375 341.724609375 479.310546875 346.551757812 473.79296875 c 4
 352.758789062 467.5859375 355.517578125 461.37890625 354.827148438 455.172851562 c 6
 349.655273438 370.344726562 l 6
 348.965820312 362.758789062 346.20703125 356.551757812 341.37890625 351.724609375 c 4
 337.241210938 347.5859375 331.37890625 345.172851562 323.79296875 344.482421875 c 6
 263.79296875 341.37890625 l 6
 256.896484375 341.37890625 251.034179688 343.79296875 246.20703125 348.62109375 c 4
 240 354.827148438 237.241210938 361.034179688 237.930664062 367.241210938 c 6
 243.103515625 452.069335938 l 6
 243.79296875 459.655273438 246.551757812 465.862304688 251.37890625 470.689453125 c 4
 255.517578125 474.827148438 261.37890625 477.241210938 268.965820312 477.930664062 c 6
EndSplineSet
EndChar
StartChar: less
Encoding: 60 60 29
Width: 600
VWidth: 1034
Flags: W
LayerCount: 3
Fore
SplineSet
79 370 m 21,0,-1
 505 579 l 5,1,-1
 523 488 l 5,2,-1
 194 324 l 5,3,-1
 523 159 l 5,4,-1
 502 69 l 5,5,-1
 79 278 l 13,6,-1
 79 370 l 21,0,-1
EndSplineSet
EndChar
StartChar: equal
Encoding: 61 61 30
Width: 600
VWidth: 1034
Flags: W
LayerCount: 3
Fore
SplineSet
517 166 m 1,0,-1
 83 166 l 1,1,-1
 83 243 l 1,2,-1
 517 243 l 1,3,-1
 517 166 l 1,0,-1
517 393 m 1,4,-1
 83 393 l 1,5,-1
 83 471 l 1,6,-1
 517 471 l 1,7,-1
 517 393 l 1,4,-1
EndSplineSet
EndChar
StartChar: greater
Encoding: 62 62 31
Width: 600
VWidth: 1034
Flags: W
LayerCount: 3
Fore
SplineSet
521 370 m 17,0,-1
 95 579 l 1,1,-1
 77 488 l 1,2,-1
 406 324 l 1,3,-1
 77 159 l 1,4,-1
 98 69 l 1,5,-1
 521 278 l 9,6,-1
 521 370 l 17,0,-1
EndSplineSet
EndChar
StartChar: question
Encoding: 63 63 32
Width: 600
VWidth: 1034
Flags: W
LayerCount: 3
Fore
SplineSet
341 212 m 1,0,-1
 248 194 l 1,1,-1
 248 423 l 1,2,3
 343 447 343 447 348 447 c 0,4,5
 377 454 377 454 387 463 c 0,6,7
 400 474 400 474 405 506.5 c 128,-1,8
 410 539 410 539 410 569 c 0,9,10
 410 589 410 589 408 607 c 0,11,12
 405 639 405 639 391 655 c 0,13,14
 380 667 380 667 360 672 c 0,15,16
 338 678 338 678 304 680 c 0,17,18
 284 680 284 680 247 672 c 0,19,20
 225 668 225 668 214 655 c 0,21,22
 205 646 205 646 202 637 c 0,23,24
 198 625 198 625 193 606 c 2,25,-1
 188 582 l 1,26,-1
 97 601 l 1,27,-1
 102 623 l 2,28,29
 108 652 108 652 115 667 c 0,30,31
 125 693 125 693 144 713 c 0,32,33
 177 746 177 746 228 756 c 0,34,35
 259 763 259 763 306 763 c 0,36,37
 353 763 353 763 384 755 c 0,38,39
 434 743 434 743 463 709 c 0,40,41
 481 689 481 689 489.5 665 c 128,-1,42
 498 641 498 641 501 618 c 0,43,44
 502 602 502 602 502 584 c 0,45,46
 502 547 502 547 496 497 c 0,47,48
 492 469 492 469 482 448 c 0,49,50
 464 405 464 405 400 381 c 0,51,52
 394 379 394 379 341 365 c 1,53,-1
 341 212 l 1,0,-1
266 114 m 2,54,-1
 323 122 l 2,55,56
 332 123 332 123 340.5 115 c 128,-1,57
 349 107 349 107 349 96 c 2,58,-1
 349 32 l 2,59,60
 349 22 349 22 340 13 c 0,61,62
 335 8 335 8 323 6 c 2,63,-1
 266 -2 l 2,64,65
 257 -3 257 -3 248.5 5 c 128,-1,66
 240 13 240 13 240 24 c 2,67,-1
 240 88 l 2,68,69
 240 98 240 98 248 107 c 0,70,71
 254 112 254 112 266 114 c 2,54,-1
EndSplineSet
Layer: 2
SplineSet
536.896484375 377.5859375 m 260
 536.896484375 307.241210938 532.758789062 247.758789062 524.482421875 199.137695312 c 132
 516.20703125 150.517578125 503.103515625 110.689453125 485.172851562 79.6552734375 c 132
 467.241210938 48.62109375 443.103515625 25.8623046875 412.758789062 11.37890625 c 4
 383.103515625 -3.103515625 345.862304688 -10.3447265625 301.034179688 -10.3447265625 c 263
 254.827148438 -10.3447265625 216.896484375 -3.103515625 187.241210938 11.37890625 c 4
 156.896484375 25.8623046875 132.758789062 48.62109375 114.827148438 79.6552734375 c 132
 96.896484375 110.689453125 83.79296875 150.517578125 75.517578125 199.137695312 c 132
 67.2412109375 247.758789062 63.103515625 307.241210938 63.103515625 377.5859375 c 260
 63.103515625 447.930664062 67.2412109375 507.4140625 75.517578125 556.034179688 c 132
 83.79296875 604.655273438 96.896484375 644.482421875 114.827148438 675.517578125 c 132
 132.758789062 706.551757812 156.896484375 729.310546875 187.241210938 743.79296875 c 4
 216.896484375 758.275390625 254.827148438 765.517578125 301.034179688 765.517578125 c 263
 345.862304688 765.517578125 383.103515625 758.275390625 412.758789062 743.79296875 c 4
 443.103515625 729.310546875 467.241210938 706.551757812 485.172851562 675.517578125 c 132
 503.103515625 644.482421875 516.20703125 604.655273438 524.482421875 556.034179688 c 132
 532.758789062 507.4140625 536.896484375 447.930664062 536.896484375 377.5859375 c 260
156.20703125 377.5859375 m 260
 156.20703125 333.448242188 157.5859375 294.137695312 160.344726562 259.655273438 c 4
 162.4140625 229.310546875 168.448242188 197.758789062 178.448242188 165 c 132
 188.448242188 132.241210938 202.4140625 109.655273438 220.344726562 97.2412109375 c 4
 240.344726562 82.7587890625 267.241210938 75.517578125 301.034179688 75.517578125 c 31
 331.37890625 75.517578125 357.5859375 82.7587890625 379.655273438 97.2412109375 c 4
 397.5859375 109.655273438 411.551757812 132.241210938 421.551757812 165 c 132
 431.551757812 197.758789062 437.5859375 229.310546875 439.655273438 259.655273438 c 4
 442.4140625 294.137695312 443.79296875 333.448242188 443.79296875 377.5859375 c 260
 443.79296875 421.724609375 442.4140625 461.034179688 439.655273438 495.517578125 c 4
 437.5859375 525.862304688 431.551757812 557.4140625 421.551757812 590.172851562 c 132
 411.551757812 622.930664062 397.5859375 645.517578125 379.655273438 657.930664062 c 4
 357.5859375 672.4140625 331.37890625 679.655273438 301.034179688 679.655273438 c 31
 267.241210938 679.655273438 240.344726562 672.4140625 220.344726562 657.930664062 c 4
 202.4140625 645.517578125 188.448242188 622.930664062 178.448242188 590.172851562 c 132
 168.448242188 557.4140625 162.4140625 525.862304688 160.344726562 495.517578125 c 4
 157.5859375 461.034179688 156.20703125 421.724609375 156.20703125 377.5859375 c 260
EndSplineSet
EndChar
StartChar: at
Encoding: 64 64 33
Width: 600
VWidth: 1034
Flags: W
LayerCount: 3
Fore
SplineSet
462 152 m 2,0,-1
 462 342 l 2,1,2
 462 384 462 384 440 397.5 c 128,-1,3
 418 411 418 411 382 411 c 0,4,5
 313 411 313 411 297 364 c 0,6,7
 288 337 288 337 288 248 c 0,8,9
 288 122 288 122 314 96 c 0,10,11
 337 74 337 74 377 74 c 3,12,13
 397 74 397 74 425 93 c 0,14,15
 462 117 462 117 462 152 c 2,0,-1
459 456 m 1,16,17
 453 512 453 512 438 567 c 0,18,19
 424 618 424 618 393 648 c 0,20,21
 361 679 361 679 297.5 679 c 131,-1,22
 234 679 234 679 205 647 c 0,23,24
 171 611 171 611 158 561 c 0,25,26
 144 506 144 506 140 432 c 0,27,28
 135 347 135 347 134 263 c 0,29,30
 134 167 134 167 140 92 c 0,31,32
 145 12 145 12 161 -38 c 0,33,34
 174 -78 174 -78 208.5 -112.5 c 128,-1,35
 243 -147 243 -147 312.5 -147 c 128,-1,36
 382 -147 382 -147 436 -147 c 1,37,-1
 449 -230 l 1,38,39
 373 -230 373 -230 298 -230 c 0,40,41
 216 -230 216 -230 166 -189 c 0,42,43
 114 -147 114 -147 91 -82 c 0,44,45
 65 -9 65 -9 59 59 c 0,46,47
 52 145 52 145 52 263 c 0,48,49
 52 380 52 380 59 463.5 c 128,-1,50
 66 547 66 547 91 614 c 0,51,52
 116 679 116 679 168 723 c 0,53,54
 215 761 215 761 298 761 c 0,55,56
 379 761 379 761 430 723 c 128,-1,57
 481 685 481 685 505 617 c 0,58,59
 532 539 532 539 538 468 c 0,60,61
 545 378 545 378 545 263 c 2,62,-1
 545 0 l 1,63,-1
 462 -10 l 5,64,-1
 462 44 l 1,65,66
 452 34 452 34 448 29 c 0,67,68
 419 -7 419 -7 356 -7 c 3,69,70
 305 -7 305 -7 267 25 c 0,71,72
 205 77 205 77 205 258 c 0,73,74
 205 374 205 374 236 423 c 0,75,76
 278 490 278 490 370 490 c 0,77,78
 411 490 411 490 441 470 c 0,79,80
 451 462 451 462 459 456 c 1,16,17
EndSplineSet
EndChar
StartChar: A
Encoding: 65 65 34
Width: 600
VWidth: 1034
Flags: W
AnchorPoint: "Anchor 3" 485 1 basechar 0
AnchorPoint: "Anchor 2" 304 1 basechar 0
AnchorPoint: "Anchor 0" 301 732 basechar 0
LayerCount: 3
Fore
SplineSet
377 303 m 21,0,-1
 339 470 l 29,1,-1
 301 656 l 5,2,-1
 264 470 l 29,3,-1
 224 303 l 13,4,-1
 377 303 l 21,0,-1
554 0 m 5,5,-1
 451 0 l 13,6,-1
 394 231 l 5,7,-1
 206 231 l 5,8,-1
 150 0 l 5,9,-1
 47 0 l 5,10,-1
 256 752 l 5,11,-1
 343 763 l 5,12,-1
 554 0 l 5,5,-1
EndSplineSet
EndChar
StartChar: B
Encoding: 66 66 35
Width: 600
VWidth: 1034
Flags: W
AnchorPoint: "Anchor 2" 284 1 basechar 0
LayerCount: 3
Fore
SplineSet
178 360 m 1,0,-1
 178 83 l 1,1,-1
 233 79 l 2,2,3
 246 78 246 78 269 78 c 0,4,5
 380 78 380 78 415 109 c 0,6,7
 449 139 449 139 449 211 c 0,8,9
 449 288 449 288 409.5 324 c 128,-1,10
 370 360 370 360 274 360 c 2,11,-1
 178 360 l 1,0,-1
178 670 m 1,12,-1
 178 439 l 1,13,-1
 296 439 l 2,14,15
 356 439 356 439 386 481 c 128,-1,16
 416 523 416 523 416 567 c 0,17,18
 416 631 416 631 391 654 c 128,-1,19
 366 677 366 677 291 677 c 3,20,21
 252 677 252 677 227 674 c 2,22,-1
 178 670 l 1,12,-1
85 638 m 2,23,24
 85 656 85 656 80 661 c 24,25,26
 73 668 73 668 54 668 c 2,27,-1
 38 668 l 1,28,-1
 57 751 l 9,29,-1
 206 760 l 2,30,31
 239 762 239 762 268 762 c 0,32,33
 377 761 377 761 428 738 c 8,34,35
 506 703 506 703 506 576 c 0,36,37
 506 504 506 504 466.5 461.5 c 128,-1,38
 427 419 427 419 385 409 c 1,39,-1
 385 407 l 1,40,41
 538 386 538 386 538 212 c 0,42,43
 538 157 538 157 519 106 c 0,44,45
 505 66 505 66 466 39 c 24,46,47
 429 14 429 14 372 2 c 0,48,49
 330 -7 330 -7 267 -7 c 0,50,51
 245 -7 245 -7 222 -6 c 2,52,-1
 85 0 l 1,53,-1
 85 638 l 2,23,24
EndSplineSet
EndChar
StartChar: C
Encoding: 67 67 36
Width: 600
VWidth: 1034
Flags: W
AnchorPoint: "Anchor 0" 317 738 basechar 0
AnchorPoint: "Anchor 2" 324 0 basechar 0
LayerCount: 3
Fore
SplineSet
453 590 m 17,0,1
 436 641 436 641 408 658 c 0,2,3
 373 680 373 680 324 680 c 27,4,5
 269 680 269 680 237 658 c 0,6,7
 208 639 208 639 191 590 c 128,-1,8
 174 541 174 541 171 496 c 0,9,10
 167 444 167 444 167 378 c 256,11,12
 167 312 167 312 171 260 c 0,13,14
 174 214 174 214 191.5 165 c 128,-1,15
 209 116 209 116 238 97 c 0,16,17
 270 75 270 75 323 76 c 27,18,19
 374 76 374 76 408 97 c 0,20,21
 435 114 435 114 451 166 c 1,22,-1
 538 130 l 1,23,24
 526 105 526 105 512 80 c 0,25,26
 488 36 488 36 440.5 13 c 128,-1,27
 393 -10 393 -10 323 -10 c 259,28,29
 255 -10 255 -10 200 11 c 0,30,31
 161 27 161 27 128 80 c 0,32,33
 100 127 100 127 86.5 199.5 c 128,-1,34
 73 272 73 272 73 378 c 256,35,36
 73 484 73 484 87 557 c 0,37,38
 98 621 98 621 129 676 c 0,39,40
 157 725 157 725 200 744 c 0,41,42
 248 766 248 766 323 766 c 259,43,44
 405 766 405 766 447 743 c 0,45,46
 487 721 487 721 516 676 c 0,47,48
 527 658 527 658 538 629 c 9,49,-1
 453 590 l 17,0,1
EndSplineSet
EndChar
StartChar: D
Encoding: 68 68 37
Width: 600
VWidth: 1034
Flags: W
AnchorPoint: "Anchor 4" 304 370 basechar 0
AnchorPoint: "Anchor 0" 275 738 basechar 0
LayerCount: 3
Fore
SplineSet
280 78 m 0,0,1
 327 78 327 78 370 98 c 0,2,3
 405 116 405 116 420 158 c 0,4,5
 441 218 441 218 444 258 c 0,6,7
 449 315 449 315 449 377 c 128,-1,8
 449 439 449 439 444 496 c 0,9,10
 440 533 440 533 420 596 c 0,11,12
 408 635 408 635 374 657 c 0,13,14
 344 677 344 677 288 677 c 16,15,16
 259 677 259 677 227 674 c 2,17,-1
 178 671 l 1,18,-1
 178 84 l 1,19,-1
 233 80 l 2,20,21
 259 78 259 78 280 78 c 0,0,1
289 -8 m 259,22,23
 242 -8 242 -8 222 -7 c 18,24,-1
 85 0 l 1,25,-1
 85 637 l 2,26,27
 85 655 85 655 80 660 c 24,28,29
 73 667 73 667 54 667 c 2,30,-1
 38 667 l 1,31,-1
 57 751 l 9,32,-1
 206 759 l 2,33,-1
 289 762 l 0,34,35
 370 762 370 762 412 742.5 c 128,-1,36
 454 723 454 723 482 676 c 0,37,38
 513 621 513 621 524 557 c 0,39,40
 538 481 538 481 539 378 c 0,41,42
 539 268 539 268 524 199 c 0,43,44
 508 129 508 129 483 84 c 0,45,46
 460 46 460 46 412 20 c 0,47,48
 358 -8 358 -8 289 -8 c 259,22,23
EndSplineSet
EndChar
StartChar: E
Encoding: 69 69 38
Width: 600
VWidth: 1034
Flags: W
AnchorPoint: "Anchor 3" 416 5 basechar 0
AnchorPoint: "Anchor 2" 304 3 basechar 0
AnchorPoint: "Anchor 0" 277 732 basechar 0
LayerCount: 3
Fore
SplineSet
491 0 m 25,0,-1
 237 0 l 2,1,-1
 85 0 l 1,2,-1
 85 639 l 2,3,4
 85 657 85 657 80 662 c 24,5,6
 73 669 73 669 54 669 c 2,7,-1
 38 669 l 1,8,-1
 54 755 l 9,9,-1
 497 755 l 25,10,-1
 481 669 l 25,11,-1
 178 669 l 17,12,-1
 178 439 l 1,13,-1
 410 439 l 25,14,-1
 397 353 l 25,15,-1
 178 353 l 1,16,-1
 178 86 l 9,17,-1
 507 86 l 25,18,-1
 491 0 l 25,0,-1
EndSplineSet
EndChar
StartChar: F
Encoding: 70 70 39
Width: 600
VWidth: 1034
Flags: W
AnchorPoint: "Anchor 0" 328 738 basechar 0
LayerCount: 3
Fore
SplineSet
188 0 m 25,0,-1
 95 0 l 1,1,-1
 95 639 l 2,2,3
 95 657 95 657 90 662 c 24,4,5
 83 669 83 669 64 669 c 2,6,-1
 49 669 l 1,7,-1
 64 755 l 9,8,-1
 586 755 l 25,9,-1
 570 669 l 25,10,-1
 188 669 l 17,11,-1
 188 439 l 1,12,-1
 478 439 l 25,13,-1
 466 353 l 25,14,-1
 188 353 l 1,15,-1
 188 0 l 25,0,-1
EndSplineSet
EndChar
StartChar: G
Encoding: 71 71 40
Width: 600
VWidth: 1034
Flags: W
AnchorPoint: "Anchor 2" 307 1 basechar 0
AnchorPoint: "Anchor 0" 312 753 basechar 0
LayerCount: 3
Fore
SplineSet
534 87 m 1,0,1
 504 37 504 37 453 11 c 0,2,3
 411 -11 411 -11 312 -10 c 259,4,5
 254 -10 254 -10 200 11 c 0,6,7
 161 27 161 27 128 80 c 0,8,9
 100 127 100 127 86.5 199.5 c 128,-1,10
 73 272 73 272 73 378 c 256,11,12
 73 484 73 484 87 557 c 0,13,14
 98 621 98 621 129 676 c 0,15,16
 157 725 157 725 200 744 c 0,17,18
 248 766 248 766 312 766 c 259,19,20
 394 766 394 766 437 743 c 0,21,22
 477 721 477 721 506 676 c 0,23,24
 517 658 517 658 528 629 c 9,25,-1
 443 590 l 17,26,27
 426 641 426 641 397 658 c 0,28,29
 364 679 364 679 313 679 c 24,30,31
 267 679 267 679 237 660 c 0,32,33
 208 641 208 641 191 591 c 128,-1,34
 174 541 174 541 171 496 c 0,35,36
 167 444 167 444 167 378 c 256,37,38
 167 312 167 312 171 260 c 0,39,40
 174 210 174 210 191 162.5 c 128,-1,41
 208 115 208 115 237 96 c 0,42,43
 269 74 269 74 312 74 c 0,44,45
 359 74 359 74 379 79 c 0,46,47
 443 92 443 92 443 137 c 2,48,-1
 444 309 l 1,49,-1
 321 309 l 25,50,-1
 341 392 l 25,51,-1
 534 392 l 1,52,-1
 534 87 l 1,0,1
EndSplineSet
EndChar
StartChar: H
Encoding: 72 72 41
Width: 600
VWidth: 1034
Flags: W
AnchorPoint: "Anchor 0" 296 738 basechar 0
LayerCount: 3
Fore
SplineSet
80 753 m 25,0,-1
 174 770 l 9,1,-1
 173 397 l 1,2,-1
 426 397 l 1,3,-1
 427 754 l 25,4,-1
 520 770 l 1,5,-1
 520 0 l 17,6,-1
 427 0 l 1,7,-1
 426 314 l 1,8,-1
 173 314 l 1,9,-1
 173 0 l 17,10,-1
 80 0 l 1,11,-1
 80 753 l 25,0,-1
EndSplineSet
EndChar
StartChar: I
Encoding: 73 73 42
Width: 600
VWidth: 1034
Flags: W
AnchorPoint: "Anchor 3" 363 4 basechar 0
AnchorPoint: "Anchor 2" 303 4 basechar 0
AnchorPoint: "Anchor 0" 300 732 basechar 0
LayerCount: 3
Fore
SplineSet
253 126 m 2,0,1
 253 631 l 2,2,3
 253 670 253 670 216 670 c 2,4,-1
 107 670 l 1,5,-1
 117 755 l 1,6,-1
 493 755 l 1,7,-1
 483 670 l 1,8,-1
 382 670 l 2,9,10
 347 670 347 670 347 631 c 2,11,-1
 347 126 l 2,12,13
 347 86 347 86 382 86 c 2,14,-1
 493 85 l 1,15,-1
 483 0 l 1,16,-1
 107 0 l 1,17,-1
 117 85 l 1,18,-1
 216 85 l 2,19,20
 253 85 253 85 253 126 c 2,0,1
EndSplineSet
EndChar
StartChar: J
Encoding: 74 74 43
Width: 600
VWidth: 1034
Flags: W
AnchorPoint: "Anchor 0" 378 738 basechar 0
LayerCount: 3
Fore
SplineSet
481 157 m 10,0,1
 481 -11 481 -11 289 -10 c 275,2,3
 219 -10 219 -10 166 12.5 c 128,-1,4
 113 35 113 35 89 80 c 0,5,6
 76 106 76 106 63 130 c 1,7,-1
 150 166 l 1,8,9
 167 114 167 114 193 97 c 0,10,11
 227 75 227 75 289 76 c 19,12,13
 388 76 388 76 388 157 c 2,14,-1
 388 631 l 2,15,16
 388 670 388 670 351 670 c 2,17,-1
 200 670 l 1,18,-1
 210 755 l 1,19,-1
 546 755 l 1,20,-1
 536 674 l 1,21,-1
 516 671 l 2,22,23
 481 666 481 666 481 631 c 2,24,-1
 481 157 l 10,0,1
EndSplineSet
EndChar
StartChar: K
Encoding: 75 75 44
Width: 600
VWidth: 1034
Flags: W
AnchorPoint: "Anchor 0" 275 738 basechar 0
AnchorPoint: "Anchor 2" 303 1 basechar 0
LayerCount: 3
Fore
SplineSet
242 314 m 2,0,-1
 230 330 l 2,1,-1
 221 340 l 0,2,3
 210 351 210 351 198 353 c 2,4,-1
 178 355 l 1,5,-1
 176 0 l 1,6,-1
 85 0 l 1,7,-1
 85 648 l 2,8,9
 85 657 85 657 84 662 c 128,-1,10
 83 667 83 667 80 670 c 128,-1,11
 77 673 77 673 76 673 c 0,12,13
 73 674 73 674 69 676 c 0,14,15
 67 677 67 677 54 678 c 2,16,-1
 38 680 l 1,17,-1
 57 755 l 1,18,-1
 178 763 l 1,19,-1
 178 443 l 1,20,-1
 188 444 l 2,21,22
 199 445 199 445 202 447 c 0,23,24
 218 453 218 453 234 476 c 2,25,-1
 250 499 l 2,26,27
 278 537 278 537 311 602 c 0,28,29
 358 692 358 692 371 721 c 26,30,-1
 391 763 l 1,31,-1
 500 758 l 1,32,-1
 511 687 l 1,33,34
 485 687 485 687 471 683 c 0,35,36
 447 677 447 677 437 659 c 2,37,-1
 426 641 l 2,38,39
 406 607 406 607 404 604 c 0,40,41
 385 566 385 566 352.5 513 c 128,-1,42
 320 460 320 460 301 442 c 0,43,44
 289 430 289 430 271 420 c 2,45,-1
 258 413 l 1,46,-1
 268 406 l 2,47,48
 290 392 290 392 299 380 c 2,49,-1
 309 367 l 10,50,51
 332 339 332 339 404 228 c 24,52,-1
 478 106 l 16,53,54
 485 93 485 93 493 86 c 0,55,56
 500 80 500 80 510 77 c 0,57,58
 515 75 515 75 530 72 c 0,59,60
 540 71 540 71 548 69 c 1,61,-1
 538 0 l 1,62,-1
 428 -8 l 1,63,-1
 408 40 l 10,64,65
 405 47 405 47 356 131 c 0,66,67
 295 235 295 235 287 248 c 24,68,69
 246 309 246 309 242 314 c 2,0,-1
EndSplineSet
EndChar
StartChar: L
Encoding: 76 76 45
Width: 600
VWidth: 1034
Flags: W
AnchorPoint: "Anchor 0" 130 738 basechar 0
AnchorPoint: "Anchor 2" 302 2 basechar 0
LayerCount: 3
Fore
SplineSet
54 755 m 25,0,-1
 178 755 l 17,1,-1
 178 86 l 9,2,-1
 507 86 l 25,3,-1
 491 0 l 25,4,-1
 237 0 l 2,5,-1
 85 0 l 1,6,-1
 85 646 l 2,7,8
 85 664 85 664 80 668 c 24,9,10
 76 672 76 672 54 676 c 10,11,-1
 38 678 l 25,12,-1
 54 755 l 25,0,-1
EndSplineSet
EndChar
StartChar: M
Encoding: 77 77 46
Width: 600
VWidth: 1034
Flags: W
AnchorPoint: "Anchor 0" 296 738 basechar 0
AnchorPoint: "Anchor 2" 294 14 basechar 0
LayerCount: 3
Fore
SplineSet
332 4 m 1,0,-1
 263 16 l 1,1,-1
 164 487 l 1,2,-1
 133 654 l 1,3,-1
 145 0 l 25,4,-1
 54 0 l 25,5,-1
 54 753 l 1,6,-1
 172 766 l 1,7,-1
 237 456 l 1,8,-1
 300 151 l 1,9,-1
 356 456 l 1,10,-1
 416 753 l 1,11,-1
 536 766 l 1,12,-1
 536 0 l 25,13,-1
 445 0 l 25,14,-1
 456 654 l 1,15,-1
 426 487 l 1,16,-1
 332 4 l 1,0,-1
EndSplineSet
EndChar
StartChar: N
Encoding: 78 78 47
Width: 600
VWidth: 1034
Flags: W
AnchorPoint: "Anchor 2" 298 1 basechar 0
AnchorPoint: "Anchor 0" 301 732 basechar 0
LayerCount: 3
Fore
SplineSet
160 0 m 25,0,-1
 67 0 l 25,1,-1
 67 751 l 9,2,-1
 175 766 l 1,3,-1
 439 187 l 1,4,-1
 439 755 l 1,5,-1
 532 755 l 1,6,-1
 532 0 l 1,7,-1
 434 -10 l 1,8,-1
 160 590 l 1,9,-1
 160 0 l 25,0,-1
EndSplineSet
EndChar
StartChar: O
Encoding: 79 79 48
Width: 600
VWidth: 1034
Flags: W
AnchorPoint: "Anchor 3" 358 0 basechar 0
AnchorPoint: "Anchor 2" 303 0 basechar 0
AnchorPoint: "Anchor 0" 301 732 basechar 0
LayerCount: 3
Fore
SplineSet
537 378 m 256,0,1
 537 272 537 272 524.5 199 c 128,-1,2
 512 126 512 126 485 79.5 c 128,-1,3
 458 33 458 33 413 11 c 0,4,5
 369 -11 369 -11 301 -10 c 259,6,7
 232 -10 232 -10 187 11 c 0,8,9
 141 33 141 33 114.5 79.5 c 128,-1,10
 88 126 88 126 75.5 199 c 128,-1,11
 63 272 63 272 63 378 c 256,12,13
 63 484 63 484 75.5 556.5 c 128,-1,14
 88 629 88 629 115 675.5 c 128,-1,15
 142 722 142 722 187 744 c 0,16,17
 231 766 231 766 301 766 c 259,18,19
 368 766 368 766 413 744 c 0,20,21
 459 722 459 722 485.5 675.5 c 128,-1,22
 512 629 512 629 524.5 556.5 c 128,-1,23
 537 484 537 484 537 378 c 256,0,1
156 378 m 256,24,25
 156 312 156 312 160 260 c 0,26,27
 163 214 163 214 178 165 c 128,-1,28
 193 116 193 116 220 97 c 0,29,30
 250 75 250 75 301 76 c 27,31,32
 347 76 347 76 380 97 c 0,33,34
 407 116 407 116 422 165 c 128,-1,35
 437 214 437 214 440 260 c 0,36,37
 444 312 444 312 444 378 c 256,38,39
 444 444 444 444 440 496 c 0,40,41
 437 542 437 542 422 590.5 c 128,-1,42
 407 639 407 639 380 658 c 0,43,44
 347 680 347 680 301 680 c 27,45,46
 250 680 250 680 220 658 c 0,47,48
 193 639 193 639 178 590 c 128,-1,49
 163 541 163 541 160 496 c 0,50,51
 156 444 156 444 156 378 c 256,24,25
EndSplineSet
EndChar
StartChar: P
Encoding: 80 80 49
Width: 600
VWidth: 1034
Flags: W
AnchorPoint: "Anchor 0" 289 738 basechar 0
LayerCount: 3
Fore
SplineSet
178 669 m 5,0,-1
 178 397 l 5,1,-1
 254 394 l 6,2,3
 281 393 281 393 292 393 c 7,4,5
 399 393 399 393 422 430 c 4,6,7
 447 469 447 469 447 535 c 4,8,9
 446 629 446 629 422 651.5 c 132,-1,10
 398 674 398 674 312 674 c 7,11,12
 258 674 258 674 227 672 c 6,13,-1
 178 669 l 5,0,-1
178 310 m 5,15,-1
 176 0 l 6,16,-1
 85 0 l 5,17,-1
 85 638 l 6,18,19
 85 656 85 656 80 661 c 28,20,21
 73 668 73 668 54 668 c 6,22,-1
 38 668 l 5,23,-1
 57 751 l 13,24,-1
 206 759 l 6,25,26
 243 761 243 761 290 761 c 4,27,28
 411 760 411 760 460 737 c 12,29,30
 538 700 538 700 538 532 c 7,31,32
 538 382 538 382 427 325 c 4,33,34
 389 305 389 305 301 304 c 4,35,36
 240 307 240 307 178 310 c 5,15,-1
EndSplineSet
EndChar
StartChar: Q
Encoding: 81 81 50
Width: 600
VWidth: 1034
Flags: W
AnchorPoint: "Anchor 0" 303 738 basechar 0
LayerCount: 3
Fore
SplineSet
156 377.5 m 128,-1,1
 156 311 156 311 160 260 c 0,2,3
 163 214 163 214 178 165 c 128,-1,4
 193 116 193 116 220 97 c 0,5,6
 250 75 250 75 301 76 c 0,7,8
 347 76 347 76 380 97 c 0,9,10
 407 116 407 116 422 165 c 128,-1,11
 437 214 437 214 440 260 c 0,12,13
 444 312 444 312 444 378 c 128,-1,14
 444 444 444 444 440 496 c 0,15,16
 437 542 437 542 422 590.5 c 128,-1,17
 407 639 407 639 380 658 c 0,18,19
 347 680 347 680 301 680 c 0,20,21
 250 680 250 680 220 658 c 0,22,23
 193 639 193 639 178 590 c 128,-1,24
 163 541 163 541 160 496 c 0,25,0
 156 444 156 444 156 377.5 c 128,-1,1
537 377.5 m 128,-1,27
 537 272 537 272 524.5 199 c 128,-1,28
 512 126 512 126 485 80 c 0,29,30
 458 34 458 34 413 11 c 0,31,32
 373 -9 373 -9 313 -10 c 1,33,-1
 313 -27 l 2,34,35
 313 -36 313 -36 323 -55 c 0,36,37
 327 -63 327 -63 341 -65 c 2,38,-1
 514 -95 l 1,39,-1
 500 -162 l 1,40,-1
 176 -128 l 1,41,-1
 161 -57 l 1,42,-1
 192 -52 l 2,43,44
 212 -49 212 -49 218 -41 c 0,45,46
 226 -32 226 -32 227 -12 c 2,47,-1
 227 -2 l 1,48,49
 205 3 205 3 187 11 c 0,50,51
 141 33 141 33 114.5 79.5 c 128,-1,52
 88 126 88 126 75.5 199 c 128,-1,53
 63 272 63 272 63 377.5 c 128,-1,54
 63 483 63 483 75.5 556 c 128,-1,55
 88 629 88 629 115 675.5 c 128,-1,56
 142 722 142 722 187 744 c 0,57,58
 231 766 231 766 301 766 c 0,59,60
 368 766 368 766 413 744 c 0,61,62
 459 722 459 722 485.5 675.5 c 128,-1,63
 512 629 512 629 524.5 556 c 128,-1,26
 537 483 537 483 537 377.5 c 128,-1,27
EndSplineSet
EndChar
StartChar: R
Encoding: 82 82 51
Width: 600
VWidth: 1034
Flags: W
AnchorPoint: "Anchor 0" 273 738 basechar 0
AnchorPoint: "Anchor 2" 304 0 basechar 0
LayerCount: 3
Fore
SplineSet
178 670 m 1,0,-1
 178 424 l 1,1,-1
 244 420 l 2,2,3
 261 419 261 419 277 419 c 0,4,5
 370 419 370 419 396 456 c 0,6,7
 423 494 423 494 423 557 c 0,8,9
 423 630 423 630 397 653 c 128,-1,10
 371 676 371 676 291 676 c 24,11,-1
 227 673 l 2,12,-1
 178 670 l 1,0,-1
236 319 m 2,13,14
 230 328 230 328 227 330 c 24,15,16
 219 335 219 335 207 336 c 2,17,-1
 178 338 l 1,18,-1
 176 0 l 1,19,-1
 85 0 l 1,20,-1
 85 637 l 2,21,22
 85 655 85 655 80 660 c 0,23,24
 73 667 73 667 54 667 c 2,25,-1
 38 667 l 1,26,-1
 57 751 l 1,27,-1
 206 759 l 2,28,-1
 268 761 l 0,29,30
 381 761 381 761 433 737 c 0,31,32
 516 698 516 698 516 566 c 0,33,34
 516 465 516 465 471 406 c 0,35,36
 422 343 422 343 333 337 c 1,37,-1
 337 331 l 2,38,39
 384 261 384 261 408 220 c 0,40,41
 426 189 426 189 443 158 c 2,42,-1
 475 101 l 2,43,44
 487 78 487 78 510 72 c 0,45,46
 539 65 539 65 548 65 c 1,47,-1
 538 0 l 1,48,-1
 428 -5 l 1,49,-1
 407 40 l 2,50,51
 403 49 403 49 328 178 c 0,52,53
 309 210 309 210 249 298 c 2,54,-1
 236 319 l 2,13,14
EndSplineSet
EndChar
StartChar: S
Encoding: 83 83 52
Width: 600
VWidth: 1034
Flags: W
AnchorPoint: "Anchor 2" 288 2 basechar 0
AnchorPoint: "Anchor 0" 306 757 basechar 0
LayerCount: 3
Fore
SplineSet
160 170 m 1,0,-1
 160 153 l 2,1,2
 160 143 160 143 161 137 c 0,3,4
 162 129 162 129 166 122 c 0,5,6
 172 109 172 109 187.5 98.5 c 128,-1,7
 203 88 203 88 229 83 c 0,8,9
 249 79 249 79 273 77 c 0,10,11
 287 76 287 76 299 76 c 0,12,13
 328 76 328 76 353 81 c 0,14,15
 395 91 395 91 420 120 c 0,16,17
 446 150 446 150 448 193 c 0,18,19
 448 196 448 196 448 200 c 0,20,21
 448 242 448 242 423 273 c 0,22,23
 411 290 411 290 392 302 c 0,24,25
 380 310 380 310 354 321 c 2,26,-1
 213 381 l 2,27,28
 173 398 173 398 153 414 c 0,29,30
 126 436 126 436 110 468 c 0,31,32
 87 512 87 512 87 559 c 0,33,34
 87 581 87 581 92 604 c 0,35,36
 102 652 102 652 131 689 c 128,-1,37
 160 726 160 726 205 746 c 0,38,39
 249 767 249 767 306 767 c 0,40,41
 310 767 310 767 313 767 c 0,42,43
 356 767 356 767 409 755 c 0,44,45
 465 744 465 744 526 722 c 1,46,-1
 515 577 l 1,47,-1
 439 577 l 1,48,49
 438 582 438 582 437 595 c 0,50,51
 435 633 435 633 402 657 c 0,52,53
 384 670 384 670 361 676 c 0,54,55
 342 680 342 680 316 680 c 0,56,57
 279 680 279 680 254 671 c 0,58,59
 223 661 223 661 204 636 c 0,60,61
 188 615 188 615 183 587 c 0,62,63
 181 575 181 575 181 563 c 0,64,65
 181 542 181 542 188 524 c 0,66,67
 195 505 195 505 210 493 c 0,68,69
 220 484 220 484 242 475 c 2,70,-1
 416 400 l 2,71,72
 452 384 452 384 470 371 c 0,73,74
 495 352 495 352 512 327 c 0,75,76
 543 278 543 278 543 210 c 0,77,78
 543 129 543 129 501 73 c 0,79,80
 465 26 465 26 403 6 c 0,81,82
 355 -11 355 -11 286 -10 c 0,83,84
 218 -10 218 -10 156 1 c 0,85,86
 107 10 107 10 61 27 c 1,87,-1
 71 159 l 1,88,-1
 160 170 l 1,0,-1
EndSplineSet
EndChar
StartChar: T
Encoding: 84 84 53
Width: 600
VWidth: 1034
Flags: W
AnchorPoint: "Anchor 0" 297 738 basechar 0
AnchorPoint: "Anchor 2" 300 2 basechar 0
LayerCount: 3
Fore
SplineSet
350 0 m 17,0,-1
 250 0 l 9,1,-1
 253 631 l 2,2,3
 253 670 253 670 216 670 c 2,4,-1
 44 670 l 1,5,-1
 55 755 l 1,6,-1
 556 755 l 5,7,-1
 545 670 l 5,8,-1
 382 670 l 2,9,10
 347 670 347 670 347 631 c 2,11,-1
 350 0 l 17,0,-1
EndSplineSet
EndChar
StartChar: U
Encoding: 85 85 54
Width: 600
VWidth: 1034
Flags: W
AnchorPoint: "Anchor 3" 370 1 basechar 0
AnchorPoint: "Anchor 1" 356 737 basechar 0
AnchorPoint: "Anchor 0" 296 738 basechar 0
AnchorPoint: "Anchor 2" 306 0 basechar 0
LayerCount: 3
Fore
SplineSet
301 -11 m 3,0,1
 176 -11 176 -11 130 46 c 0,2,3
 82 104 82 104 83 257 c 2,4,-1
 83 659 l 2,5,6
 83 677 83 677 78 682 c 24,7,8
 71 689 71 689 52 689 c 2,9,-1
 36 689 l 1,10,-1
 52 755 l 9,11,-1
 176 766 l 25,12,-1
 176 257 l 2,13,14
 176 181 176 181 192 132 c 0,15,16
 210 81 210 81 301 82 c 3,17,18
 397 82 397 82 411 132 c 0,19,20
 424 184 424 184 424 256 c 2,21,-1
 424 659 l 2,22,23
 424 677 424 677 419 682 c 24,24,25
 412 689 412 689 393 689 c 2,26,-1
 378 689 l 1,27,-1
 393 755 l 9,28,-1
 517 766 l 25,29,-1
 517 256 l 2,30,31
 517 103 517 103 470.5 46 c 128,-1,32
 424 -11 424 -11 301 -11 c 3,0,1
EndSplineSet
EndChar
StartChar: V
Encoding: 86 86 55
Width: 600
VWidth: 1034
Flags: W
AnchorPoint: "Anchor 0" 306 738 basechar 0
LayerCount: 3
Fore
SplineSet
37 748 m 25,0,-1
 131 766 l 1,1,-1
 240 331 l 1,2,-1
 301 86 l 1,3,-1
 361 331 l 1,4,-1
 440 655 l 2,5,6
 445 676 445 676 440 681 c 24,7,8
 436 685 436 685 411 685 c 2,9,-1
 385 685 l 1,10,-1
 398 755 l 1,11,-1
 567 766 l 9,12,-1
 370 0 l 1,13,14
 300 0 300 0 231 0 c 1,15,-1
 37 748 l 25,0,-1
EndSplineSet
EndChar
StartChar: W
Encoding: 87 87 56
Width: 600
VWidth: 1034
Flags: W
AnchorPoint: "Anchor 0" 302 738 basechar 0
AnchorPoint: "Anchor 2" 300 0 basechar 0
LayerCount: 3
Fore
SplineSet
336 749 m 1,0,-1
 419 79 l 1,1,-1
 482 763 l 25,2,-1
 563 748 l 25,3,-1
 484 0 l 1,4,5
 423 0 423 0 362 0 c 1,6,-1
 322 307 l 1,7,-1
 300 581 l 1,8,-1
 278 307 l 1,9,-1
 238 0 l 1,10,11
 177 0 177 0 116 0 c 1,12,-1
 37 748 l 25,13,-1
 118 763 l 25,14,-1
 181 79 l 1,15,-1
 261 723 l 1,16,-1
 336 749 l 1,0,-1
EndSplineSet
EndChar
StartChar: X
Encoding: 88 88 57
Width: 600
VWidth: 1034
Flags: W
AnchorPoint: "Anchor 0" 306 738 basechar 0
LayerCount: 3
Fore
SplineSet
349 374 m 1,0,-1
 561 749 l 1,1,-1
 473 769 l 1,2,-1
 303 448 l 1,3,-1
 133 769 l 1,4,-1
 39 749 l 25,5,-1
 253 373 l 1,6,-1
 39 3 l 25,7,-1
 133 -17 l 1,8,-1
 303 304 l 1,9,-1
 473 -17 l 1,10,-1
 561 3 l 1,11,-1
 349 374 l 1,0,-1
EndSplineSet
EndChar
StartChar: Y
Encoding: 89 89 58
Width: 600
VWidth: 1034
Flags: W
AnchorPoint: "Anchor 2" 301 1 basechar 0
AnchorPoint: "Anchor 0" 303 732 basechar 0
LayerCount: 3
Fore
SplineSet
473 769 m 1,0,-1
 561 749 l 1,1,-1
 347 349 l 1,2,-1
 347 0 l 25,3,-1
 253 0 l 25,4,-1
 253 351 l 17,5,-1
 39 749 l 25,6,-1
 133 769 l 1,7,-1
 303 448 l 1,8,-1
 473 769 l 1,0,-1
EndSplineSet
EndChar
StartChar: Z
Encoding: 90 90 59
Width: 600
VWidth: 1034
Flags: W
AnchorPoint: "Anchor 0" 305 738 basechar 0
LayerCount: 3
Fore
SplineSet
424 670 m 1,0,-1
 80 670 l 1,1,-1
 97 755 l 17,2,-1
 515 755 l 1,3,-1
 530 679 l 1,4,-1
 174 85 l 1,5,-1
 538 85 l 1,6,-1
 517 0 l 1,7,-1
 82 0 l 1,8,-1
 65 70 l 1,9,-1
 424 670 l 1,0,-1
EndSplineSet
EndChar
StartChar: bracketleft
Encoding: 91 91 60
Width: 600
VWidth: 1034
Flags: W
LayerCount: 3
Fore
SplineSet
253 -152 m 1,0,-1
 253 785 l 1,1,-1
 439 785 l 1,2,-1
 439 699 l 1,3,-1
 347 699 l 1,4,-1
 347 -66 l 5,5,-1
 439 -66 l 5,6,-1
 439 -152 l 1,7,-1
 253 -152 l 1,0,-1
EndSplineSet
EndChar
StartChar: backslash
Encoding: 92 92 61
Width: 600
VWidth: 1034
Flags: W
LayerCount: 3
Fore
SplineSet
430 -152 m 5,0,-1
 83 771 l 5,1,-1
 172 785 l 5,2,-1
 517 -136 l 5,3,-1
 430 -152 l 5,0,-1
EndSplineSet
EndChar
StartChar: bracketright
Encoding: 93 93 62
Width: 600
VWidth: 1034
Flags: W
LayerCount: 3
Fore
SplineSet
346 785 m 1,0,-1
 346 -152 l 1,1,-1
 160 -152 l 1,2,-1
 160 -66 l 5,3,-1
 252 -66 l 5,4,-1
 252 699 l 1,5,-1
 160 699 l 1,6,-1
 160 785 l 1,7,-1
 346 785 l 1,0,-1
EndSplineSet
EndChar
StartChar: asciicircum
Encoding: 94 94 63
Width: 600
VWidth: 1034
Flags: W
LayerCount: 3
Fore
SplineSet
130 331 m 1,0,-1
 56 366 l 1,1,-1
 269 696 l 1,2,-1
 333 696 l 1,3,-1
 545 366 l 1,4,-1
 468 331 l 1,5,-1
 301 586 l 1,6,-1
 130 331 l 1,0,-1
EndSplineSet
EndChar
StartChar: underscore
Encoding: 95 95 64
Width: 600
VWidth: 1034
Flags: W
LayerCount: 3
Fore
SplineSet
548 -114 m 1,0,-1
 548 -36 l 1,1,-1
 52 -36 l 1,2,-1
 52 -114 l 1,3,-1
 548 -114 l 1,0,-1
EndSplineSet
EndChar
StartChar: grave
Encoding: 96 96 65
Width: 600
VWidth: 1034
Flags: W
LayerCount: 3
Fore
SplineSet
313 707 m 0,0,1
 367 667 367 667 422 626 c 1,2,-1
 394 594 l 5,3,4
 353 600 353 600 300 625 c 0,5,6
 263 644 263 644 232 667 c 2,7,-1
 199 695 l 2,8,9
 188 704 188 704 183 718 c 0,10,11
 182 721 182 721 182 725 c 3,12,13
 182 734 182 734 188 744 c 2,14,-1
 200 757 l 2,15,16
 211 773 211 773 226 773 c 0,17,18
 228 773 228 773 231 773 c 0,19,20
 244 773 244 773 260 758 c 0,21,-1
 313 707 l 0,0,1
EndSplineSet
EndChar
StartChar: a
Encoding: 97 97 66
Width: 600
VWidth: 1034
Flags: W
AnchorPoint: "Anchor 3" 453 3 basechar 0
AnchorPoint: "Anchor 2" 296 4 basechar 0
AnchorPoint: "Anchor 0" 284 533 basechar 0
LayerCount: 3
Back
SplineSet
491.37890625 167.5859375 m 1,0,-1
 493.70703125 108.232421875 l 2,1,2
 494.040039062 99.7431640625 494.040039062 99.7431640625 494.603515625 96.162109375 c 0,3,4
 495.640625 89.576171875 495.640625 89.576171875 498.62109375 84.8271484375 c 0,5,6
 502.380859375 78.8349609375 502.380859375 78.8349609375 510.104492188 74.1884765625 c 0,7,8
 516.934570312 70.0791015625 516.934570312 70.0791015625 526.551757812 68.275390625 c 2,9,-1
 543.103515625 65.1728515625 l 1,10,-1
 532.758789062 0 l 1,11,-1
 423.103515625 -8.275390625 l 1,12,-1
 423.103515625 36.20703125 l 1,13,-1
 491.37890625 167.5859375 l 1,0,-1
  Spiro
    491.379 167.586 v
    493.707 108.233 ]
    498.621 84.8276 o
    510.104 74.1884 o
    526.552 68.2759 [
    543.103 65.1724 v
    532.759 0 v
    423.103 -8.27586 v
    423.103 36.2069 v
    0 0 z
  EndSpiro
277.736328125 236.84765625 m 2,14,-1
 251.7578125 236.909179688 l 2,15,16
 223.025390625 236.909179688 223.025390625 236.909179688 205.251953125 233.231445312 c 0,17,18
 155.313476562 222.900390625 155.313476562 222.900390625 155.313476562 163.498046875 c 0,19,20
 155.313476562 135.341796875 155.313476562 135.341796875 161.8046875 117.836914062 c 128,-1,22
 168.294921875 100.333007812 168.294921875 100.333007812 178.368164062 89.685546875 c 128,-1,24
 188.44140625 79.0390625 188.44140625 79.0390625 204.936523438 74.2607421875 c 0,25,26
 222.065429688 69.298828125 222.065429688 69.298828125 253.638671875 69.296875 c 0,27,28
 361.108398438 69.296875 361.108398438 69.296875 387.752929688 113.389648438 c 0,29,30
 393.765625 123.338867188 393.765625 123.338867188 395.923828125 134.920898438 c 128,-1,32
 398.083007812 146.501953125 398.083007812 146.501953125 398.27734375 167.926757812 c 2,33,-1
 398.913085938 237.868164062 l 1,34,35
 319.287109375 236.84765625 319.287109375 236.84765625 277.736328125 236.84765625 c 2,14,-1
  Spiro
    277.736 236.847 [
    251.758 236.909 ]
    225.766 235.989 o
    205.252 233.231 o
    167.798 210.633 o
    155.314 163.498 o
    156.936 138.004 o
    161.804 117.837 o
    169.191 102.047 o
    178.369 89.6858 o
    190.047 80.506 o
    204.937 74.2607 o
    225.677 70.539 o
    253.639 69.2969 o
    340.902 80.32 o
    387.753 113.39 o
    392.802 123.747 o
    395.924 134.92 o
    397.592 148.963 o
    398.277 167.927 [
    398.913 237.869 v
    328.806 237.102 o
    0 0 z
  EndSpiro
251.7578125 319.666992188 m 2,36,-1
 277.736328125 319.606445312 l 2,37,38
 318.627929688 319.606445312 318.627929688 319.606445312 399.161132812 320.638671875 c 1,39,40
 398.09375 356.124023438 398.09375 356.124023438 391.678710938 379.5078125 c 0,41,42
 373.607421875 445.387695312 373.607421875 445.387695312 311.518554688 459.342773438 c 0,43,44
 293.194335938 463.4609375 293.194335938 463.4609375 267.98828125 463.4609375 c 0,45,46
 229.360351562 463.4609375 229.360351562 463.4609375 207.485351562 453.537109375 c 128,-1,48
 185.610351562 443.614257812 185.610351562 443.614257812 173.094726562 423.674804688 c 2,49,-1
 168.215820312 415.90234375 l 1,50,-1
 91.732421875 463.911132812 l 1,51,52
 143.390625 546.20703125 143.390625 546.20703125 267.98828125 546.219726562 c 0,53,54
 350.719726562 546.219726562 350.719726562 546.219726562 404.634765625 509.891601562 c 0,55,56
 462.448242188 470.936523438 462.448242188 470.936523438 482.138671875 399.15234375 c 0,57,58
 492.53125 361.266601562 492.53125 361.266601562 492.53125 300.985351562 c 0,59,60
 492.53125 294.15625 492.53125 294.15625 491.377929688 167.245117188 c 0,61,62
 491.124023438 139.291992188 491.124023438 139.291992188 488.028320312 122.685546875 c 0,63,64
 483.108398438 96.2861328125 483.108398438 96.2861328125 469.830078125 74.3134765625 c 0,65,66
 443.827148438 31.2822265625 443.827148438 31.2822265625 389.6953125 8.91015625 c 128,-1,68
 335.564453125 -13.4619140625 335.564453125 -13.4619140625 253.638671875 -13.4619140625 c 0,69,70
 207.228515625 -13.4619140625 207.228515625 -13.4619140625 176.994140625 -4.7041015625 c 0,71,72
 134.354492188 7.646484375 134.354492188 7.646484375 106.083007812 37.5302734375 c 0,73,74
 85.4443359375 59.3447265625 85.4443359375 59.3447265625 75.697265625 85.6318359375 c 0,75,76
 62.2109375 122.002929688 62.2109375 122.002929688 62.2109375 163.498046875 c 0,77,78
 62.2109375 235.040039062 62.2109375 235.040039062 109.791015625 277.479492188 c 0,79,80
 140.4296875 304.806640625 140.4296875 304.806640625 185.958984375 314.225585938 c 0,81,82
 212.260742188 319.666992188 212.260742188 319.666992188 251.7578125 319.666992188 c 2,36,-1
  Spiro
    251.758 319.668 [
    277.736 319.606 ]
    328.538 319.864 o
    399.161 320.639 v
    396.756 353.099 o
    391.679 379.508 o
    362.604 432.407 o
    311.519 459.342 o
    291.474 462.431 o
    267.988 463.461 o
    233.548 460.98 o
    207.485 453.538 o
    187.951 441.11 o
    173.095 423.676 [
    168.216 415.902 v
    91.7324 463.911 v
    161.626 525.636 o
    267.988 546.219 o
    343.516 537.138 o
    404.635 509.891 o
    452.917 462.729 o
    482.139 399.152 o
    489.933 355.668 o
    492.532 300.986 o
    492.243 264.136 o
    491.378 167.246 o
    490.413 142.129 o
    488.029 122.686 o
    481.019 97.3927 o
    469.83 74.3138 o
    436.795 36.4474 o
    389.696 8.91048 o
    328.616 -7.86869 o
    253.639 -13.4617 o
    211.272 -11.2723 o
    176.995 -4.70424 o
    137.947 12.0297 o
    106.083 37.5299 o
    88.1673 60.4627 o
    75.6973 85.6314 o
    65.5822 123.284 o
    62.2105 163.498 o
    74.1057 227.764 o
    109.792 277.479 o
    144.152 300.33 o
    185.959 314.226 o
    215.559 318.307 o
    0 0 z
  EndSpiro
EndSplineSet
Fore
SplineSet
423 27 m 1,0,1
 362 -13 362 -13 253 -13 c 0,2,3
 204 -13 204 -13 171 -3 c 0,4,5
 133 8 133 8 110 33 c 0,6,7
 62 85 62 85 62 159 c 0,8,9
 62 235 62 235 110 277 c 0,10,11
 142 306 142 306 176 312 c 0,12,13
 214 319 214 319 251 320 c 2,14,-1
 399 320 l 1,15,16
 395 441 395 441 311 459 c 0,17,18
 292 463 292 463 262 463 c 0,19,20
 198 463 198 463 173 424 c 2,21,-1
 169 416 l 1,22,-1
 92 463 l 1,23,24
 144 546 144 546 268 546 c 0,25,26
 352 546 352 546 407 509 c 0,27,28
 462 471 462 471 482 399 c 0,29,30
 492 363 492 363 492 328 c 0,31,32
 492 322 492 322 492 199 c 26,33,-1
 494 109 l 2,34,35
 495 91 495 91 499 85 c 0,36,37
 505 73 505 73 527 68 c 2,38,-1
 543 65 l 1,39,-1
 533 0 l 1,40,-1
 423 -8 l 1,41,-1
 423 27 l 1,0,1
251 237 m 2,42,43
 226 237 226 237 205 233 c 0,44,45
 155 224 155 224 155 163 c 3,46,47
 155 90 155 90 205 74 c 0,48,49
 222 69 222 69 253 69 c 0,50,51
 387 69 387 69 396 134 c 0,52,53
 398 151 398 151 398 168 c 2,54,-1
 399 237 l 1,55,-1
 251 237 l 2,42,43
EndSplineSet
EndChar
StartChar: b
Encoding: 98 98 67
Width: 600
VWidth: 1034
Flags: W
AnchorPoint: "Anchor 2" 298 0 basechar 0
AnchorPoint: "Anchor 0" 304 751 basechar 0
LayerCount: 3
Fore
SplineSet
118 652 m 9,0,1
 118 662 118 662 110 668 c 24,2,3
 101 675 101 675 84 678 c 26,4,-1
 49 683 l 25,5,-1
 59 755 l 1,6,-1
 212 763 l 1,7,-1
 212 489 l 1,8,9
 251 519 251 519 279 528 c 0,10,11
 311 537 311 537 346 537 c 3,12,13
 439 537 439 537 481 490 c 0,14,15
 537 429 537 429 537 271 c 3,16,17
 537 117 537 117 483 54 c 0,18,19
 428 -10 428 -10 310 -10 c 3,20,21
 237 -10 237 -10 118 22 c 1,22,-1
 118 652 l 9,0,1
211 349 m 2,23,-1
 211 94 l 17,24,25
 211 91 211 91 241 81 c 0,26,27
 266 73 266 73 314 72.5 c 131,-1,28
 362 72 362 72 380 82 c 0,29,30
 410 98 410 98 426 127 c 0,31,32
 444 159 444 159 444 269 c 3,33,34
 444 377 444 377 422 412 c 0,35,36
 410 431 410 431 388 444 c 0,37,38
 372 453 372 453 336 453 c 3,39,40
 298 453 298 453 257 422 c 0,41,42
 211 388 211 388 211 349 c 2,23,-1
EndSplineSet
EndChar
StartChar: c
Encoding: 99 99 68
Width: 600
VWidth: 1034
Flags: W
AnchorPoint: "Anchor 0" 314 530 basechar 0
AnchorPoint: "Anchor 2" 314 0 basechar 0
LayerCount: 3
Fore
SplineSet
528 418 m 0,0,1
 441 386 l 1,2,3
 424 422 424 422 395 437 c 0,4,5
 363 454 363 454 314 453 c 256,6,7
 260 453 260 453 237 439 c 0,8,9
 211 423 211 423 194 396 c 0,10,11
 180 372 180 372 176 341 c 0,12,13
 169 283 169 283 169 266 c 259,14,15
 169 220 169 220 174 191 c 128,-1,16
 179 162 179 162 194 133 c 0,17,18
 211 103 211 103 237 91 c 0,19,20
 271 74 271 74 314 74 c 259,21,22
 360 74 360 74 393 90 c 0,23,24
 421 102 421 102 441 142 c 1,25,-1
 528 112 l 1,26,27
 517 84 517 84 497 60 c 0,28,29
 438 -10 438 -10 316 -10 c 3,30,31
 190 -10 190 -10 133.5 60 c 128,-1,32
 77 130 77 130 77 265.5 c 131,-1,33
 77 401 77 401 138 473 c 0,34,35
 196 540 196 540 316 540 c 259,36,37
 435 540 435 540 493 473 c 0,38,39
 514 450 514 450 528 418 c 0,0,1
EndSplineSet
EndChar
StartChar: d
Encoding: 100 100 69
Width: 600
VWidth: 1034
Flags: W
AnchorPoint: "Anchor 0" 420 748 basechar 0
LayerCount: 3
Fore
SplineSet
491 120 m 10,0,1
 491 99 491 99 501 89 c 24,2,3
 506 84 506 84 527 80 c 26,4,-1
 553 74 l 25,5,-1
 543 2 l 1,6,-1
 413 -6 l 1,7,-1
 413 37 l 17,8,9
 390 8 390 8 347 -1 c 0,10,11
 308 -10 308 -10 278 -10 c 0,12,13
 274 -10 274 -10 270 -10 c 0,14,15
 179 -10 179 -10 123 54 c 0,16,17
 63 123 63 123 63 291 c 0,18,19
 63 417 63 417 112 480 c 0,20,21
 160 541 160 541 278 541 c 0,22,23
 363 541 363 541 398 528 c 1,24,-1
 398 641 l 10,25,26
 398 659 398 659 389 669 c 24,27,28
 384 675 384 675 363 679 c 26,29,-1
 328 684 l 25,30,-1
 338 756 l 1,31,-1
 491 764 l 1,32,-1
 491 120 l 10,0,1
398 440 m 17,33,34
 356 464 356 464 277 463 c 3,35,36
 233 463 233 463 212 449 c 0,37,38
 173 420 173 420 162 369 c 0,39,40
 156 338 156 338 156 283 c 3,41,42
 156 245 156 245 167 173 c 0,43,44
 171 144 171 144 185.5 120 c 128,-1,45
 200 96 200 96 230 82 c 0,46,47
 264 66 264 66 287 66 c 0,48,49
 317 66 317 66 331 71 c 0,50,51
 398 93 398 93 398 149 c 2,52,-1
 398 440 l 17,33,34
EndSplineSet
EndChar
StartChar: e
Encoding: 101 101 70
Width: 600
VWidth: 1034
Flags: W
AnchorPoint: "Anchor 3" 356 -1 basechar 0
AnchorPoint: "Anchor 2" 314 1 basechar 0
AnchorPoint: "Anchor 0" 304 534 basechar 0
LayerCount: 3
Fore
SplineSet
168 270 m 1,0,1
 441 330 l 1,2,3
 441 390 441 390 409 424 c 0,4,5
 378 457 378 457 312 457 c 3,6,7
 230 457 230 457 198 411 c 0,8,9
 167 368 167 368 167 306 c 0,10,11
 168 270 l 1,0,1
515 106 m 1,12,13
 503 65 503 65 471 34 c 0,14,15
 422 -12 422 -12 310 -11 c 3,16,17
 226 -11 226 -11 184.5 11.5 c 128,-1,18
 143 34 143 34 120 76 c 0,19,20
 97 116 97 116 87 164 c 128,-1,21
 77 212 77 212 77 281 c 3,22,23
 77 402 77 402 137 476 c 0,24,25
 189 540 189 540 325 540 c 3,26,27
 433 540 433 540 482 481 c 0,28,29
 511 446 511 446 522 395 c 0,30,31
 533 343 533 343 534 269 c 1,32,-1
 175 188 l 1,33,34
 180 149 180 149 197 122 c 0,35,36
 208 103 208 103 230 89 c 0,37,38
 258 70 258 70 325 70 c 3,39,40
 366 70 366 70 396 91 c 0,41,42
 416 104 416 104 426 129 c 1,43,-1
 515 106 l 1,12,13
EndSplineSet
EndChar
StartChar: f
Encoding: 102 102 71
Width: 600
VWidth: 1034
Flags: W
LayerCount: 3
Fore
SplineSet
440 0 m 13,0,-1
 92 0 l 21,1,-1
 102 68 l 29,2,-1
 198 73 l 30,3,4
 215 74 215 74 218.5 83.5 c 156,-1,5
 222 93 222 93 222 130 c 22,6,-1
 222 446 l 5,7,-1
 60 434 l 5,8,-1
 72 512 l 5,9,-1
 222 522 l 5,10,-1
 222 602 l 6,11,12
 222 679 222 679 265.5 721 c 132,-1,13
 309 763 309 763 387 763 c 7,14,15
 460 763 460 763 492 745 c 4,16,17
 546 714 546 714 553 670 c 13,18,-1
 469 639 l 21,19,20
 466 653 466 653 447 670 c 4,21,22
 430 686 430 686 395 686 c 7,23,24
 351 686 351 686 332 660 c 4,25,26
 315 637 315 637 316 580 c 6,27,-1
 316 529 l 5,28,-1
 508 543 l 5,29,-1
 497 466 l 5,30,-1
 316 453 l 5,31,-1
 316 126 l 6,32,33
 316 94 316 94 322 87 c 28,34,35
 332 75 332 75 361 74 c 30,36,-1
 447 74 l 29,37,-1
 440 0 l 13,0,-1
EndSplineSet
EndChar
StartChar: g
Encoding: 103 103 72
Width: 600
VWidth: 1034
Flags: W
AnchorPoint: "Anchor 0" 302 532 basechar 0
LayerCount: 3
Fore
SplineSet
430 503 m 1,0,-1
 461 532 l 1,1,-1
 554 539 l 1,2,-1
 565 467 l 1,3,-1
 529 454 l 2,4,5
 506 447 506 447 502 436 c 0,6,7
 497 424 497 424 497 403 c 2,8,-1
 497 -34 l 2,9,10
 497 -105 497 -105 454 -159 c 0,11,12
 405 -222 405 -222 303 -222 c 0,13,14
 172 -222 172 -222 115 -158 c 0,15,16
 95 -135 95 -135 84 -112 c 1,17,-1
 167 -76 l 1,18,19
 189 -109 189 -109 213 -126 c 0,20,21
 237 -144 237 -144 283 -144 c 267,22,23
 348 -144 348 -144 374 -120 c 24,24,25
 402 -94 402 -94 402 -35 c 18,26,-1
 402 59 l 1,27,28
 380 40 380 40 346 31 c 128,-1,29
 312 22 312 22 250 22 c 3,30,31
 177 22 177 22 138 63 c 0,32,33
 75 130 75 130 74 261 c 3,34,35
 74 416 74 416 131 477 c 0,36,37
 191 541 191 541 304 541 c 3,38,39
 377 541 377 541 430 503 c 1,0,-1
403 157 m 2,40,-1
 403 419 l 1,41,42
 395 433 395 433 373 445 c 0,43,44
 346 458 346 458 302 458 c 3,45,46
 271 458 271 458 238 442.5 c 128,-1,47
 205 427 205 427 190 406 c 0,48,49
 165 369 165 369 166 284 c 3,50,51
 166 176 166 176 184 150 c 0,52,53
 214 103 214 103 262 103 c 3,54,55
 317 103 317 103 348 115 c 0,56,57
 403 135 403 135 403 157 c 2,40,-1
EndSplineSet
EndChar
StartChar: h
Encoding: 104 104 73
Width: 600
VWidth: 1034
Flags: W
LayerCount: 3
Fore
SplineSet
395 373 m 18,0,1
 395 399 395 399 390 416 c 0,2,3
 384 439 384 439 368 448 c 0,4,5
 352 458 352 458 324 458 c 0,6,7
 287 459 287 459 245 420 c 0,8,9
 204 383 204 383 204 320 c 2,10,-1
 204 0 l 17,11,-1
 111 0 l 25,12,-1
 111 641 l 26,13,14
 111 659 111 659 102 668 c 24,15,16
 96 674 96 674 77 678 c 26,17,-1
 41 683 l 25,18,-1
 52 755 l 1,19,-1
 204 763 l 1,20,-1
 204 546 l 1,21,-1
 201 475 l 5,22,23
 213 500 213 500 254 522 c 0,24,25
 293 544 293 544 339 544 c 3,26,27
 399 544 399 544 425.5 527 c 128,-1,28
 452 510 452 510 468 487 c 0,29,30
 489 456 489 456 488 362 c 2,31,-1
 488 115 l 25,32,33
 489 96 489 96 497 88 c 24,34,35
 502 82 502 82 522 79 c 26,36,-1
 558 72 l 25,37,-1
 547 0 l 1,38,-1
 395 0 l 9,39,-1
 395 373 l 18,0,1
EndSplineSet
EndChar
StartChar: i
Encoding: 105 105 74
Width: 600
VWidth: 1034
Flags: W
AnchorPoint: "Anchor 3" 402 1 basechar 0
AnchorPoint: "Anchor 0" 297 532 basechar 0
AnchorPoint: "Anchor 2" 363 1 basechar 0
LayerCount: 3
Fore
SplineSet
255 132 m 6,0,1
 255 101 255 101 250 91 c 4,2,3
 246.094488189 82.2125984252 246.094488189 82.2125984252 230 81 c 6,4,-1
 84 70 l 5,5,-1
 74 0 l 5,6,-1
 522 0 l 5,7,-1
 519 70 l 5,8,-1
 393 77 l 6,9,10
 363 79 363 79 354 90 c 4,11,12
 348 97 348 97 348 129 c 6,13,-1
 348 545 l 5,14,-1
 87 532 l 5,15,-1
 74 461 l 5,16,-1
 221 456 l 6,17,18
 239 455 239 455 246.915039062 447.083984375 c 132,-1,19
 255 439 255 439 255 420 c 6,20,-1
 255 132 l 6,0,1
295 623 m 6,21,22
 275 623 275 623 260 638 c 132,-1,23
 245 653 245 653 245 673 c 6,24,-1
 245 699 l 6,25,26
 245 719 245 719 260 734 c 132,-1,27
 275 749 275 749 295 749 c 6,28,-1
 313 749 l 6,29,30
 333 749 333 749 348 734 c 132,-1,31
 363 719 363 719 363 699 c 6,32,-1
 363 673 l 6,33,34
 363 653 363 653 348 638 c 4,35,36
 334 623 334 623 313 623 c 6,37,-1
 295 623 l 6,21,22
362 -8.5 m 1156,-1,21
EndSplineSet
Layer: 2
SplineSet
268.965820312 750 m 6
 328.965820312 753.103515625 l 6
 335.862304688 753.79296875 341.724609375 751.37890625 346.551757812 745.862304688 c 4
 352.46484375 739.948242188 355.223632812 733.741210938 354.827148438 727.241210938 c 6
 349.655273438 642.4140625 l 6
 348.965820312 634.827148438 346.20703125 628.62109375 341.37890625 623.79296875 c 4
 337.002929688 619.416992188 330.451171875 617.002929688 321.724609375 616.551757812 c 6
 261.724609375 613.448242188 l 6
 256.20703125 613.448242188 251.034179688 615.862304688 246.20703125 620.689453125 c 4
 240.29296875 626.603515625 237.53515625 632.810546875 237.930664062 639.310546875 c 6
 243.103515625 724.137695312 l 6
 243.79296875 731.724609375 246.551757812 737.930664062 251.37890625 742.758789062 c 4
 255.517578125 746.896484375 261.37890625 749.310546875 268.965820312 750 c 6
EndSplineSet
EndChar
StartChar: j
Encoding: 106 106 75
Width: 600
VWidth: 1034
Flags: W
AnchorPoint: "Anchor 0" 376 529 basechar 0
LayerCount: 3
Fore
SplineSet
367 627 m 2,0,1
 347 627 347 627 332.5 642 c 128,-1,2
 318 657 318 657 318 677 c 2,3,-1
 318 703 l 2,4,5
 318 723 318 723 333 738 c 128,-1,6
 348 753 348 753 367 753 c 2,7,-1
 386 753 l 2,8,9
 406 753 406 753 420.5 738 c 128,-1,10
 435 723 435 723 435 703 c 2,11,-1
 435 677 l 2,12,13
 435 657 435 657 420 642 c 0,14,15
 406 627 406 627 386 627 c 2,16,-1
 367 627 l 2,0,1
254 -144 m 267,17,18
 296 -144 296 -144 316 -130 c 24,19,20
 330 -120 330 -120 330 -91 c 18,21,-1
 330 421 l 10,22,23
 330 439 330 439 322 448 c 24,24,25
 314 457 314 457 296 457 c 26,26,-1
 177 459 l 25,27,-1
 189 532 l 25,28,-1
 522 546 l 25,29,-1
 535 480 l 25,30,-1
 457 468 l 26,31,32
 437 465 437 465 431 458 c 24,33,34
 423 450 423 450 423 432 c 18,35,-1
 423 -103 l 2,36,37
 423 -143 423 -143 401 -174 c 0,38,39
 366 -222 366 -222 275 -221 c 3,40,41
 145 -221 145 -221 88 -157 c 0,42,43
 68 -135 68 -135 57 -111 c 1,44,-1
 144 -83 l 1,45,46
 164 -119 164 -119 191 -130 c 0,47,48
 223 -144 223 -144 254 -144 c 267,17,18
EndSplineSet
EndChar
StartChar: k
Encoding: 107 107 76
Width: 600
VWidth: 1034
Flags: W
AnchorPoint: "Anchor 2" 294 4 basechar 0
AnchorPoint: "Anchor 0" 292 748 basechar 0
LayerCount: 3
Fore
SplineSet
466 103 m 2,0,-1
 304 320 l 1,1,-1
 368 384 l 0,2,3
 418 435 418 435 453 453 c 24,4,-1
 493 463 l 9,5,-1
 509 532 l 25,6,-1
 388 532 l 1,7,-1
 378 511 l 26,8,9
 370 494 370 494 311 436 c 24,10,-1
 214 344 l 1,11,-1
 214 763 l 1,12,-1
 61 755 l 1,13,-1
 51 683 l 25,14,-1
 86 678 l 26,15,16
 106 675 106 675 112 668 c 24,17,18
 120 660 120 660 120 641 c 26,19,-1
 120 0 l 25,20,-1
 213 0 l 9,21,-1
 213 292 l 9,22,-1
 430 0 l 25,23,-1
 545 0 l 25,24,-1
 554 67 l 1,25,-1
 528 69 l 2,26,27
 514 70 514 70 492 79 c 0,28,29
 480 83 480 83 466 103 c 2,0,-1
EndSplineSet
EndChar
StartChar: l
Encoding: 108 108 77
Width: 600
VWidth: 1034
Flags: W
AnchorPoint: "Anchor 0" 273 755 basechar 0
AnchorPoint: "Anchor 2" 307 1 basechar 0
LayerCount: 3
Fore
SplineSet
236 107 m 2,0,1
 236 646 l 10,2,3
 236 673 236 673 222 677 c 24,4,5
 216 679 216 679 109 685 c 26,6,-1
 73 688 l 25,7,-1
 84 755 l 1,8,-1
 329 772 l 1,9,-1
 329 126 l 10,10,11
 329 97 329 97 339.5 87 c 128,-1,12
 350 77 350 77 377 77 c 27,13,14
 445 77 445 77 482 90 c 0,15,-1
 508 100 l 1,16,-1
 534 29 l 1,17,18
 522 20 522 20 482 7 c 0,19,20
 432 -9 432 -9 331 -8 c 27,21,22
 281 -8 281 -8 260 18 c 24,23,24
 236 47 236 47 236 107 c 2,0,1
EndSplineSet
EndChar
StartChar: m
Encoding: 109 109 78
Width: 600
VWidth: 1034
Flags: W
LayerCount: 3
Fore
SplineSet
338 323 m 2,0,1
 338 0 l 25,2,-1
 256 0 l 1,3,-1
 256 378 l 2,4,5
 256 406 256 406 250 422 c 0,6,7
 244 445 244 445 227 455 c 0,8,9
 215 462 215 462 206 462 c 0,10,11
 189 462 189 462 169 439 c 0,12,13
 142 406 142 406 142 319 c 2,14,-1
 142 0 l 17,15,-1
 59 0 l 25,16,-1
 59 416 l 26,17,18
 59 433 59 433 54 443 c 24,19,20
 51 449 51 449 39 452 c 26,21,-1
 17 458 l 25,22,-1
 27 530 l 1,23,-1
 130 542 l 1,24,-1
 130 498 l 1,25,26
 178 538 178 538 205 541 c 0,27,28
 230 544 l 0,29,30
 262 544 262 544 288 527 c 0,31,32
 302 518 302 518 321 497 c 1,33,34
 354 536 354 536 401 545 c 0,35,36
 406 546 406 546 422 546 c 3,37,38
 456 546 456 546 484 527 c 0,39,40
 501 515 501 515 514 496 c 0,41,42
 535 467 535 467 535 366 c 2,43,-1
 535 0 l 25,44,-1
 452 0 l 1,45,-1
 452 378 l 2,46,47
 452 406 452 406 447 422 c 0,48,49
 441 445 441 445 423 455 c 0,50,51
 411 462 411 462 402 462 c 0,52,53
 379 462 379 462 365 445 c 0,54,55
 338 412 338 412 338 323 c 2,0,1
EndSplineSet
EndChar
StartChar: n
Encoding: 110 110 79
Width: 600
VWidth: 1034
Flags: W
AnchorPoint: "Anchor 2" 304 1 basechar 0
AnchorPoint: "Anchor 0" 282 533 basechar 0
LayerCount: 3
Fore
SplineSet
204 0 m 17,0,-1
 111 0 l 9,1,-1
 111 415 l 26,2,3
 111 433 111 433 102 442 c 24,4,5
 97 448 97 448 77 451 c 26,6,-1
 41 457 l 25,7,-1
 53 529 l 1,8,-1
 194 544 l 1,9,-1
 189 459 l 1,10,11
 205 490 205 490 242 514 c 0,12,13
 293 546 293 546 337 546 c 3,14,15
 384 546 384 546 418.5 529.5 c 128,-1,16
 453 513 453 513 467 490 c 0,17,18
 488 458 488 458 487 365 c 2,19,-1
 487 115 l 25,20,21
 488 96 488 96 496 88 c 24,22,23
 501 82 501 82 521 79 c 26,24,-1
 557 72 l 25,25,-1
 546 0 l 1,26,-1
 394 0 l 1,27,-1
 394 377 l 2,28,29
 394 403 394 403 389 419 c 0,30,31
 383 441 383 441 365 452 c 0,32,33
 349 461 349 461 322 461 c 3,34,35
 291 461 291 461 249 422 c 0,36,37
 203 379 203 379 204 318 c 2,38,-1
 204 0 l 17,0,-1
EndSplineSet
EndChar
StartChar: o
Encoding: 111 111 80
Width: 600
VWidth: 1034
Flags: W
AnchorPoint: "Anchor 4" 297 269 basechar 0
AnchorPoint: "Anchor 3" 343 0 basechar 0
AnchorPoint: "Anchor 2" 302 1 basechar 0
AnchorPoint: "Anchor 0" 301 531 basechar 0
LayerCount: 3
Fore
SplineSet
300 544 m 259,0,1
 422 544 422 544 478 477 c 0,2,3
 535 409 535 409 535 268 c 3,4,5
 535 129 535 129 481 59 c 0,6,7
 428 -11 428 -11 300 -11 c 3,8,9
 173 -11 173 -11 119 59 c 128,-1,10
 65 129 65 129 65 268 c 3,11,12
 65 409 65 409 122 476.5 c 128,-1,13
 179 544 179 544 300 544 c 259,0,1
300 462 m 259,14,15
 252 462 252 462 222 447 c 0,16,17
 195 434 195 434 179 404 c 0,18,19
 166 381 166 381 162 348 c 0,20,21
 158 302 158 302 158 268 c 259,22,23
 158 209 158 209 161 185 c 0,24,25
 165 153 165 153 179 128 c 0,26,27
 197 96 197 96 222 84 c 0,28,29
 255 68 255 68 295 68 c 3,30,31
 343 68 343 68 378 85 c 0,32,33
 405 97 405 97 421 127 c 0,34,35
 434 151 434 151 438 185 c 0,36,37
 442 229 442 229 442 268 c 259,38,39
 442 314 442 314 437.5 348 c 128,-1,40
 433 382 433 382 421 404 c 0,41,42
 407 431 407 431 378 447 c 0,43,44
 347 462 347 462 300 462 c 259,14,15
EndSplineSet
EndChar
StartChar: p
Encoding: 112 112 81
Width: 600
VWidth: 1034
Flags: W
LayerCount: 3
Back
SplineSet
311.142578125 69.2333984375 m 0,0,1
 393.611328125 64.76953125 393.611328125 64.76953125 426.965820312 123.999023438 c 0,2,3
 441.4140625 149.655273438 441.4140625 149.655273438 446.615234375 184.624023438 c 0,4,5
 452.087890625 221.416992188 452.087890625 221.416992188 452.087890625 273.70703125 c 128,-1,6
 452.087890625 325.998046875 452.087890625 325.998046875 444.288085938 360.271484375 c 0,7,8
 427.529296875 433.918945312 427.529296875 433.918945312 366.322265625 457.541015625 c 0,9,10
 336.713867188 468.96875 336.713867188 468.96875 311.150390625 462.813476562 c 0,11,12
 293.395507812 458.5390625 293.395507812 458.5390625 276.603515625 445.487304688 c 0,13,14
 243.05078125 419.409179688 243.05078125 419.409179688 206.845703125 357.936523438 c 1,15,-1
 206.30859375 93.513671875 l 1,16,17
 260.944335938 71.94921875 260.944335938 71.94921875 311.142578125 69.2333984375 c 0,0,1
  Spiro
    311.143 69.233 o
    381.333 80.693 o
    426.966 123.999 o
    439.102 151.983 o
    446.615 184.624 o
    450.72 225.292 o
    452.088 273.708 o
    450.138 321.493 o
    444.289 360.272 o
    416.418 421.413 o
    366.323 457.541 o
    337.724 464.573 o
    311.15 462.814 o
    293.636 456.344 o
    276.603 445.488 o
    242.388 410.56 o
    206.846 357.936 v
    206.309 93.514 v
    259.835 76.6616 o
    0 0 z
  EndSpiro
105.190429688 -165.65625 m 0,18,19
 109.71484375 -160.919921875 109.71484375 -160.919921875 112.21484375 -151.5078125 c 128,-1,20
 114.71484375 -142.095703125 114.71484375 -142.095703125 113.163085938 -131.681640625 c 2,21,-1
 112.758789062 -126.130859375 l 1,22,-1
 113.790039062 381.487304688 l 1,23,-1
 110.884765625 422.893554688 l 1,24,-1
 107.838867188 422.641601562 l 1,25,26
 106.711914062 436.266601562 106.711914062 436.266601562 99.65625 441.165039062 c 0,27,28
 98.9375 441.6640625 98.9375 441.6640625 38.05859375 452.938476562 c 1,29,-1
 43.923828125 534.701171875 l 1,30,-1
 148.407226562 541.942382812 l 1,31,-1
 198.529296875 503.299804688 l 1,32,-1
 199.172851562 494.025390625 l 1,33,34
 207.038085938 501.333007812 207.038085938 501.333007812 214.9609375 507.491210938 c 0,35,36
 266.612304688 547.635742188 266.612304688 547.635742188 329.119140625 547.635742188 c 0,37,38
 366.689453125 547.635742188 366.689453125 547.635742188 405.982421875 532.470703125 c 128,-1,39
 445.276367188 517.3046875 445.276367188 517.3046875 476.15625 487.146484375 c 0,40,41
 520.211914062 444.120117188 520.211914062 444.120117188 535.544921875 376.7421875 c 0,42,43
 545.55078125 332.76953125 545.55078125 332.76953125 545.220703125 273.32421875 c 128,-1,44
 544.889648438 213.87890625 544.889648438 213.87890625 539.50390625 177.670898438 c 0,45,46
 531.674804688 125.03515625 531.674804688 125.03515625 512.021484375 90.134765625 c 0,47,48
 469.725585938 15.02734375 469.725585938 15.02734375 387.276367188 -6.1396484375 c 0,49,50
 349.758789062 -15.771484375 349.758789062 -15.771484375 305.409179688 -13.37109375 c 0,51,52
 256.561523438 -10.7275390625 256.561523438 -10.7275390625 206.127929688 4.685546875 c 1,53,-1
 205.8671875 -123.728515625 l 2,54,55
 206.850585938 -131.627929688 206.850585938 -131.627929688 206.850585938 -143.205078125 c 128,-1,56
 206.850585938 -154.782226562 206.850585938 -154.782226562 211.169921875 -162.305664062 c 0,57,58
 212.385742188 -162.413085938 212.385742188 -162.413085938 315.118164062 -167.655273438 c 1,59,-1
 314.749023438 -250.293945312 l 1,60,-1
 56.1279296875 -261.672851562 l 1,61,-1
 42.9912109375 -180.086914062 l 1,62,-1
 103.591796875 -166.98046875 l 2,63,64
 104.26953125 -166.62109375 104.26953125 -166.62109375 105.190429688 -165.65625 c 0,18,19
  Spiro
    105.19 -165.656 o
    109.209 -159.751 o
    112.214 -151.507 o
    113.702 -141.845 o
    113.163 -131.682 [
    112.759 -126.13 v
    113.79 381.487 v
    110.885 422.893 v
    107.84 422.641 v
    105.23 434.084 o
    99.6562 441.166 o
    83.8974 444.358 o
    38.0582 452.938 v
    43.9241 534.701 v
    148.407 541.943 v
    198.53 503.301 v
    199.173 494.026 v
    207.053 501.046 o
    214.961 507.491 o
    269.327 537.599 o
    329.12 547.636 o
    367.12 543.844 o
    405.983 532.47 o
    443.172 513.557 o
    476.156 487.147 o
    513.031 438.032 o
    535.544 376.742 o
    542.967 328.901 o
    545.22 273.324 o
    543.626 219.688 o
    539.503 177.671 o
    528.718 129.469 o
    512.021 90.1348 o
    459.687 28.5127 o
    387.276 -6.13932 o
    348.051 -12.7631 o
    305.408 -13.3709 o
    256.165 -7.53505 o
    206.128 4.68552 v
    205.867 -123.728 ]
    206.605 -132.547 o
    206.851 -143.206 o
    207.931 -153.769 o
    211.17 -162.305 o
    237.766 -163.697 o
    315.118 -167.656 v
    314.749 -250.293 v
    56.1281 -261.672 v
    42.9912 -180.087 v
    103.592 -166.981 ]
    104.331 -166.47 o
    0 0 z
  EndSpiro
EndSplineSet
Fore
SplineSet
112 -144 m 18,0,-1
 112 414 l 10,1,2
 112 436 112 436 102 445 c 0,3,4
 99 448 99 448 68 454 c 2,5,-1
 41 459 l 1,6,-1
 52 532 l 1,7,-1
 190 540 l 1,8,-1
 190 476 l 1,9,10
 218 510 218 510 250 528.5 c 128,-1,11
 282 547 282 547 335 547 c 3,12,13
 427 547 427 547 496 464 c 0,14,15
 521 433 521 433 536 374 c 0,16,17
 544 338 544 338 544 241 c 3,18,19
 544 129 544 129 490 59 c 0,20,21
 434 -13 434 -13 325 -13 c 0,22,23
 254 -13 254 -13 205 4 c 1,24,-1
 205 -132 l 10,25,26
 205 -149 205 -149 215 -159 c 24,27,28
 223 -167 223 -167 241 -169 c 26,29,-1
 319 -173 l 25,30,-1
 306 -244 l 25,31,-1
 61 -254 l 25,32,-1
 49 -189 l 25,33,-1
 85 -179 l 26,34,35
 99 -175 99 -175 103 -170 c 24,36,37
 112 -160 112 -160 112 -144 c 18,0,-1
205 97 m 17,38,39
 256 69 256 69 326 69 c 0,40,41
 359 69 359 69 389 88 c 0,42,43
 435 118 435 118 445 174 c 0,44,45
 452 215 452 215 452 293 c 3,46,47
 452 381 452 381 414 423 c 0,48,49
 376 464 376 464 329 464 c 3,50,51
 297 464 297 464 259 433 c 0,52,53
 246 423 246 423 224 392 c 0,54,55
 205 365 205 365 205 340 c 2,56,-1
 205 97 l 17,38,39
EndSplineSet
EndChar
StartChar: q
Encoding: 113 113 82
Width: 600
VWidth: 1034
Flags: W
LayerCount: 3
Back
SplineSet
394.137695312 28.3046875 m 1,0,1
 324.686523438 -9.3544921875 324.686523438 -9.3544921875 248.84375 -7.220703125 c 0,2,3
 207.265625 -6.046875 207.265625 -6.046875 174.143554688 8.2919921875 c 0,4,5
 93.64453125 43.1416015625 93.64453125 43.1416015625 68.2900390625 147.439453125 c 0,6,7
 54.1162109375 205.747070312 54.1162109375 205.747070312 54.1162109375 280.249023438 c 0,8,9
 54.1162109375 409.034179688 54.1162109375 409.034179688 112.655273438 473.815429688 c 0,10,11
 173.404296875 541.041992188 173.404296875 541.041992188 289.517578125 541.057617188 c 0,12,13
 358.748046875 541.057617188 358.748046875 541.057617188 406.657226562 515.509765625 c 0,14,15
 419.590820312 508.61328125 419.590820312 508.61328125 430.799804688 500.275390625 c 1,16,17
 444.4609375 513.061523438 444.4609375 513.061523438 459.041992188 519.810546875 c 128,-1,18
 473.680664062 526.5859375 473.680664062 526.5859375 492.213867188 531.21875 c 2,19,-1
 542.7265625 543.846679688 l 1,20,-1
 562.958007812 462.918945312 l 1,21,-1
 517.44140625 451.540039062 l 2,22,23
 508.099609375 449.204101562 508.099609375 449.204101562 504.706054688 447.633789062 c 0,24,25
 493.959960938 442.659179688 493.959960938 442.659179688 489.727539062 429.229492188 c 0,26,27
 487.241210938 421.340820312 487.241210938 421.340820312 487.241210938 403.448242188 c 2,28,-1
 487.241210938 369.310546875 l 1,29,-1
 487.241210938 239.681640625 l 1,30,-1
 487.241210938 120 l 1,31,-1
 487.241210938 -126.267578125 l 2,32,33
 487.241210938 -152.146484375 487.241210938 -152.146484375 490.921875 -160.157226562 c 0,34,35
 492.54296875 -160.395507812 492.54296875 -160.395507812 531.325195312 -164.375976562 c 1,36,-1
 544.079101562 -163.46484375 l 1,37,-1
 549.979492188 -246.072265625 l 1,38,-1
 318.67578125 -262.594726562 l 1,39,-1
 308.6015625 -263.74609375 l 1,40,-1
 308.552734375 -263.317382812 l 1,41,-1
 287.645507812 -264.810546875 l 1,42,-1
 281.744140625 -182.203125 l 1,43,-1
 308.911132812 -180.262695312 l 1,44,-1
 371.6015625 -173.09765625 l 2,45,46
 384.07421875 -171.672851562 384.07421875 -171.672851562 388.30078125 -169.938476562 c 128,-1,47
 392.52734375 -168.205078125 392.52734375 -168.205078125 393.333007812 -164.844726562 c 128,-1,48
 394.137695312 -161.483398438 394.137695312 -161.483398438 394.137695312 -134.482421875 c 1,49,-1
 394.202148438 -134.482421875 l 1,50,51
 394.137695312 -130.578125 394.137695312 -130.578125 394.137695312 -126.267578125 c 2,52,-1
 394.137695312 28.3046875 l 1,0,1
  Spiro
    394.138 28.3045 v
    323.089 0.593604 o
    248.844 -7.22022 o
    209.379 -2.75554 o
    174.144 8.292 o
    107.431 60.5034 o
    68.2902 147.44 o
    57.6596 209.796 o
    54.116 280.25 o
    68.7508 393.033 o
    112.655 473.815 o
    187.246 524.24 o
    289.518 541.057 o
    353.418 534.67 o
    406.657 515.51 o
    419.16 508.253 o
    430.8 500.276 v
    444.691 511.552 o
    459.042 519.81 o
    474.654 526.05 o
    492.214 531.219 [
    542.726 543.847 v
    562.958 462.919 v
    517.441 451.539 ]
    509.586 449.395 o
    504.706 447.633 o
    495.589 440.546 o
    489.727 429.23 o
    487.863 418.84 o
    487.241 403.448 [
    487.241 369.31 v
    487.241 239.681 v
    487.241 120 v
    487.241 -126.267 ]
    488.161 -147.68 o
    490.922 -160.157 o
    501.833 -161.331 o
    531.325 -164.376 v
    544.079 -163.465 v
    549.98 -246.072 v
    318.676 -262.594 v
    308.602 -263.746 v
    308.553 -263.317 v
    287.645 -264.811 v
    281.744 -182.203 v
    308.911 -180.263 v
    371.602 -173.098 ]
    382.013 -171.596 o
    388.3 -169.939 o
    391.672 -167.798 o
    393.332 -164.845 o
    393.936 -155.574 o
    394.138 -134.483 v
    394.202 -134.483 v
    394.154 -130.476 o
    394.138 -126.267 [
    0 0 z
  EndSpiro
394.137695312 134.9921875 m 5,53,-1
 394.137695312 369.310546875 l 5,54,-1
 394.137695312 403.448242188 l 6,55,56
 394.137695312 406.802734375 394.137695312 406.802734375 394.215820312 410.01953125 c 4,57,58
 381.924804688 432.190429688 381.924804688 432.190429688 359.086914062 444.369140625 c 4,59,60
 332.0078125 458.279296875 332.0078125 458.279296875 286.130859375 458.279296875 c 7,61,62
 251.421875 458.279296875 251.421875 458.279296875 226.939453125 449.467773438 c 4,63,64
 140.033203125 419.612304688 140.033203125 419.612304688 147.889648438 253.140625 c 4,65,66
 152.568359375 154.006835938 152.568359375 154.006835938 180.845703125 112.014648438 c 4,67,68
 194.688476562 91.458984375 194.688476562 91.458984375 214.822265625 82.7421875 c 4,69,70
 231.712890625 75.4306640625 231.712890625 75.4306640625 256.4375 75.431640625 c 4,71,72
 293.2421875 75.431640625 293.2421875 75.431640625 329.346679688 91.0322265625 c 4,73,74
 365.780273438 106.774414062 365.780273438 106.774414062 394.137695312 134.9921875 c 5,53,-1
  Spiro
    394.138 134.993 v
    394.138 369.31 v
    394.138 403.448 ]
    394.158 406.768 o
    394.216 410.019 o
    379.288 429.693 o
    359.087 444.369 o
    327.307 455.068 o
    286.131 458.279 o
    253.98 455.877 o
    226.939 449.468 o
    163.723 385.459 o
    147.89 253.14 o
    158.468 168.292 o
    180.846 112.014 o
    196.261 94.4186 o
    214.822 82.7425 o
    233.671 77.2587 o
    256.438 75.4315 o
    293.067 79.3316 o
    329.347 91.0319 o
    363.761 109.893 o
    0 0 z
  EndSpiro
EndSplineSet
Fore
SplineSet
392 134 m 2,0,-1
 392 410 l 1,1,2
 381 435 381 435 359 445 c 0,3,4
 332 458 332 458 287 458 c 0,5,6
 253 458 253 458 227 449 c 0,7,8
 148 423 148 423 147 282 c 0,9,10
 147 268 147 268 148 253 c 0,11,12
 153 148 153 148 181 112 c 0,13,14
 197 91 197 91 215 83 c 0,15,16
 232 76 232 76 257 76 c 3,17,18
 295 76 295 76 329 91 c 0,19,20
 392 118 392 118 392 134 c 2,0,-1
486 -127 m 10,21,22
 486 -147 486 -147 494 -156 c 24,23,24
 500 -163 500 -163 520 -167 c 26,25,-1
 551 -172 l 25,26,-1
 539 -243 l 25,27,-1
 294 -254 l 25,28,-1
 281 -187 l 25,29,-1
 364 -176 l 26,30,31
 376 -174 376 -174 383 -166 c 24,32,33
 393 -153 393 -153 393 -138 c 18,34,-1
 393 31 l 1,35,36
 379 17 379 17 341 6 c 0,37,38
 299 -7 299 -7 249 -7 c 3,39,40
 166 -7 166 -7 112 56 c 0,41,42
 54 122 54 122 54 272 c 3,43,44
 54 406 54 406 110 471 c 0,45,46
 171 541 171 541 294 541 c 3,47,48
 373 541 373 541 420 504 c 1,49,-1
 446 528 l 1,50,-1
 544 539 l 1,51,-1
 554 467 l 1,52,-1
 518 453 l 2,53,54
 495 445 495 445 491 432 c 0,55,56
 486 418 486 418 486 387 c 2,57,-1
 486 -127 l 10,21,22
EndSplineSet
EndChar
StartChar: r
Encoding: 114 114 83
Width: 600
VWidth: 1034
Flags: W
AnchorPoint: "Anchor 0" 302 521 basechar 0
AnchorPoint: "Anchor 2" 227 2 basechar 0
LayerCount: 3
Fore
SplineSet
260 486 m 0,0,1
 287 518 287 518 339 535 c 0,2,3
 360 542 360 542 406.5 542 c 3,4,5
 459 542 459 542 488 525 c 0,6,7
 539 495 539 495 553 454 c 1,8,-1
 471 413 l 1,9,10
 461 433 461 433 444 445.5 c 128,-1,11
 427 458 427 458 403 458 c 3,12,13
 344 458 344 458 310 424 c 0,14,15
 273 387 273 387 273 344 c 2,16,-1
 273 126 l 6,17,18
 273 94 273 94 279 87 c 4,19,20
 288.797851562 75.2421875 288.797851562 75.2421875 318 74 c 6,21,-1
 412 70 l 5,22,-1
 412 0 l 5,23,-1
 64 0 l 5,24,-1
 74 70 l 5,25,-1
 155 78 l 6,26,27
 171 80 171 80 175 88 c 4,28,29
 180 98 180 98 180 129 c 6,30,-1
 180 413 l 2,31,32
 180 438 180 438 170 447 c 0,33,34
 162.916992188 454.083007812 162.916992188 454.083007812 115 456 c 2,35,-1
 65 458 l 1,36,-1
 75 532 l 1,37,-1
 248 540 l 1,38,-1
 260 486 l 0,0,1
EndSplineSet
EndChar
StartChar: s
Encoding: 115 115 84
Width: 600
VWidth: 1034
Flags: W
AnchorPoint: "Anchor 0" 301 532 basechar 0
AnchorPoint: "Anchor 2" 286 1 basechar 0
LayerCount: 3
Fore
SplineSet
504 508 m 1,0,-1
 504 394 l 1,1,-1
 419 386 l 1,2,-1
 419 399 l 2,3,4
 419 428 419 428 410 439 c 0,5,6
 397 455 397 455 368 457 c 0,7,8
 333 461 333 461 305 461 c 0,9,10
 228 461 228 461 206 428 c 0,11,12
 194 410 194 410 193 389 c 0,13,14
 193 380 193 380 196 369 c 0,15,16
 202 343 202 343 231 334 c 0,17,18
 235 333 235 333 261 327 c 2,19,-1
 393 295 l 2,20,21
 428 287 428 287 450 277 c 128,-1,22
 472 267 472 267 488 246 c 0,23,24
 517 212 517 212 517 155 c 0,25,26
 517 27 517 27 378 -1 c 0,27,28
 330 -10 330 -10 278 -10 c 0,29,30
 256 -10 256 -10 234 -8 c 0,31,32
 157 -2 157 -2 88 39 c 1,33,-1
 88 152 l 1,34,-1
 179 160 l 1,35,-1
 179 147 l 2,36,37
 179 110 179 110 187 99 c 0,38,39
 200 81 200 81 223 77 c 0,40,41
 248 72 248 72 277 71 c 0,42,43
 347 71 347 71 373 82 c 0,44,45
 423 102 423 102 423 149 c 0,46,47
 423 192 423 192 380 206 c 0,48,49
 377 207 377 207 347 214 c 2,50,-1
 200 251 l 2,51,52
 150 263 150 263 130 284 c 0,53,54
 100 315 100 315 100 370 c 0,55,56
 100 378 100 378 101 388 c 0,57,58
 109 490 109 490 185 519 c 0,59,60
 236 539 236 539 335 539 c 128,-1,61
 434 539 434 539 504 508 c 1,0,-1
EndSplineSet
Layer: 2
SplineSet
260.689453125 326.896484375 m 6
 407.5859375 291.724609375 l 6
 429.655273438 286.20703125 449.310546875 277.5859375 466.551757812 265.862304688 c 4
 483.103515625 254.827148438 495.172851562 241.37890625 502.758789062 225.517578125 c 4
 511.724609375 206.20703125 516.20703125 184.137695312 516.20703125 159.310546875 c 7
 516.20703125 94.482421875 491.724609375 48.275390625 442.758789062 20.689453125 c 4
 406.20703125 0 346.551757812 -10.3447265625 263.79296875 -10.3447265625 c 4
 203.103515625 -10.3447265625 144.482421875 6.20703125 87.9306640625 39.310546875 c 5
 87.9306640625 152.069335938 l 5
 178.965820312 160.344726562 l 5
 178.965820312 125.172851562 182.758789062 103.448242188 190.344726562 95.1728515625 c 4
 204.827148438 79.310546875 235.517578125 71.37890625 282.4140625 71.37890625 c 7
 319.655273438 71.37890625 352.4140625 76.5517578125 380.689453125 86.896484375 c 4
 408.275390625 96.5517578125 422.069335938 112.4140625 422.069335938 134.482421875 c 7
 422.069335938 159.310546875 417.930664062 175.517578125 409.655273438 183.103515625 c 4
 395.862304688 196.20703125 376.551757812 205.862304688 351.724609375 212.069335938 c 6
 190.344726562 252.4140625 l 6
 171.034179688 257.241210938 153.79296875 265.172851562 138.62109375 276.20703125 c 4
 113.103515625 294.827148438 100.344726562 326.20703125 100.344726562 370.344726562 c 7
 100.344726562 431.034179688 117.241210938 474.482421875 151.034179688 500.689453125 c 4
 182.758789062 526.20703125 244.482421875 538.965820312 336.20703125 538.965820312 c 7
 408.62109375 538.965820312 464.482421875 528.275390625 503.79296875 506.896484375 c 5
 503.79296875 394.137695312 l 5
 418.965820312 385.862304688 l 5
 418.965820312 416.20703125 415.517578125 434.482421875 408.62109375 440.689453125 c 4
 394.137695312 453.79296875 362.758789062 460.344726562 314.482421875 460.344726562 c 7
 235.172851562 460.344726562 195.517578125 438.275390625 195.517578125 394.137695312 c 7
 195.517578125 374.137695312 198.62109375 360.344726562 204.827148438 352.758789062 c 4
 213.103515625 342.4140625 231.724609375 333.79296875 260.689453125 326.896484375 c 6
  Spiro
    260.69 326.897 [
    407.586 291.724 ]
    438.879 281.121 o
    466.552 265.862 o
    488.017 247.5 o
    502.759 225.517 o
    512.845 194.483 o
    516.207 159.31 o
    497.845 76.0345 o
    442.759 20.6897 o
    370.603 -2.58621 o
    263.793 -10.3448 o
    174.31 2.06897 o
    87.931 39.3103 v
    87.931 152.069 v
    178.966 160.345 v
    181.81 117.672 o
    190.345 95.1724 o
    224.224 77.3276 o
    282.414 71.3793 o
    334.914 75.2586 o
    380.69 86.8966 o
    411.724 106.034 o
    422.069 134.483 o
    418.966 165.259 o
    409.655 183.103 o
    384.828 200.172 o
    351.724 212.069 [
    190.345 252.414 ]
    162.931 261.983 o
    138.621 276.207 o
    109.914 313.707 o
    100.345 370.345 o
    113.017 448.448 o
    151.034 500.69 o
    221.121 529.397 o
    336.207 538.966 o
    432.414 530.948 o
    503.793 506.897 v
    503.793 394.138 v
    418.966 385.862 v
    416.379 422.328 o
    408.621 440.69 o
    374.224 455.431 o
    314.483 460.345 o
    225.259 443.793 o
    195.517 394.138 o
    197.845 368.793 o
    204.828 352.759 o
    225 338.534 o
    0 0 z
  EndSpiro
EndSplineSet
EndChar
StartChar: t
Encoding: 116 116 85
Width: 600
VWidth: 1034
Flags: W
AnchorPoint: "Anchor 0" 296 747 basechar 0
AnchorPoint: "Anchor 2" 309 1 basechar 0
LayerCount: 3
Fore
SplineSet
239 697 m 1,0,-1
 332 720 l 1,1,-1
 332 533 l 1,2,-1
 521 546 l 1,3,-1
 510 465 l 1,4,-1
 332 452 l 1,5,-1
 332 126 l 2,6,7
 332 97 332 97 342.5 87 c 128,-1,8
 353 77 353 77 380 77 c 0,9,10
 431.272727273 77 431.272727273 77 488 101 c 2,11,-1
 514 112 l 1,12,-1
 540 40 l 1,13,14
 528 31 528 31 487 19 c 0,15,16
 402 -8 402 -8 334 -8 c 0,17,18
 284 -8 284 -8 263 18 c 0,19,20
 239 47 239 47 239 107 c 2,21,-1
 239 445 l 1,22,-1
 60 432 l 1,23,-1
 72 514 l 1,24,-1
 239 525 l 1,25,-1
 239 697 l 1,0,-1
EndSplineSet
EndChar
StartChar: u
Encoding: 117 117 86
Width: 600
VWidth: 1034
Flags: W
AnchorPoint: "Anchor 3" 447 4 basechar 0
AnchorPoint: "Anchor 1" 401 530 basechar 0
AnchorPoint: "Anchor 2" 290 1 basechar 0
AnchorPoint: "Anchor 0" 289 534 basechar 0
LayerCount: 3
Fore
SplineSet
493 545 m 9,0,-1
 493 119 l 26,1,2
 493 100 493 100 502 92 c 24,3,4
 508 86 508 86 528 83 c 26,5,-1
 563 77 l 25,6,-1
 551 5 l 1,7,-1
 410 -7 l 1,8,-1
 415 74 l 1,9,10
 399 43 399 43 362 20 c 0,11,12
 311 -12 311 -12 257 -12 c 3,13,14
 210 -12 210 -12 175.5 4.5 c 128,-1,15
 141 21 141 21 127 43 c 0,16,17
 106 75 106 75 107 169 c 2,18,-1
 107 418 l 25,19,20
 107 432 107 432 98 445 c 24,21,22
 93 452 93 452 83 454 c 26,23,-1
 48 460 l 25,24,-1
 58 532 l 1,25,-1
 200 545 l 1,26,-1
 200 157 l 2,27,28
 200 131 200 131 205 115 c 0,29,30
 211 93 211 93 229 82 c 0,31,32
 245 73 245 73 280 72 c 3,33,34
 313 72 313 72 355 112 c 0,35,36
 401 155 401 155 400 216 c 2,37,-1
 400 418 l 10,38,39
 400 432 400 432 392 445 c 24,40,41
 387 452 387 452 377 454 c 26,42,-1
 341 460 l 25,43,-1
 351 532 l 1,44,-1
 493 545 l 9,0,-1
EndSplineSet
EndChar
StartChar: v
Encoding: 118 118 87
Width: 600
VWidth: 1034
Flags: W
LayerCount: 3
Fore
SplineSet
539 539 m 25,0,-1
 365 0 l 1,1,-1
 271 0 l 1,2,-1
 133 413 l 2,3,4
 127 432 127 432 119 442 c 128,-1,5
 111 452 111 452 97 454 c 2,6,-1
 55 460 l 1,7,-1
 69 533 l 1,8,-1
 186 542 l 17,9,-1
 284 231 l 1,10,-1
 319 100 l 1,11,-1
 354 231 l 1,12,-1
 412 422 l 2,13,14
 420 448 420 448 416 451 c 0,15,16
 411 455 411 455 376 458 c 2,17,-1
 351 460 l 1,18,-1
 363 533 l 1,19,-1
 539 539 l 25,0,-1
EndSplineSet
EndChar
StartChar: w
Encoding: 119 119 88
Width: 600
VWidth: 1034
Flags: W
AnchorPoint: "Anchor 0" 309 521 basechar 0
LayerCount: 3
Fore
SplineSet
457 417 m 1,0,1
 462 442 462 442 462 449 c 0,2,3
 461 450 l 0,4,5
 461 456 461 456 460 457 c 0,6,7
 456 461 456 461 445 462 c 2,8,-1
 422 464 l 1,9,-1
 429 532 l 1,10,-1
 566 538 l 1,11,-1
 462 0 l 1,12,-1
 385 0 l 1,13,-1
 310 296 l 1,14,-1
 236 0 l 1,15,-1
 159 0 l 1,16,-1
 79 418 l 2,17,18
 75 438 75 438 68.5 449 c 128,-1,19
 62 460 62 460 54 461 c 2,20,-1
 31 464 l 1,21,-1
 40 532 l 1,22,-1
 143 539 l 1,23,-1
 202 203 l 1,24,-1
 213 116 l 1,25,-1
 229 202 l 1,26,-1
 273 408 l 1,27,-1
 349 408 l 1,28,-1
 393 202 l 1,29,-1
 409 116 l 1,30,-1
 420 203 l 1,31,-1
 457 417 l 1,0,1
EndSplineSet
EndChar
StartChar: x
Encoding: 120 120 89
Width: 600
VWidth: 1034
Flags: W
LayerCount: 3
Fore
SplineSet
451 117 m 2,0,1
 463 95 463 95 471.5 88 c 128,-1,2
 480 81 480 81 494 79 c 2,3,-1
 535 73 l 1,4,-1
 526 0 l 1,5,-1
 425 -9 l 17,6,-1
 300 210 l 1,7,-1
 175 1 l 9,8,-1
 68 -8 l 1,9,-1
 77 65 l 1,10,-1
 95 68 l 2,11,12
 103 69 103 69 119 81 c 0,13,14
 129 89 129 89 142 111 c 2,15,-1
 232 265 l 1,16,-1
 149 410 l 2,17,18
 129 444 129 444 119 449 c 0,19,20
 111 453 111 453 94 454 c 2,21,-1
 69 456 l 1,22,-1
 79 530 l 1,23,-1
 170 541 l 17,24,-1
 299 317 l 1,25,-1
 421 531 l 9,26,-1
 532 541 l 1,27,-1
 523 467 l 1,28,-1
 507 463 l 2,29,30
 496 461 496 461 482 454 c 0,31,32
 476 451 476 451 459 423 c 2,33,-1
 366 265 l 1,34,-1
 451 117 l 2,0,1
EndSplineSet
EndChar
StartChar: y
Encoding: 121 121 90
Width: 600
VWidth: 1034
Flags: W
AnchorPoint: "Anchor 0" 304 534 basechar 0
LayerCount: 3
Fore
SplineSet
250 -127 m 2,0,1
 291 4 l 1,2,-1
 240 26 l 1,3,-1
 124 407 l 2,4,5
 112 447 112 447 88 452 c 2,6,-1
 57 458 l 1,7,-1
 67 533 l 1,8,-1
 171 543 l 25,9,-1
 314 80 l 1,10,-1
 417 404 l 2,11,12
 425 430 425 430 425 440 c 0,13,14
 425 443 425 443 424 445 c 0,15,16
 421 451 421 451 407 454 c 2,17,-1
 376 460 l 1,18,-1
 384 533 l 1,19,-1
 549 542 l 25,20,-1
 340 -127 l 2,21,22
 333 -149 333 -149 340.5 -156 c 128,-1,23
 348 -163 348 -163 367 -164 c 2,24,-1
 401 -166 l 25,25,-1
 390 -239 l 25,26,-1
 130 -250 l 25,27,-1
 118 -181 l 25,28,-1
 213 -169 l 26,29,30
 222 -168 222 -168 234 -158 c 0,31,32
 243 -151 243 -151 250 -127 c 2,0,1
EndSplineSet
EndChar
StartChar: z
Encoding: 122 122 91
Width: 600
VWidth: 1034
Flags: W
AnchorPoint: "Anchor 0" 292 524 basechar 0
LayerCount: 3
Fore
SplineSet
510 532 m 1,0,-1
 506 477 l 1,1,-1
 201 83 l 1,2,-1
 385 83 l 2,3,4
 414 83 414 83 431 102 c 0,5,6
 451 124 451 124 460 161 c 1,7,-1
 533 149 l 1,8,-1
 499 0 l 1,9,-1
 76 0 l 1,10,-1
 68 50 l 1,11,-1
 379 449 l 1,12,-1
 196 449 l 2,13,14
 166 449 166 449 159 436 c 0,15,16
 154 420 l 2,17,-1
 150 408 l 1,18,-1
 71 403 l 1,19,-1
 86 532 l 1,20,-1
 510 532 l 1,0,-1
EndSplineSet
EndChar
StartChar: braceleft
Encoding: 123 123 92
Width: 600
VWidth: 1034
Flags: W
LayerCount: 3
Fore
SplineSet
245 313 m 1,0,1
 316 296 316 296 331 269 c 0,2,3
 348 238 348 238 348 193 c 0,4,5
 348 186 348 186 348 178 c 2,6,-1
 337 6 l 2,7,8
 337 1 337 1 337 -3 c 0,9,10
 337 -41 337 -41 360 -54 c 0,11,12
 392 -74 392 -74 451 -74 c 0,13,14
 457 -74 457 -74 462 -73 c 1,15,-1
 441 -152 l 1,16,17
 321 -152 321 -152 281 -115 c 0,18,19
 243 -79 243 -79 244 -9 c 0,20,21
 244 -1 244 -1 244 8 c 2,22,-1
 254 184 l 2,23,24
 254 188 254 188 255 193 c 0,25,26
 255 226 255 226 240 240 c 0,27,28
 207 272 207 272 159 273 c 2,29,30
 158 273 158 273 114 273 c 9,31,-1
 114 360 l 17,32,33
 158 360 158 360 159 360 c 2,34,35
 207 361 207 361 240 393 c 0,36,37
 255 408 255 408 255 441 c 0,38,39
 255 445 255 445 254 449 c 2,40,-1
 244 625 l 2,41,42
 243 634 243 634 244 642 c 0,43,44
 244 712 244 712 281 748 c 0,45,46
 320 785 320 785 442 785 c 1,47,-1
 462 707 l 1,48,49
 456 707 456 707 451 707 c 0,50,51
 392 707 392 707 360 687 c 0,52,53
 337 674 337 674 337 636 c 0,54,55
 337 631 337 631 337 627 c 2,56,-1
 348 455 l 2,57,58
 348 448 348 448 348 441 c 4,59,60
 348 396 348 396 331 364 c 0,61,62
 317 336 317 336 245 320 c 1,63,-1
 245 313 l 1,0,1
EndSplineSet
EndChar
StartChar: bar
Encoding: 124 124 93
Width: 600
VWidth: 1034
Flags: W
LayerCount: 3
Fore
SplineSet
253 -152 m 5,0,-1
 253 785 l 5,1,-1
 347 785 l 5,2,-1
 347 -152 l 5,3,-1
 253 -152 l 5,0,-1
EndSplineSet
EndChar
StartChar: braceright
Encoding: 125 125 94
Width: 600
VWidth: 1034
Flags: W
LayerCount: 3
Fore
SplineSet
357 313 m 1,0,-1
 357 320 l 1,1,2
 286 337 286 337 271 364 c 0,3,4
 254 395 254 395 254 441 c 0,5,6
 254 448 254 448 254 455 c 2,7,-1
 265 627 l 2,8,9
 265 632 265 632 265 636 c 0,10,11
 265 674 265 674 242 687 c 0,12,13
 210 707 210 707 151 707 c 0,14,15
 145 707 145 707 140 707 c 1,16,-1
 160 785 l 1,17,18
 281 785 281 785 321 748 c 0,19,20
 359 712 359 712 358 642 c 0,21,22
 358 634 358 634 358 625 c 2,23,-1
 348 449 l 2,24,25
 348 445 348 445 347 441 c 0,26,27
 347 408 347 408 362 393 c 0,28,29
 395 361 395 361 443 360 c 2,30,31
 444 360 444 360 488 360 c 9,32,-1
 488 273 l 17,33,34
 444 273 444 273 443 273 c 2,35,36
 395 272 395 272 362 240 c 0,37,38
 347 225 347 225 347 193 c 0,39,40
 347 189 347 189 348 184 c 2,41,-1
 358 8 l 2,42,43
 359 -1 359 -1 358 -9 c 0,44,45
 358 -79 358 -79 321 -115 c 0,46,47
 282 -152 282 -152 161 -152 c 1,48,-1
 140 -73 l 1,49,50
 146 -73 146 -73 151 -74 c 0,51,52
 210 -74 210 -74 242 -54 c 0,53,54
 265 -41 265 -41 265 -3 c 0,55,56
 265 2 265 2 265 6 c 2,57,-1
 254 178 l 2,58,59
 254 185 254 185 254 193 c 0,60,61
 254 238 254 238 271 269 c 0,62,63
 286 296 286 296 357 313 c 1,0,-1
EndSplineSet
EndChar
StartChar: asciitilde
Encoding: 126 126 95
Width: 600
VWidth: 1034
Flags: W
LayerCount: 3
Fore
SplineSet
463 417 m 1,0,1
 535 372 l 1,2,3
 499 281 499 281 477 259 c 0,4,5
 447 227 447 227 406 228 c 0,6,7
 382 228 382 228 355 242 c 2,8,-1
 232 307 l 2,9,10
 219 314 219 314 202 314 c 0,11,12
 183 314 183 314 169 286.5 c 128,-1,13
 155 259 155 259 139 221 c 1,14,-1
 66 270 l 1,15,16
 100 351 100 351 121 376 c 0,17,18
 151 412 151 412 198 412 c 3,19,20
 225 412 225 412 243 401 c 2,21,-1
 360 337 l 2,22,23
 385 324 385 324 396 324 c 0,24,25
 420 324 420 324 433.5 351 c 128,-1,26
 447 378 447 378 463 417 c 1,0,1
EndSplineSet
EndChar
StartChar: exclamdown
Encoding: 161 161 120
Width: 600
VWidth: 1034
Flags: W
LayerCount: 3
Fore
SplineSet
266 430 m 6,0,-1
 323 422 l 6,1,2
 332 421 332 421 340.5 429.5 c 132,-1,3
 349 438 349 438 349 448 c 6,4,-1
 349 512 l 6,5,6
 349 522 349 522 340 531 c 4,7,8
 335 536 335 536 323 538 c 6,9,-1
 266 546 l 6,10,11
 257 547 257 547 248.5 539 c 132,-1,12
 240 531 240 531 240 520 c 6,13,-1
 240 456 l 6,14,15
 240 446 240 446 248 438 c 4,16,17
 254 432 254 432 266 430 c 6,0,-1
238 -211 m 21,18,-1
 252 349 l 29,19,-1
 336 331 l 29,20,-1
 352 -222 l 13,21,-1
 238 -211 l 21,18,-1
EndSplineSet
EndChar
StartChar: cent
Encoding: 162 162 121
Width: 600
VWidth: 1034
Flags: W
LayerCount: 3
Fore
SplineSet
218 -118 m 1,0,-1
 163 -101 l 1,1,-1
 199 10 l 1,2,3
 159 28 159 28 132 60 c 0,4,5
 76 131 76 131 77 266 c 0,6,7
 77 403 77 403 138 473 c 0,8,9
 196 540 196 540 316 540 c 0,10,11
 341 540 341 540 362 537 c 1,12,-1
 398 654 l 1,13,-1
 455 639 l 1,14,-1
 419 523 l 1,15,16
 463 506 463 506 493 473 c 0,17,18
 513 451 513 451 528 418 c 1,19,-1
 441 386 l 1,20,21
 437 395 437 395 395 437 c 0,22,23
 394 438 394 438 392 438 c 1,24,-1
 279 78 l 1,25,26
 296 75 296 75 314 74 c 0,27,28
 360 74 360 74 393 90 c 0,29,30
 421 102 421 102 441 142 c 1,31,-1
 528 112 l 1,32,33
 517 83 517 83 497 60 c 0,34,35
 438 -10 438 -10 316 -10 c 0,36,37
 283 -10 283 -10 253 -5 c 1,38,-1
 218 -118 l 1,0,-1
226 98 m 1,39,-1
 335 452 l 1,40,41
 326 453 326 453 314 453 c 0,42,43
 260 453 260 453 237 439 c 0,44,45
 211 423 211 423 194 396 c 0,46,47
 180 372 180 372 176 341 c 0,48,49
 169 283 169 283 169 266 c 0,50,51
 169 220 169 220 174 191 c 0,52,53
 179 161 179 161 194 133 c 0,54,55
 207 110 207 110 226 98 c 1,39,-1
EndSplineSet
EndChar
StartChar: sterling
Encoding: 163 163 122
Width: 600
VWidth: 1034
Flags: W
LayerCount: 3
Fore
SplineSet
483 -12 m 1,0,1
 381 7 381 7 282 7 c 0,2,3
 188 7 188 7 97 -10 c 1,4,-1
 56 52 l 1,5,6
 118 119 118 119 136 174 c 0,7,8
 145 203 145 203 145 238 c 0,9,10
 145 275 145 275 134 320 c 1,11,-1
 53 320 l 1,12,-1
 63 396 l 1,13,-1
 114 396 l 1,14,15
 96 463 96 463 95 504 c 0,16,17
 95 510 95 510 96 515 c 0,18,19
 103 618 103 618 178 668 c 0,20,21
 228 701 228 701 294 702 c 0,22,23
 302 702 302 702 310 701 c 0,24,25
 413 695 413 695 472 621 c 0,26,27
 490 598 490 598 500 572 c 1,28,-1
 424 542 l 1,29,30
 393 620 393 620 305 625 c 0,31,32
 300 625 300 625 294 625 c 0,33,34
 239 625 239 625 207 589 c 0,35,36
 179 558 179 558 179 505 c 0,37,38
 179 471 179 471 191 428 c 0,39,40
 194 418 194 418 199 396 c 1,41,-1
 383 396 l 1,42,-1
 373 320 l 1,43,-1
 219 320 l 1,44,45
 228 280 228 280 227 242 c 0,46,47
 227 153 227 153 179 79 c 1,48,49
 221 82 221 82 257 82 c 0,50,51
 280 82 280 82 300 81 c 0,52,53
 361 76 361 76 379 76 c 0,54,55
 380 76 380 76 381 76 c 0,56,57
 423 76 423 76 438 96 c 0,58,59
 446 105 446 105 451 119 c 2,60,-1
 465 151 l 1,61,-1
 536 118 l 1,62,-1
 483 -12 l 1,0,1
EndSplineSet
Layer: 2
SplineSet
288.62109375 698.275390625 m 7
 322.4140625 698.275390625 350.344726562 695.172851562 372.4140625 688.965820312 c 4
 402.069335938 680.689453125 427.241210938 667.241210938 447.930664062 648.62109375 c 4
 470.689453125 627.930664062 486.551757812 603.79296875 495.517578125 576.20703125 c 5
 422.069335938 537.930664062 l 5
 415.862304688 557.930664062 406.20703125 573.79296875 393.103515625 585.517578125 c 4
 368.275390625 609.655273438 335.862304688 621.724609375 295.862304688 621.724609375 c 7
 266.896484375 621.724609375 243.448242188 615.517578125 225.517578125 603.103515625 c 4
 205.517578125 589.310546875 192.758789062 572.758789062 187.241210938 553.448242188 c 4
 181.724609375 532.069335938 178.965820312 510 178.965820312 487.241210938 c 7
 178.965820312 466.551757812 185.172851562 436.896484375 197.5859375 398.275390625 c 5
 383.79296875 398.275390625 l 5
 372.4140625 320.689453125 l 5
 217.241210938 320.689453125 l 5
 224.137695312 280 227.5859375 244.137695312 227.5859375 213.103515625 c 7
 227.5859375 166.20703125 210.344726562 121.724609375 175.862304688 79.6552734375 c 5
 200.689453125 82.4140625 228.62109375 83.79296875 259.655273438 83.79296875 c 7
 292.069335938 83.79296875 317.930664062 82.5859375 337.241210938 80.1728515625 c 132
 356.551757812 77.7587890625 368.62109375 76.5517578125 373.448242188 76.5517578125 c 4
 396.896484375 76.5517578125 413.448242188 78.9658203125 423.103515625 83.79296875 c 4
 436.896484375 90.689453125 447.5859375 102.758789062 455.172851562 120 c 4
 459.310546875 129.655273438 463.448242188 139.655273438 467.5859375 150 c 5
 531.724609375 120 l 5
 482.069335938 -13.4482421875 l 5
 431.034179688 -1.0341796875 362.069335938 5.1728515625 275.172851562 5.1728515625 c 7
 197.241210938 5.1728515625 132.4140625 0.689453125 80.689453125 -8.275390625 c 5
 62.0693359375 50.689453125 l 5
 71.724609375 63.79296875 86.896484375 86.896484375 107.5859375 120 c 4
 133.103515625 161.37890625 145.862304688 195.172851562 145.862304688 221.37890625 c 7
 145.862304688 241.37890625 141.37890625 274.482421875 132.4140625 320.689453125 c 5
 51.724609375 320.689453125 l 5
 63.103515625 398.275390625 l 5
 111.724609375 398.275390625 l 5
 100.689453125 445.862304688 95.1728515625 483.79296875 95.1728515625 512.069335938 c 7
 95.1728515625 537.5859375 100.689453125 564.827148438 111.724609375 593.79296875 c 4
 122.758789062 622.069335938 139.655273438 644.482421875 162.4140625 661.034179688 c 4
 179.655273438 673.448242188 199.655273438 683.103515625 222.4140625 690 c 4
 241.034179688 695.517578125 263.103515625 698.275390625 288.62109375 698.275390625 c 7
  Spiro
    288.621 698.276 o
    334.914 695.948 o
    372.414 688.966 o
    413.534 672.672 o
    447.931 648.621 o
    476.897 615 o
    495.517 576.207 v
    422.069 537.931 v
    410.172 564.828 o
    393.103 585.517 o
    350.172 612.672 o
    295.862 621.724 o
    256.552 617.069 o
    225.517 603.103 o
    200.948 580.345 o
    187.241 553.448 o
    181.034 520.862 o
    178.966 487.241 o
    183.621 449.483 o
    197.586 398.276 v
    383.793 398.276 v
    372.414 320.69 v
    217.241 320.69 v
    225 263.276 o
    227.586 213.103 o
    214.655 144.569 o
    175.862 79.6552 v
    215.431 82.7586 o
    259.655 83.7931 o
    303.362 82.8879 o
    337.241 80.1724 o
    360.776 77.4569 o
    373.448 76.5517 o
    403.448 78.3621 o
    423.103 83.7931 o
    441.466 98.0172 o
    455.172 120 o
    461.379 134.741 o
    467.586 150 v
    531.724 120 v
    482.069 -13.4483 v
    392.069 0.517241 o
    275.172 5.17241 o
    168.103 1.81034 o
    80.6897 -8.27586 v
    62.069 50.6897 v
    80.6897 77.8448 o
    107.586 120 o
    136.293 176.379 o
    145.862 221.379 o
    142.5 261.207 o
    132.414 320.69 v
    51.7241 320.69 v
    63.1034 398.276 v
    111.724 398.276 v
    99.3103 462.414 o
    95.1724 512.069 o
    99.3103 551.638 o
    111.724 593.793 o
    132.672 631.81 o
    162.414 661.034 o
    190.345 677.586 o
    222.414 690 o
    252.931 696.207 o
    0 0 z
  EndSpiro
EndSplineSet
EndChar
StartChar: currency
Encoding: 164 164 123
Width: 600
VWidth: 1034
Flags: W
LayerCount: 3
Fore
SplineSet
65 170 m 1,0,-1
 114 218 l 1,1,2
 68 278 68 278 69 353 c 0,3,4
 70 396 70 396 81 428 c 0,5,6
 92 463 92 463 115 491 c 1,7,-1
 65 542 l 1,8,-1
 113 590 l 1,9,-1
 162 539 l 1,10,11
 191 562 191 562 228.5 574.5 c 128,-1,12
 266 587 266 587 304 587 c 3,13,14
 343 587 343 587 376 575 c 0,15,16
 409 564 409 564 439 541 c 1,17,-1
 487 590 l 1,18,-1
 535 542 l 1,19,-1
 485 493 l 1,20,21
 508 466 508 466 521 429 c 0,22,23
 533 395 533 395 534 355 c 3,24,25
 534 317 534 317 522.5 282.5 c 128,-1,26
 511 248 511 248 487 218 c 1,27,-1
 536 170 l 1,28,-1
 489 122 l 1,29,-1
 441 171 l 1,30,31
 413 148 413 148 377 134 c 0,32,33
 344 122 344 122 303 122 c 3,34,35
 224 122 224 122 161 171 c 1,36,-1
 113 122 l 1,37,-1
 65 170 l 1,0,-1
303 510 m 135,-1,39
 238 510 238 510 192 466 c 4,40,41
 145 422 145 422 146 353 c 263,42,43
 146 289 146 289 191 243 c 4,44,45
 235 199 235 199 303 198 c 260,46,47
 364 197 364 197 413 245 c 4,48,49
 457 289 457 289 458 355 c 4,50,51
 459 415 459 415 412 464 c 4,52,38
 368 510 368 510 303 510 c 135,-1,39
EndSplineSet
EndChar
StartChar: yen
Encoding: 165 165 124
Width: 600
VWidth: 1034
Flags: W
LayerCount: 3
Fore
SplineSet
454 710 m 1,0,-1
 534 682 l 1,1,-1
 404 438 l 1,2,-1
 504 438 l 1,3,-1
 498 377 l 1,4,-1
 372 377 l 1,5,-1
 343 318 l 1,6,-1
 343 277 l 5,7,-1
 504 277 l 5,8,-1
 498 216 l 5,9,-1
 343 216 l 5,10,-1
 343 0 l 1,11,-1
 254 0 l 1,12,-1
 254 216 l 5,13,-1
 88 216 l 5,14,-1
 94 277 l 5,15,-1
 254 277 l 5,16,-1
 254 319 l 1,17,-1
 227 377 l 1,18,-1
 88 377 l 1,19,-1
 94 438 l 1,20,-1
 193 438 l 1,21,-1
 64 682 l 1,22,-1
 149 710 l 1,23,-1
 302 418 l 1,24,-1
 454 710 l 1,0,-1
EndSplineSet
EndChar
StartChar: brokenbar
Encoding: 166 166 125
Width: 600
VWidth: 1034
Flags: W
LayerCount: 3
Fore
SplineSet
264 -10 m 1,0,-1
 336 -10 l 5,1,-1
 336 301 l 5,2,-1
 264 301 l 1,3,-1
 264 -10 l 1,0,-1
264 771 m 1,4,-1
 264 459 l 1,5,-1
 336 459 l 5,6,-1
 336 771 l 5,7,-1
 264 771 l 1,4,-1
EndSplineSet
EndChar
StartChar: section
Encoding: 167 167 126
Width: 600
VWidth: 1034
Flags: W
LayerCount: 3
Fore
SplineSet
147 16 m 1,0,1
 198 -33 198 -33 290 -33 c 0,2,3
 331 -33 331 -33 374 -5 c 0,4,5
 408 16 408 16 409 67 c 0,6,7
 409 97 409 97 396 116 c 0,8,9
 383 137 383 137 334 156 c 2,10,-1
 232 198 l 2,11,12
 148 232 148 232 119 261 c 0,13,14
 77 303 77 303 77 386 c 0,15,16
 77 454 77 454 132 510 c 1,17,18
 114 543 114 543 115 593 c 3,19,20
 115 624 115 624 129 660 c 0,21,22
 145 695 145 695 178 722 c 0,23,24
 233 765 233 765 331 766 c 0,25,26
 441 766 441 766 485 718 c 1,27,-1
 434 650 l 1,28,29
 400 689 400 689 323 689 c 3,30,31
 271 689 271 689 231 657 c 0,32,33
 202 633 202 633 202 587 c 3,34,35
 202 557 202 557 214 538 c 0,36,37
 232 511 232 511 266 498 c 2,38,-1
 368 456 l 2,39,40
 452 422 452 422 481 393 c 0,41,42
 534 340 534 340 534 268 c 0,43,44
 534 201 534 201 496 162 c 0,45,-1
 478 146 l 1,46,47
 495 117 495 117 494 67 c 0,48,49
 494 19 494 19 474 -17 c 0,50,51
 455 -47 455 -47 432 -66 c 0,52,53
 377 -112 377 -112 265 -112 c 3,54,55
 150 -112 150 -112 88 -50 c 1,56,-1
 147 16 l 1,0,1
441 187 m 1,57,58
 463 214 463 214 462 259 c 0,59,60
 462 315 462 315 421 339 c 0,61,62
 411 345 411 345 356 367 c 0,63,64
 240 410 240 410 210 427 c 0,65,66
 186 440 186 440 164 461 c 0,67,68
 161 463 161 463 159 467 c 1,69,70
 137 440 137 440 138 395 c 0,71,72
 138 340 138 340 179 314 c 0,73,74
 189 308 189 308 244 287 c 0,75,76
 359 244 359 244 436 192 c 0,77,78
 439 190 439 190 441 187 c 1,57,58
EndSplineSet
EndChar
StartChar: dieresis
Encoding: 168 168 127
Width: 600
VWidth: 1034
Flags: W
AnchorPoint: "Anchor 0" 300 534 mark 0
LayerCount: 3
Fore
SplineSet
194 630 m 256,0,1
 171 630 171 630 155.5 646.5 c 128,-1,2
 140 663 140 663 140 685 c 0,3,4
 140 708 140 708 156 724.5 c 128,-1,5
 172 741 172 741 194 741 c 256,6,7
 217 741 217 741 233 724.5 c 128,-1,8
 249 708 249 708 249 685 c 0,9,10
 249 663 249 663 233 646.5 c 128,-1,11
 217 630 217 630 194 630 c 256,0,1
406 741 m 256,12,13
 429 741 429 741 444.5 724 c 128,-1,14
 460 707 460 707 460 685 c 256,15,16
 460 663 460 663 443.5 646.5 c 128,-1,17
 427 630 427 630 406 630 c 256,18,19
 384 630 384 630 367 646 c 128,-1,20
 350 662 350 662 350 685 c 256,21,22
 350 708 350 708 366.5 724.5 c 128,-1,23
 383 741 383 741 406 741 c 256,12,13
EndSplineSet
EndChar
StartChar: copyright
Encoding: 169 169 128
Width: 600
VWidth: 1034
Flags: W
LayerCount: 3
Fore
SplineSet
431 429 m 4,0,1
 379 410 l 5,2,3
 368 434 368 434 352 441 c 4,4,5
 332 450 332 450 303 450 c 263,6,7
 271 450 271 450 257 442 c 4,8,9
 241 433 241 433 232 416 c 4,10,11
 224 402 224 402 220 383 c 4,12,13
 216 348 216 348 216 338 c 263,14,15
 216 311 216 311 219 293.5 c 132,-1,16
 222 276 222 276 232 259 c 4,17,18
 243 239 243 239 257 233 c 4,19,20
 278 224 278 224 306 223 c 263,21,22
 330 223 330 223 351 233 c 4,23,24
 368 240 368 240 379 264 c 5,25,-1
 431 245 l 5,26,27
 424 228 424 228 413 214 c 4,28,29
 378 172 378 172 304 172 c 7,30,31
 228 172 228 172 194 214.5 c 132,-1,32
 160 257 160 257 160 338 c 135,-1,33
 160 419 160 419 198 462 c 4,34,35
 233 502 233 502 304 503 c 263,36,37
 373 503 373 503 411 462 c 4,38,39
 423 449 423 449 431 429 c 4,0,1
537 343 m 260,40,41
 537 247 537 247 524.5 181 c 132,-1,42
 512 115 512 115 485 72.5 c 132,-1,43
 458 30 458 30 413 10 c 4,44,45
 369 -10 369 -10 301 -9 c 263,46,47
 232 -9 232 -9 187 10 c 4,48,49
 141 30 141 30 114.5 72.5 c 132,-1,50
 88 115 88 115 75.5 181 c 132,-1,51
 63 247 63 247 63 343 c 260,52,53
 63 439 63 439 75.5 505.5 c 132,-1,54
 88 572 88 572 115 614.5 c 132,-1,55
 142 657 142 657 187 677 c 4,56,57
 231 697 231 697 301 696 c 263,58,59
 368 696 368 696 413 677 c 4,60,61
 459 657 459 657 485.5 614.5 c 132,-1,62
 512 572 512 572 524.5 505.5 c 132,-1,63
 537 439 537 439 537 343 c 260,40,41
120 343 m 260,64,65
 120 277 120 277 125 226 c 4,66,67
 129 179 129 179 148 130.5 c 132,-1,68
 167 82 167 82 201 63 c 4,69,70
 238 41 238 41 301 41 c 28,71,72
 360 41 360 41 399 63 c 4,73,74
 433 82 433 82 452 131 c 132,-1,75
 471 180 471 180 475 226 c 4,76,77
 480 278 480 278 480 343 c 260,78,79
 480 409 480 409 475 461 c 4,80,81
 471 508 471 508 452 556.5 c 132,-1,82
 433 605 433 605 399 624 c 4,83,84
 358 646 358 646 301 646 c 28,85,86
 238 646 238 646 201 624 c 4,87,88
 167 605 167 605 148 556 c 132,-1,89
 129 507 129 507 125 461 c 4,90,91
 120 409 120 409 120 343 c 260,64,65
EndSplineSet
EndChar
StartChar: ordfeminine
Encoding: 170 170 129
Width: 600
VWidth: 1034
Flags: W
LayerCount: 3
Fore
SplineSet
343 436 m 24,0,1
 311 418 311 418 278 418 c 3,2,3
 215 418 215 418 187 444 c 0,4,5
 159 471 159 471 159 523 c 3,6,7
 159 556 159 556 179 579 c 128,-1,8
 199 602 199 602 230 607 c 0,9,10
 257 611 257 611 306 611 c 0,11,-1
 338 611 l 10,12,-1
 354 611 l 17,13,-1
 354 619 l 2,14,15
 354 653 354 653 343 669 c 0,16,17
 332 687 332 687 318 693 c 0,18,19
 298 701 298 701 278 701 c 259,20,21
 235 701 235 701 215 673 c 1,22,-1
 176 701 l 1,23,24
 190 720 190 720 213 732 c 0,25,26
 235 744 235 744 274 745 c 259,27,28
 344 745 344 745 377 711 c 0,29,30
 406 680 406 680 409 595 c 0,31,32
 410 540 410 540 410 520 c 3,33,34
 410 482 410 482 414 476 c 0,35,36
 420 469 420 469 430 467 c 2,37,-1
 440 464 l 25,38,-1
 433 426 l 1,39,-1
 369 421 l 1,40,-1
 369 448 l 1,41,-1
 343 436 l 24,0,1
289 461 m 259,42,43
 303 461 303 461 318 466 c 0,44,45
 357 477 357 477 357 518 c 3,46,47
 357 553 357 553 356 568 c 1,48,-1
 321 568 l 2,49,50
 298 568 298 568 275 568 c 0,51,52
 234 568 234 568 223 557 c 0,53,54
 212 545 212 545 212 526 c 3,55,56
 212 489 212 489 233 473 c 0,57,58
 247 461 247 461 289 461 c 259,42,43
159 368 m 1,59,-1
 441 368 l 1,60,-1
 441 329 l 1,61,-1
 159 329 l 1,62,-1
 159 368 l 1,59,-1
EndSplineSet
EndChar
StartChar: guillemotleft
Encoding: 171 171 130
Width: 600
VWidth: 1034
Flags: W
LayerCount: 3
Fore
SplineSet
311 232 m 5,0,-1
 311 281 l 5,1,-1
 443 481 l 5,2,-1
 506 453 l 5,3,-1
 377 257 l 5,4,-1
 506 60 l 5,5,-1
 443 32 l 5,6,-1
 311 232 l 5,0,-1
94 232 m 1,7,-1
 94 281 l 1,8,-1
 226 481 l 1,9,-1
 289 453 l 1,10,-1
 159 257 l 1,11,-1
 289 60 l 1,12,-1
 226 32 l 1,13,-1
 94 232 l 1,7,-1
EndSplineSet
EndChar
StartChar: logicalnot
Encoding: 172 172 131
Width: 600
VWidth: 1034
Flags: W
LayerCount: 3
Fore
SplineSet
440 188 m 5,0,-1
 517 188 l 5,1,-1
 517 438 l 5,2,-1
 83 438 l 5,3,-1
 83 360 l 5,4,-1
 440 360 l 5,5,-1
 440 188 l 5,0,-1
EndSplineSet
EndChar
StartChar: minus
Encoding: 173 173 132
AltUni2: 002212.ffffffff.0
Width: 600
VWidth: 1034
Flags: W
LayerCount: 3
Fore
SplineSet
97 370 m 1,0,-1
 97 277 l 1,1,-1
 497 277 l 1,2,-1
 507 370 l 1,3,-1
 97 370 l 1,0,-1
EndSplineSet
EndChar
StartChar: registered
Encoding: 174 174 133
Width: 600
VWidth: 1034
Flags: W
LayerCount: 3
Fore
SplineSet
537 343 m 256,0,1
 537 247 537 247 524.5 181 c 128,-1,2
 512 115 512 115 485 72.5 c 128,-1,3
 458 30 458 30 413 10 c 0,4,5
 369 -10 369 -10 301 -9 c 259,6,7
 232 -9 232 -9 187 10 c 0,8,9
 141 30 141 30 114.5 72.5 c 128,-1,10
 88 115 88 115 75.5 181 c 128,-1,11
 63 247 63 247 63 343 c 256,12,13
 63 439 63 439 75.5 505.5 c 128,-1,14
 88 572 88 572 115 614.5 c 128,-1,15
 142 657 142 657 187 677 c 0,16,17
 231 697 231 697 301 696 c 259,18,19
 368 696 368 696 413 677 c 0,20,21
 459 657 459 657 485.5 614.5 c 128,-1,22
 512 572 512 572 524.5 505.5 c 128,-1,23
 537 439 537 439 537 343 c 256,0,1
120 343 m 256,24,25
 120 277 120 277 125 226 c 0,26,27
 129 179 129 179 148 130.5 c 128,-1,28
 167 82 167 82 201 63 c 0,29,30
 238 41 238 41 301 41 c 24,31,32
 360 41 360 41 399 63 c 0,33,34
 433 82 433 82 452 131 c 128,-1,35
 471 180 471 180 475 226 c 0,36,37
 480 278 480 278 480 343 c 256,38,39
 480 409 480 409 475 461 c 0,40,41
 471 508 471 508 452 556.5 c 128,-1,42
 433 605 433 605 399 624 c 0,43,44
 358 646 358 646 301 646 c 24,45,46
 238 646 238 646 201 624 c 0,47,48
 167 605 167 605 148 556 c 128,-1,49
 129 507 129 507 125 461 c 0,50,51
 120 409 120 409 120 343 c 256,24,25
244 484 m 1,52,-1
 244 363 l 1,53,-1
 274 361 l 2,54,55
 293 360 l 0,56,57
 336 360 336 360 350 381 c 0,58,59
 365 401 365 401 364 428 c 0,60,61
 364 430 364 430 364 431 c 0,62,63
 364 461 364 461 350 474 c 128,-1,64
 336 487 336 487 299 487 c 24,65,-1
 265 486 l 2,66,-1
 244 484 l 1,52,-1
273 301 m 2,67,68
 272 303 272 303 268 307 c 24,69,70
 265 310 265 310 259 310 c 2,71,-1
 245 311 l 1,72,-1
 244 133 l 1,73,-1
 190 133 l 1,74,-1
 190 470 l 1,75,-1
 190 536 l 1,76,-1
 254 540 l 2,77,-1
 288 541 l 0,78,79
 348 541 348 541 376 528 c 0,80,81
 420 507 420 507 420 437 c 0,82,83
 420 383 420 383 395 352 c 0,84,85
 369 318 369 318 327 316 c 1,86,-1
 421 133 l 1,87,-1
 355 133 l 1,88,-1
 273 301 l 2,67,68
EndSplineSet
EndChar
StartChar: macron
Encoding: 175 175 134
Width: 600
VWidth: 1034
Flags: W
LayerCount: 3
Fore
SplineSet
155 653 m 5,0,-1
 445 653 l 5,1,-1
 445 721 l 5,2,-1
 155 721 l 5,3,-1
 155 653 l 5,0,-1
EndSplineSet
EndChar
StartChar: degree
Encoding: 176 176 135
Width: 600
VWidth: 1034
Flags: W
LayerCount: 3
Fore
SplineSet
455 538 m 3,0,1
 455 506 455 506 443 477.5 c 128,-1,2
 431 449 431 449 409.5 428 c 128,-1,3
 388 407 388 407 359.5 395 c 128,-1,4
 331 383 331 383 300 383 c 259,5,6
 269 383 269 383 240.5 395 c 128,-1,7
 212 407 212 407 190.5 428.5 c 128,-1,8
 169 450 169 450 157 478.5 c 128,-1,9
 145 507 145 507 145 538 c 3,10,11
 145 570 145 570 157 598 c 128,-1,12
 169 626 169 626 190.5 647.5 c 128,-1,13
 212 669 212 669 240.5 681 c 128,-1,14
 269 693 269 693 300 693 c 259,15,16
 331 693 331 693 359.5 681 c 128,-1,17
 388 669 388 669 409.5 647.5 c 128,-1,18
 431 626 431 626 443 597.5 c 128,-1,19
 455 569 455 569 455 538 c 3,0,1
402 538 m 131,-1,21
 402 580 402 580 372 610 c 0,22,23
 340 641 340 641 299 641 c 131,-1,24
 258 641 258 641 228 610.5 c 128,-1,25
 198 580 198 580 198 538 c 259,26,27
 198 496 198 496 228 466 c 128,-1,28
 258 436 258 436 300 436 c 131,-1,29
 342 436 342 436 372 466 c 128,-1,20
 402 496 402 496 402 538 c 131,-1,21
EndSplineSet
EndChar
StartChar: plusminus
Encoding: 177 177 136
Width: 600
VWidth: 1034
Flags: W
LayerCount: 3
Fore
SplineSet
65 83 m 1,0,-1
 65 0 l 1,1,-1
 535 0 l 1,2,-1
 535 83 l 1,3,-1
 65 83 l 1,0,-1
259 386 m 1,4,-1
 65 386 l 1,5,-1
 65 303 l 1,6,-1
 259 303 l 1,7,-1
 259 129 l 1,8,-1
 341 129 l 1,9,-1
 341 303 l 1,10,-1
 535 303 l 1,11,-1
 535 386 l 1,12,-1
 341 386 l 1,13,-1
 341 558 l 1,14,-1
 259 558 l 1,15,-1
 259 386 l 1,4,-1
EndSplineSet
EndChar
StartChar: twosuperior
Encoding: 178 178 137
Width: 600
VWidth: 1034
Flags: W
LayerCount: 3
Fore
SplineSet
181 369 m 25,0,-1
 171 420 l 1,1,-1
 230 477 l 1,2,-1
 283 533 l 2,3,4
 311 562 311 562 336 596 c 0,5,6
 358 626 358 626 358 650 c 3,7,8
 358 675 358 675 346 688 c 0,9,10
 333 702 333 702 293 702 c 3,11,12
 260 702 260 702 243 683 c 0,13,14
 233 672 233 672 228 644 c 1,15,-1
 172 658 l 17,16,-1
 173 662 l 2,17,18
 182 699 182 699 201 723 c 0,19,20
 229 758 229 758 297 758 c 3,21,22
 348 758 348 758 380 739 c 0,23,24
 417 717 417 717 417 663 c 3,25,26
 417 620 417 620 400 592 c 0,27,28
 377 553 377 553 341 518 c 0,29,30
 310 485 l 2,31,-1
 250 427 l 1,32,-1
 429 427 l 1,33,-1
 416 369 l 9,34,-1
 181 369 l 25,0,-1
EndSplineSet
EndChar
StartChar: threesuperior
Encoding: 179 179 138
Width: 600
VWidth: 1034
Flags: W
LayerCount: 3
Fore
SplineSet
175 669 m 21,0,1
 183 712 183 712 208 732 c 4,2,3
 240 758 240 758 298 758 c 7,4,5
 352 758 352 758 385 736 c 4,6,7
 417 713 417 713 418 663 c 4,8,9
 418 631 418 631 400 609 c 132,-1,10
 382 587 382 587 351 578 c 5,11,-1
 351 576 l 5,12,13
 389 569 389 569 409 543 c 132,-1,14
 429 517 429 517 429 479 c 7,15,16
 429 449 429 449 418 425 c 4,17,18
 407 402 407 402 388 390 c 132,-1,19
 369 378 369 378 344 372 c 4,20,21
 318 367 318 367 297 367 c 7,22,23
 240 367 240 367 209 394 c 4,24,25
 182 417 182 417 171 463 c 5,26,-1
 224 477 l 13,27,-1
 229 464 l 6,28,29
 235 444 235 444 254 431 c 4,30,31
 268 421 268 421 297 420 c 4,32,33
 341 420 341 420 357 438 c 4,34,35
 370 452 370 452 370 478 c 7,36,37
 370 511 370 511 349 530 c 4,38,39
 333 542 333 542 289 545 c 6,40,-1
 263 547 l 5,41,-1
 263 598 l 5,42,-1
 289 600 l 6,43,44
 327 603 327 603 342.5 617.5 c 132,-1,45
 358 632 358 632 358 653 c 4,46,47
 358 654 358 654 358 655 c 4,48,49
 358 671 358 671 349 684 c 4,50,51
 336 703 336 703 295 702 c 7,52,53
 261 702 261 702 246 688 c 4,54,55
 239 681 239 681 233 665 c 6,56,-1
 229 655 l 29,57,-1
 175 669 l 21,0,1
EndSplineSet
EndChar
StartChar: acute
Encoding: 180 180 139
Width: 600
VWidth: 1034
Flags: W
LayerCount: 3
Fore
SplineSet
287 707 m 0,0,1
 233 667 233 667 179 626 c 1,2,-1
 207 594 l 1,3,4
 248 600 248 600 300 624 c 0,5,6
 337 643 337 643 368 667 c 2,7,-1
 401 694 l 2,8,9
 412 703 412 703 417 718 c 0,10,11
 418 721 418 721 418 725 c 0,12,13
 418 734 418 734 412 743 c 2,14,-1
 401 757 l 2,15,16
 393 768 393 768 376 773 c 0,17,18
 374 773 374 773 371 773 c 0,19,20
 357 773 357 773 341 758 c 0,21,-1
 287 707 l 0,0,1
EndSplineSet
EndChar
StartChar: mu
Encoding: 181 181 140
Width: 600
VWidth: 1034
Flags: W
AnchorPoint: "Anchor 2" 290 1 basechar 0
AnchorPoint: "Anchor 0" 289 534 basechar 0
LayerCount: 3
Fore
SplineSet
200 -230 m 1,0,-1
 112 -258 l 1,1,-1
 108 139 l 2,2,3
 107 153 107 153 107 169 c 2,4,-1
 107 190 l 1,5,-1
 107 418 l 2,6,7
 107 432 107 432 98 445 c 0,8,9
 93 452 93 452 83 454 c 2,10,-1
 48 460 l 1,11,-1
 58 532 l 1,12,-1
 200 545 l 1,13,-1
 200 190 l 1,14,-1
 200 157 l 2,15,16
 200 131 200 131 205 115 c 0,17,18
 211 93 211 93 229 82 c 0,19,20
 245 73 245 73 280 72 c 0,21,22
 313 72 313 72 355 112 c 0,23,24
 401 155 401 155 400 216 c 2,25,-1
 400 418 l 2,26,27
 400 432 400 432 392 445 c 0,28,29
 387 452 387 452 377 454 c 2,30,-1
 341 460 l 1,31,-1
 351 532 l 1,32,-1
 493 545 l 1,33,-1
 493 119 l 2,34,35
 493 100 493 100 502 92 c 0,36,37
 508 86 508 86 528 83 c 2,38,-1
 563 77 l 1,39,-1
 551 5 l 1,40,-1
 410 -7 l 1,41,-1
 415 74 l 1,42,43
 399 43 399 43 362 20 c 0,44,45
 311 -12 311 -12 257 -12 c 0,46,47
 226 -12 226 -12 200 -5 c 1,48,-1
 200 -230 l 1,0,-1
EndSplineSet
EndChar
StartChar: paragraph
Encoding: 182 182 141
Width: 600
VWidth: 1034
Flags: W
LayerCount: 3
Fore
SplineSet
513 678 m 1,0,-1
 513 -74 l 1,1,-1
 567 -74 l 1,2,-1
 557 -152 l 1,3,-1
 233 -152 l 1,4,-1
 233 -74 l 1,5,-1
 290 -74 l 1,6,-1
 290 277 l 1,7,8
 162 277 162 277 97 339 c 0,9,10
 42 392 42 392 42 517 c 0,11,12
 42 581 42 581 56.5 618.5 c 128,-1,13
 71 656 71 656 100 684.5 c 128,-1,14
 129 713 129 713 178 734 c 128,-1,15
 227 755 227 755 314 755 c 2,16,-1
 566 755 l 1,17,-1
 556 678 l 1,18,-1
 513 678 l 1,0,-1
436 678 m 1,19,-1
 367 678 l 1,20,-1
 367 -74 l 1,21,-1
 436 -74 l 1,22,-1
 436 678 l 1,19,-1
290 355 m 5,23,24
 290 678 l 5,25,26
 214 678 214 678 171 637 c 4,27,28
 125 595 125 595 125 532 c 6,29,-1
 125 498 l 6,30,31
 125 430 125 430 174 386 c 4,32,33
 207 355 207 355 290 355 c 5,23,24
EndSplineSet
EndChar
StartChar: periodcentered
Encoding: 183 183 142
AltUni2: 002219.ffffffff.0
Width: 600
VWidth: 1034
Flags: W
LayerCount: 3
Fore
SplineSet
300 198 m 260,0,1
 274 198 274 198 254.5 217.5 c 132,-1,2
 235 237 235 237 235 263 c 260,3,4
 235 289 235 289 254.5 308 c 132,-1,5
 274 327 274 327 300 327 c 260,6,7
 326 327 326 327 345 308 c 132,-1,8
 364 289 364 289 364 263 c 260,9,10
 364 237 364 237 345 217.5 c 132,-1,11
 326 198 326 198 300 198 c 260,0,1
EndSplineSet
EndChar
StartChar: cedilla
Encoding: 184 184 143
Width: 600
VWidth: 1034
Flags: W
LayerCount: 3
Fore
SplineSet
198 -92 m 1,0,-1
 236 0 l 1,1,-1
 271 0 l 1,2,-1
 250 -53 l 1,3,-1
 283 -53 l 2,4,5
 320 -53 320 -53 343 -73 c 0,6,7
 366 -95 366 -95 366 -126 c 3,8,9
 366 -172 366 -172 328 -198 c 0,10,11
 305 -214 305 -214 251 -213 c 3,12,13
 195 -213 195 -213 151 -197 c 1,14,-1
 173 -157 l 1,15,-1
 191 -163 l 2,16,17
 213 -170 213 -170 253 -171 c 0,18,19
 316 -171 316 -171 317 -128 c 3,20,21
 317 -92 317 -92 242 -92 c 2,22,-1
 198 -92 l 1,0,-1
EndSplineSet
EndChar
StartChar: onesuperior
Encoding: 185 185 144
Width: 600
VWidth: 1034
Flags: W
LayerCount: 3
Fore
SplineSet
260 738 m 2,0,1
 282 756 282 756 288 759 c 1,2,-1
 339 753 l 1,3,-1
 339 459 l 2,4,5
 339 436 339 436 344 431 c 0,6,7
 352 424 352 424 399 420 c 2,8,-1
 433 417 l 1,9,-1
 424 368 l 5,10,-1
 180 368 l 5,11,-1
 186 416 l 1,12,-1
 241 422 l 2,13,14
 269 425 269 425 273 429 c 0,15,16
 280 436 280 436 280 459 c 2,17,-1
 280 684 l 1,18,-1
 273 679 l 2,19,20
 257 666 l 0,21,22
 227 644 227 644 221 640 c 0,23,24
 209 631 209 631 198 623 c 1,25,-1
 168 674 l 1,26,27
 191 684 191 684 200 691 c 0,28,29
 220 706 220 706 233 716 c 2,30,-1
 260 738 l 2,0,1
EndSplineSet
EndChar
StartChar: ordmasculine
Encoding: 186 186 145
Width: 600
VWidth: 1034
Flags: W
LayerCount: 3
Fore
SplineSet
300 745 m 259,0,1
 372 745 372 745 404 706 c 0,2,3
 437 666 437 666 438 581 c 3,4,5
 438 500 438 500 407 458.5 c 128,-1,6
 376 417 376 417 300 417 c 131,-1,7
 224 417 224 417 193 459 c 128,-1,8
 162 501 162 501 162 581 c 3,9,10
 162 664 162 664 195.5 704.5 c 128,-1,11
 229 745 229 745 300 745 c 259,0,1
300 696 m 259,12,13
 272 696 272 696 254 687 c 0,14,15
 237 679 237 679 229 662 c 0,16,17
 221 649 221 649 219 629 c 0,18,19
 217 603 217 603 217 581 c 259,20,21
 217 547 217 547 219 533 c 0,22,23
 221 513 221 513 229 500 c 0,24,25
 239 480 239 480 254 474 c 0,26,27
 274 465 274 465 297 464 c 3,28,29
 325 464 325 464 346 474 c 0,30,31
 363 481 363 481 371 500 c 0,32,33
 379 514 379 514 381 533 c 0,34,35
 383 559 383 559 383 581 c 259,36,37
 383 607 383 607 380.5 628 c 128,-1,38
 378 649 378 649 371 662 c 0,39,40
 363 679 363 679 346 687 c 0,41,42
 327 696 327 696 300 696 c 259,12,13
159 368 m 1,43,-1
 441 368 l 1,44,-1
 441 329 l 1,45,-1
 159 329 l 1,46,-1
 159 368 l 1,43,-1
EndSplineSet
EndChar
StartChar: guillemotright
Encoding: 187 187 146
Width: 600
VWidth: 1034
Flags: W
LayerCount: 3
Fore
SplineSet
289 232 m 1,0,-1
 157 32 l 1,1,-1
 94 60 l 1,2,-1
 223 257 l 1,3,-1
 94 453 l 1,4,-1
 157 481 l 1,5,-1
 289 281 l 1,6,-1
 289 232 l 1,0,-1
506 232 m 1,7,-1
 374 32 l 1,8,-1
 311 60 l 1,9,-1
 441 257 l 1,10,-1
 311 453 l 1,11,-1
 374 481 l 1,12,-1
 506 281 l 1,13,-1
 506 232 l 1,7,-1
EndSplineSet
EndChar
StartChar: onequarter
Encoding: 188 188 147
Width: 600
VWidth: 1034
Flags: W
LayerCount: 3
Fore
SplineSet
162 764 m 1,0,-1
 209 759 l 1,1,-1
 209 494 l 2,2,3
 209 473 209 473 213 470 c 0,4,5
 223 461 223 461 235 459 c 2,6,-1
 266 456 l 1,7,-1
 258 413 l 5,8,-1
 93 413 l 5,9,-1
 99 455 l 1,10,-1
 120 458 l 2,11,12
 143 461 143 461 149.5 467.5 c 128,-1,13
 156 474 156 474 156 494 c 2,14,-1
 156 706 l 1,15,-1
 102 669 l 1,16,-1
 76 707 l 1,17,18
 120 730 120 730 162 764 c 1,0,-1
456 140 m 1,19,-1
 456 280 l 1,20,-1
 363 140 l 1,21,-1
 456 140 l 1,19,-1
456 19 m 2,22,-1
 456 96 l 1,23,-1
 317 96 l 1,24,-1
 302 132 l 1,25,26
 355 197 355 197 400 266 c 0,27,28
 423 299 423 299 447 347 c 1,29,-1
 509 341 l 1,30,-1
 509 140 l 1,31,-1
 564 140 l 1,32,-1
 559 96 l 1,33,-1
 509 96 l 1,34,-1
 509 19 l 2,35,-1
 509 0 l 1,36,37
 483 0 483 0 456 0 c 1,38,-1
 456 19 l 2,22,-1
126 -18 m 1,39,-1
 567 746 l 1,40,-1
 506 760 l 1,41,-1
 66 -1 l 1,42,-1
 126 -18 l 1,39,-1
EndSplineSet
EndChar
StartChar: onehalf
Encoding: 189 189 148
Width: 600
VWidth: 1034
Flags: W
LayerCount: 3
Fore
SplineSet
337 0 m 25,0,-1
 329 44 l 1,1,-1
 382 95 l 1,2,-1
 430 146 l 2,3,4
 455 172 455 172 478 203 c 0,5,6
 498 231 498 231 498 250 c 0,7,8
 498 273 498 273 486 286 c 0,9,10
 474 299 474 299 439 299 c 3,11,12
 410 299 410 299 393 280 c 0,13,14
 384 270 384 270 380 246 c 1,15,-1
 329 259 l 17,16,-1
 330 262 l 2,17,18
 343 301 343 301 356 318 c 0,19,20
 382 350 382 350 442 350 c 0,21,22
 485 350 485 350 516 331 c 0,23,24
 549 311 549 311 550 263 c 0,25,26
 550 224 550 224 535 199 c 0,27,28
 514 164 514 164 482 132 c 0,29,30
 454 103 l 2,31,-1
 400 51 l 1,32,-1
 561 51 l 5,33,-1
 549 0 l 9,34,-1
 337 0 l 25,0,-1
162 764 m 1,35,-1
 209 759 l 1,36,-1
 209 494 l 2,37,38
 209 473 209 473 213 470 c 0,39,40
 223 461 223 461 235 459 c 2,41,-1
 266 456 l 1,42,-1
 258 413 l 1,43,-1
 93 413 l 1,44,-1
 99 455 l 1,45,-1
 120 458 l 2,46,47
 143 461 143 461 149.5 467.5 c 128,-1,48
 156 474 156 474 156 494 c 2,49,-1
 156 706 l 1,50,-1
 102 669 l 1,51,-1
 76 707 l 1,52,53
 120 730 120 730 162 764 c 1,35,-1
126 -18 m 1,54,-1
 66 -1 l 1,55,-1
 506 760 l 1,56,-1
 567 746 l 1,57,-1
 126 -18 l 1,54,-1
EndSplineSet
EndChar
StartChar: threequarters
Encoding: 190 190 149
Width: 600
VWidth: 1034
Flags: W
LayerCount: 3
Fore
SplineSet
73 684 m 17,0,1
 80 723 80 723 103 741 c 0,2,3
 132 764 132 764 184 763 c 3,4,5
 233 763 233 763 263 743 c 0,6,7
 292 722 292 722 293 678 c 0,8,9
 293 649 293 649 276 629 c 0,10,11
 259 610 259 610 232 602 c 1,12,-1
 232 600 l 1,13,14
 266 594 266 594 284 570 c 128,-1,15
 302 546 302 546 302 512 c 3,16,17
 302 485 302 485 293 463 c 0,18,19
 283 442 283 442 265.5 431.5 c 128,-1,20
 248 421 248 421 227 416 c 0,21,22
 204 412 204 412 183 412 c 3,23,24
 131 412 131 412 104 436 c 0,25,26
 80 457 80 457 70 499 c 1,27,-1
 118 510 l 9,28,-1
 122 499 l 2,29,30
 127 481 127 481 145 470 c 0,31,32
 158 461 158 461 183 459 c 0,33,34
 223 459 223 459 238 475 c 0,35,36
 250 488 250 488 249 511 c 0,37,38
 249 541 249 541 230 558 c 0,39,40
 216 569 216 569 176 572 c 2,41,-1
 153 573 l 1,42,-1
 153 620 l 1,43,-1
 176 621 l 2,44,45
 210 624 210 624 224 637 c 128,-1,46
 238 650 238 650 238 668 c 0,47,48
 238 669 238 669 238 670 c 0,49,50
 238 684 238 684 230 696 c 0,51,52
 218 714 218 714 182 714 c 3,53,54
 151 714 151 714 138 700 c 0,55,56
 133 694 133 694 126 680 c 2,57,-1
 122 670 l 25,58,-1
 73 684 l 17,0,1
456 140 m 1,59,-1
 456 280 l 1,60,-1
 363 140 l 1,61,-1
 456 140 l 1,59,-1
456 19 m 2,62,-1
 456 96 l 1,63,-1
 317 96 l 1,64,-1
 302 132 l 1,65,66
 355 197 355 197 400 266 c 0,67,68
 423 299 423 299 447 347 c 1,69,-1
 509 341 l 1,70,-1
 509 140 l 1,71,-1
 564 140 l 1,72,-1
 559 96 l 1,73,-1
 509 96 l 1,74,-1
 509 19 l 2,75,-1
 509 0 l 1,76,77
 483 0 483 0 456 0 c 1,78,-1
 456 19 l 2,62,-1
126 -18 m 5,79,-1
 66 -1 l 5,80,-1
 506 760 l 5,81,-1
 567 746 l 5,82,-1
 126 -18 l 5,79,-1
EndSplineSet
EndChar
StartChar: questiondown
Encoding: 191 191 150
Width: 600
VWidth: 1034
Flags: W
LayerCount: 3
Fore
SplineSet
334 427 m 6,0,-1
 277 419 l 6,1,2
 268 418 268 418 259.5 426 c 132,-1,3
 251 434 251 434 251 445 c 6,4,-1
 251 509 l 6,5,6
 251 519 251 519 260 528 c 4,7,8
 265 533 265 533 277 535 c 6,9,-1
 334 543 l 6,10,11
 343 544 343 544 351.5 536 c 132,-1,12
 360 528 360 528 360 517 c 6,13,-1
 360 453 l 6,14,15
 360 443 360 443 352 434 c 4,16,17
 346 429 346 429 334 427 c 6,0,-1
413 -40 m 13,18,19
 501 -61 l 21,20,21
 494 -145 494 -145 443 -184 c 4,22,23
 395 -221 395 -221 293 -221 c 7,24,25
 194 -221 194 -221 149 -184 c 4,26,27
 99 -143 99 -143 99 -43 c 7,28,29
 99 69 99 69 134 117 c 4,30,31
 161 154 161 154 259 176 c 5,32,-1
 259 328 l 29,33,-1
 352 346 l 29,34,-1
 352 117 l 5,35,-1
 339 115 l 6,36,37
 247 99 247 99 219 80 c 4,38,39
 188 59 188 59 188 -39 c 4,40,41
 188 -83 188 -83 205 -108 c 4,42,43
 227 -139 227 -139 298 -139 c 7,44,45
 354 -139 354 -139 381 -119 c 4,46,47
 402 -103 402 -103 413 -40 c 13,18,19
EndSplineSet
EndChar
StartChar: AE
Encoding: 198 198 157
Width: 600
VWidth: 1034
Flags: W
AnchorPoint: "Anchor 2" 309 1 basechar 0
AnchorPoint: "Anchor 0" 310 734 basechar 0
LayerCount: 3
Fore
SplineSet
590 0 m 5,0,-1
 311 0 l 5,1,-1
 311 231 l 5,2,-1
 151 231 l 5,3,-1
 87 0 l 5,4,-1
 -5 0 l 5,5,-1
 214 755 l 5,6,-1
 381 755 l 5,7,-1
 591 755 l 5,8,-1
 575 669 l 5,9,-1
 404 669 l 5,10,-1
 404 439 l 5,11,-1
 553 439 l 5,12,-1
 541 353 l 5,13,-1
 404 353 l 5,14,-1
 404 86 l 5,15,-1
 605 86 l 5,16,-1
 590 0 l 5,0,-1
311 671 m 5,17,-1
 272 671 l 5,18,-1
 219 474 l 5,19,-1
 172 303 l 5,20,-1
 311 303 l 5,21,-1
 311 639 l 6,22,23
 311 655 311 655 311 671 c 5,17,-1
EndSplineSet
EndChar
StartChar: Eth
Encoding: 208 208 167
Width: 600
VWidth: 1034
Flags: W
AnchorPoint: "Anchor 0" 275 738 basechar 0
LayerCount: 3
Fore
SplineSet
289 -8 m 0,0,1
 242 -8 242 -8 222 -7 c 2,2,-1
 85 0 l 1,3,-1
 85 360 l 1,4,-1
 16 360 l 1,5,-1
 16 426 l 1,6,-1
 85 426 l 1,7,-1
 85 637 l 2,8,9
 85 655 85 655 80 660 c 0,10,11
 73 667 73 667 54 667 c 2,12,-1
 38 667 l 1,13,-1
 57 751 l 1,14,-1
 206 759 l 1,15,-1
 289 762 l 2,16,17
 370 762 370 762 412 742.5 c 128,-1,18
 454 723 454 723 482 676 c 0,19,20
 513 621 513 621 524 557 c 0,21,22
 538 481 538 481 539 378 c 0,23,24
 539 268 539 268 524 199 c 0,25,26
 508 129 508 129 483 84 c 0,27,28
 460 46 460 46 412 20 c 0,29,30
 358 -8 358 -8 289 -8 c 0,0,1
280 78 m 0,31,32
 327 78 327 78 370 98 c 0,33,34
 405 116 405 116 420 158 c 0,35,36
 441 218 441 218 444 258 c 0,37,38
 449 315 449 315 449 377 c 128,-1,39
 449 439 449 439 444 496 c 0,40,41
 440 533 440 533 420 596 c 0,42,43
 408 635 408 635 374 657 c 0,44,45
 344 677 344 677 288 677 c 0,46,47
 259 677 259 677 227 674 c 2,48,-1
 178 671 l 1,49,-1
 178 426 l 1,50,-1
 305 426 l 1,51,-1
 295 360 l 1,52,-1
 178 360 l 1,53,-1
 178 84 l 1,54,-1
 233 80 l 2,55,56
 259 78 259 78 280 78 c 0,31,32
EndSplineSet
EndChar
StartChar: multiply
Encoding: 215 215 174
Width: 600
VWidth: 1034
Flags: W
LayerCount: 3
Fore
SplineSet
233 314 m 1,0,-1
 100 447 l 1,1,-1
 167 512 l 1,2,-1
 299 380 l 1,3,-1
 432 513 l 1,4,-1
 498 447 l 1,5,-1
 365 314 l 1,6,-1
 500 179 l 1,7,-1
 433 114 l 1,8,-1
 299 248 l 1,9,-1
 166 115 l 1,10,-1
 100 181 l 1,11,-1
 233 314 l 1,0,-1
EndSplineSet
EndChar
StartChar: Oslash
Encoding: 216 216 175
Width: 600
VWidth: 1034
Flags: W
LayerCount: 3
Fore
SplineSet
108 -12 m 5,0,-1
 62 10 l 5,1,-1
 490 771 l 5,2,-1
 538 748 l 5,3,-1
 108 -12 l 5,0,-1
EndSplineSet
Refer: 48 79 N 1 0 0 1 0 0 2
EndChar
StartChar: Thorn
Encoding: 222 222 181
Width: 600
VWidth: 1034
Flags: W
AnchorPoint: "Anchor 0" 289 603 basechar 0
LayerCount: 3
Fore
SplineSet
178 197 m 1,0,-1
 176 0 l 1,1,-1
 85 0 l 1,2,-1
 85 617 l 1,3,-1
 85 755 l 1,4,-1
 178 766 l 1,5,-1
 178 623 l 1,6,-1
 206 625 l 2,7,8
 236 627 236 627 290 627 c 0,9,10
 411 626 411 626 460 602 c 0,11,12
 538 565 538 565 538 397 c 0,13,14
 538 268 538 268 427 211 c 0,15,16
 385 190 385 190 301 190 c 3,17,18
 240 191 240 191 178 197 c 1,0,-1
178 535 m 1,19,-1
 178 283 l 1,20,-1
 254 280 l 2,21,22
 280 279 280 279 292 279 c 0,23,24
 399 279 399 279 422 317 c 0,25,26
 447 356 447 356 447 400 c 0,27,28
 446 494 446 494 422 517 c 128,-1,29
 398 540 398 540 312 540 c 0,30,31
 258 540 258 540 227 538 c 2,32,-1
 178 535 l 1,19,-1
EndSplineSet
EndChar
StartChar: germandbls
Encoding: 223 223 182
Width: 600
VWidth: 1034
Flags: W
LayerCount: 3
Fore
SplineSet
163 0 m 25,0,-1
 70 0 l 25,1,-1
 70 511 l 2,2,3
 70 641 70 641 149 713 c 0,4,5
 202 762 202 762 297 761 c 11,6,7
 382 761 382 761 428 737 c 0,8,9
 506 698 506 698 506 576 c 3,10,11
 506 504 506 504 466.5 459.5 c 128,-1,12
 427 415 427 415 385 404 c 1,13,-1
 385 402 l 1,14,15
 538 381 538 381 538 212 c 0,16,17
 538 154 538 154 519 110 c 0,18,19
 499 66 499 66 464 41 c 24,20,21
 423 13 423 13 372 2 c 0,22,23
 335 -6 335 -6 193 -6 c 1,24,-1
 204 78 l 1,25,26
 372 78 372 78 414 115 c 0,27,28
 449 146 449 146 449 211 c 0,29,30
 449 291 449 291 392 321 c 0,31,32
 333 351 333 351 221 351 c 9,33,-1
 232 439 l 17,34,35
 309 439 309 439 362.5 475 c 128,-1,36
 416 511 416 511 416 567 c 3,37,38
 416 635 416 635 374 660 c 0,39,40
 345 678 345 678 302 678 c 3,41,42
 240 678 240 678 210 649 c 0,43,44
 163 606 163 606 163 530 c 2,45,-1
 163 0 l 25,0,-1
EndSplineSet
EndChar
StartChar: ae
Encoding: 230 230 189
Width: 600
VWidth: 1034
Flags: W
AnchorPoint: "Anchor 0" 300 522 basechar 0
LayerCount: 3
Fore
SplineSet
180 59 m 0,0,1
 196 59 196 59 216 69 c 0,2,3
 256 91 256 91 257 156 c 2,4,5
 257 242 l 1,6,-1
 221 242 l 2,7,8
 191 242 191 242 166 241 c 0,9,10
 113 240 113 240 97 214 c 0,11,12
 83 189 83 189 83 154 c 0,13,14
 83 108 83 108 104 82 c 0,15,16
 124 59 124 59 180 59 c 0,0,1
256 522 m 0,17,18
 276 509 276 509 287 492 c 0,19,-1
 299 475 l 1,20,-1
 312 491 l 0,21,22
 329 511 329 511 348 522 c 0,23,24
 378 540 378 540 431 540 c 3,25,26
 534 540 534 540 572 481 c 0,27,28
 595 446 595 446 600 395 c 0,29,30
 605 346 605 346 605 243 c 1,31,-1
 347 243 l 1,32,-1
 347 156 l 2,33,34
 347 104 347 104 378 74 c 0,35,36
 395 58 395 58 442 59 c 3,37,38
 467 59 467 59 487 80 c 0,39,40
 505 98 505 98 512 129 c 1,41,-1
 592 106 l 1,42,43
 581 65 581 65 560 34 c 0,44,45
 527 -12 527 -12 442 -11 c 3,46,47
 366 -11 366 -11 336 11 c 0,48,49
 309 33 309 33 298 57 c 1,50,-1
 275 28 l 2,51,52
 243 -12 243 -12 164 -12 c 3,53,54
 63 -12 63 -12 26 36 c 0,55,56
 -6 79 -6 79 -5 156 c 0,57,58
 -5 215 -5 215 21 258 c 0,59,60
 44 295 44 295 89 306 c 0,61,62
 123 314 123 314 179 314 c 2,63,-1
 258 314 l 1,64,65
 256 397 256 397 237 433 c 0,66,67
 218 467 218 467 164 467.5 c 131,-1,68
 110 468 110 468 91 420 c 1,69,-1
 12 448 l 1,70,71
 17 472 17 472 47 505 c 0,72,73
 78 542 78 542 161 542 c 3,74,75
 227 542 227 542 256 522 c 0,17,18
347 313 m 1,76,-1
 520 313 l 1,77,78
 520 395 520 395 504 430 c 0,79,80
 486 467 486 467 433 468 c 3,81,82
 383 468 383 468 363 424 c 0,83,84
 349 393 349 393 347 313 c 1,76,-1
EndSplineSet
EndChar
StartChar: eth
Encoding: 240 240 199
Width: 600
VWidth: 1034
Flags: W
LayerCount: 3
Fore
SplineSet
300 416 m 0,0,1
 252 416 252 416 222 402 c 0,2,3
 195 390 195 390 179 364 c 0,4,5
 166 343 166 343 162 312 c 0,6,7
 158 272 158 272 158 241 c 0,8,9
 158 188 158 188 161 167 c 0,10,11
 165 138 165 138 179 116 c 0,12,13
 197 87 197 87 222 76 c 0,14,15
 255 62 255 62 295 61 c 0,16,17
 344 61 344 61 378 77 c 0,18,19
 405 88 405 88 421 115 c 0,20,21
 434 136 434 136 438 167 c 0,22,23
 442 207 442 207 442 241 c 0,24,25
 442 282 442 282 437.5 312.5 c 128,-1,26
 433 343 433 343 421 364 c 0,27,28
 407 388 407 388 378 402 c 0,29,30
 347 416 347 416 300 416 c 0,0,1
116 560 m 1,31,-1
 115 620 l 1,32,-1
 228 658 l 1,33,-1
 159 739 l 1,34,-1
 246 766 l 1,35,36
 270 738 270 738 310 688 c 1,37,-1
 445 736 l 1,38,-1
 446 676 l 1,39,-1
 349 641 l 1,40,41
 393 587 393 587 403 575 c 0,42,43
 495 467 495 467 519 385 c 0,44,45
 535 329 535 329 535 238 c 0,46,47
 535 116 535 116 481 53 c 0,48,49
 428 -10 428 -10 300 -10 c 0,50,51
 173 -10 173 -10 119 53 c 128,-1,52
 65 116 65 116 65 241 c 0,53,54
 65 368 65 368 122 428.5 c 128,-1,55
 179 489 179 489 300 489 c 0,56,57
 352 489 352 489 384 475 c 1,58,59
 388 478 l 1,60,-1
 266 612 l 1,61,-1
 116 560 l 1,31,-1
EndSplineSet
Layer: 2
SplineSet
287.5859375 456.20703125 m 260
 320 456.20703125 345.862304688 450.344726562 365.172851562 438.62109375 c 132
 384.482421875 426.896484375 398.79296875 411.034179688 408.103515625 391.034179688 c 132
 417.4140625 371.034179688 423.275390625 349.310546875 425.689453125 325.862304688 c 132
 428.103515625 302.4140625 429.310546875 274.137695312 429.310546875 241.034179688 c 260
 429.310546875 207.930664062 428.103515625 179.482421875 425.689453125 155.689453125 c 132
 423.275390625 131.896484375 417.5859375 110.172851562 408.62109375 90.517578125 c 132
 399.655273438 70.8623046875 385.344726562 55 365.689453125 42.9306640625 c 132
 346.034179688 30.8623046875 320 24.8271484375 287.5859375 24.8271484375 c 260
 255.172851562 24.8271484375 229.310546875 30.8623046875 210 42.9306640625 c 132
 190.689453125 55 176.37890625 71.0341796875 167.069335938 91.0341796875 c 132
 157.758789062 111.034179688 151.896484375 132.758789062 149.482421875 156.20703125 c 132
 147.069335938 179.655273438 145.862304688 207.930664062 145.862304688 241.034179688 c 260
 145.862304688 274.137695312 147.069335938 302.4140625 149.482421875 325.862304688 c 132
 151.896484375 349.310546875 157.758789062 370.862304688 167.069335938 390.517578125 c 132
 176.37890625 410.172851562 190.689453125 426.034179688 210 438.103515625 c 132
 229.310546875 450.172851562 255.172851562 456.20703125 287.5859375 456.20703125 c 260
472.758789062 766.551757812 m 5
 339.310546875 697.241210938 l 5
 310.344726562 717.930664062 280.172851562 734.482421875 248.79296875 746.896484375 c 132
 217.4140625 759.310546875 187.5859375 767.241210938 159.310546875 770.689453125 c 5
 125.172851562 748.965820312 l 5
 147.930664062 745.517578125 173.448242188 736.551757812 201.724609375 722.069335938 c 132
 230 707.5859375 257.241210938 689.655273438 283.448242188 668.275390625 c 5
 115.862304688 581.37890625 l 5
 151.034179688 549.310546875 l 5
 316.551757812 635.172851562 l 5
 363.448242188 583.448242188 392.758789062 525.862304688 404.482421875 462.4140625 c 5
 370 481.724609375 331.034179688 491.37890625 287.5859375 491.37890625 c 4
 206.896484375 491.37890625 147.5859375 471.034179688 109.655273438 430.344726562 c 132
 71.724609375 389.655273438 52.7587890625 326.551757812 52.7587890625 241.034179688 c 4
 52.7587890625 158.275390625 70.517578125 95.8623046875 106.034179688 53.79296875 c 132
 141.551757812 11.724609375 202.069335938 -9.6552734375 287.5859375 -10.3447265625 c 4
 329.655273438 -10.3447265625 365.862304688 -3.103515625 396.20703125 11.37890625 c 132
 426.551757812 25.8623046875 451.034179688 46.5517578125 469.655273438 73.4482421875 c 132
 488.275390625 100.344726562 501.724609375 131.896484375 510 168.103515625 c 132
 518.275390625 204.310546875 522.4140625 244.827148438 522.4140625 289.655273438 c 4
 522.4140625 374.482421875 509.310546875 448.103515625 483.103515625 510.517578125 c 132
 456.896484375 572.930664062 421.37890625 624.827148438 376.551757812 666.20703125 c 5
 510 735.517578125 l 5
 472.758789062 766.551757812 l 5
EndSplineSet
EndChar
StartChar: divide
Encoding: 247 247 206
Width: 600
VWidth: 1034
Flags: W
LayerCount: 3
Fore
SplineSet
507 277 m 5,0,-1
 517 366 l 1,1,-1
 83 366 l 1,2,-1
 83 277 l 5,3,-1
 507 277 l 5,0,-1
299 442 m 256,4,5
 322 442 322 442 338 458.5 c 128,-1,6
 354 475 354 475 354 497 c 0,7,8
 354 520 354 520 338 536 c 128,-1,9
 322 552 322 552 299 552 c 256,10,11
 276 552 276 552 260 535.5 c 128,-1,12
 244 519 244 519 244 497 c 0,13,14
 244 475 244 475 260 458.5 c 128,-1,15
 276 442 276 442 299 442 c 256,4,5
299 95 m 256,16,17
 322 95 322 95 338 111.5 c 128,-1,18
 354 128 354 128 354 150 c 0,19,20
 354 173 354 173 338 189.5 c 128,-1,21
 322 206 322 206 299 206 c 256,22,23
 276 206 276 206 260 189.5 c 128,-1,24
 244 173 244 173 244 150 c 0,25,26
 244 128 244 128 260 111.5 c 128,-1,27
 276 95 276 95 299 95 c 256,16,17
EndSplineSet
EndChar
StartChar: oslash
Encoding: 248 248 207
Width: 600
VWidth: 1034
Flags: W
AnchorPoint: "Anchor 2" 294 -2 basechar 0
AnchorPoint: "Anchor 1" 331 529 basechar 0
AnchorPoint: "Anchor 0" 300 530 basechar 0
LayerCount: 3
Fore
SplineSet
108 -12 m 1,0,-1
 72 10 l 1,1,-1
 490 543 l 1,2,-1
 528 520 l 1,3,-1
 108 -12 l 1,0,-1
EndSplineSet
Refer: 80 111 N 1 0 0 1 0 0 2
EndChar
StartChar: thorn
Encoding: 254 254 213
Width: 600
VWidth: 1034
Flags: W
LayerCount: 3
Fore
SplineSet
112 -144 m 18,0,1
 112 641 l 10,2,3
 112 663 112 663 102 672 c 0,4,5
 99 675 99 675 68 682 c 2,6,-1
 41 687 l 1,7,-1
 52 759 l 1,8,-1
 205 768 l 5,9,-1
 205 552 l 5,10,-1
 201 469 l 1,11,12
 222 508 222 508 252 523 c 0,13,14
 293 544 293 544 333 544 c 3,15,16
 424 544 424 544 480 480 c 0,17,18
 544 406 544 406 544 293 c 3,19,20
 544 126 544 126 490 52 c 0,21,22
 446 -9 446 -9 325 -9 c 0,23,24
 241 -9 241 -9 205 4 c 1,25,-1
 207 -132 l 10,26,27
 207 -151 207 -151 215 -159 c 24,28,29
 223 -167 223 -167 241 -169 c 26,30,-1
 319 -173 l 25,31,-1
 306 -244 l 25,32,-1
 61 -254 l 25,33,-1
 49 -189 l 25,34,-1
 85 -179 l 26,35,36
 99 -175 99 -175 103 -170 c 24,37,38
 112 -160 112 -160 112 -144 c 18,0,1
205 97 m 17,39,40
 247 73 247 73 326 73 c 0,41,42
 367 73 367 73 389 88 c 0,43,44
 435 118 435 118 445 174 c 0,45,46
 452 215 452 215 452 293 c 3,47,48
 452 381 452 381 414 423 c 0,49,50
 379 461 379 461 327 461 c 3,51,52
 290 461 290 461 259 433 c 0,53,54
 205 386 205 386 205 343 c 2,55,-1
 205 97 l 17,39,40
EndSplineSet
EndChar
StartChar: dcroat
Encoding: 273 273 373
Width: 600
VWidth: 1034
Flags: W
AnchorPoint: "Anchor 0" 420 748 basechar 0
LayerCount: 3
Fore
SplineSet
398 440 m 1,0,1
 356 464 356 464 292 463 c 0,2,3
 233 463 233 463 212 449 c 0,4,5
 173 420 173 420 162 369 c 0,6,7
 156 338 156 338 156 283 c 0,8,9
 156 245 156 245 167 173 c 0,10,11
 171 144 171 144 185.5 120 c 128,-1,12
 200 96 200 96 230 82 c 0,13,14
 264 66 264 66 287 66 c 0,15,16
 317 66 317 66 331 71 c 0,17,18
 398 93 398 93 398 149 c 2,19,-1
 398 440 l 1,0,1
491 110 m 2,20,21
 491 89 491 89 501 79 c 0,22,23
 506 74 506 74 527 69 c 2,24,-1
 553 64 l 1,25,-1
 543 2 l 1,26,-1
 413 -6 l 1,27,-1
 413 37 l 1,28,29
 390 8 390 8 347 -1 c 0,30,31
 308 -10 308 -10 278 -10 c 2,32,-1
 270 -10 l 2,33,34
 179 -10 179 -10 123 54 c 0,35,36
 63 123 63 123 63 291 c 0,37,38
 63 417 63 417 112 480 c 0,39,40
 160 541 160 541 278 541 c 0,41,42
 357 541 357 541 398 526 c 1,43,-1
 398 590 l 1,44,-1
 233 590 l 5,45,-1
 242 641 l 5,46,-1
 398 641 l 1,47,-1
 398 654 l 2,48,49
 398 672 398 672 389 682 c 0,50,51
 384 688 384 688 363 691 c 2,52,-1
 328 696 l 1,53,-1
 338 756 l 1,54,-1
 491 764 l 1,55,-1
 491 641 l 1,56,-1
 550 641 l 1,57,-1
 541 590 l 1,58,-1
 491 590 l 1,59,-1
 491 110 l 2,20,21
EndSplineSet
EndChar
StartChar: Hbar
Encoding: 294 294 374
Width: 600
VWidth: 1034
Flags: W
LayerCount: 3
Fore
SplineSet
17 614 m 5,0,-1
 587 614 l 5,1,-1
 576 532 l 5,2,-1
 17 532 l 5,3,-1
 17 614 l 5,0,-1
EndSplineSet
Refer: 41 72 N 1 0 0 1 0 0 3
EndChar
StartChar: hbar
Encoding: 295 295 375
Width: 600
VWidth: 1034
Flags: W
LayerCount: 3
Fore
SplineSet
34 630 m 1,0,-1
 342 630 l 1,1,-1
 335 578 l 1,2,-1
 27 578 l 1,3,-1
 34 630 l 1,0,-1
EndSplineSet
Refer: 73 104 N 1 0 0 1 0 0 3
EndChar
StartChar: dotlessi
Encoding: 305 305 243
Width: 600
VWidth: 1034
Flags: W
AnchorPoint: "Anchor 0" 291 524 basechar 0
LayerCount: 3
Fore
SplineSet
510 102 m 1,0,-1
 536 30 l 1,1,-1
 478 9 l 0,2,3
 412 -9 412 -9 355 -8.5 c 128,-1,4
 298 -8 298 -8 273 17.5 c 152,-1,5
 248 43 248 43 248 106 c 2,6,-1
 248 418 l 10,7,8
 248 437 248 437 240 445 c 152,-1,9
 232 453 232 453 214 454 c 26,10,-1
 64 461 l 25,11,-1
 77 532 l 17,12,-1
 341 545 l 1,13,-1
 341 126 l 2,14,15
 341 92 341 92 355 86 c 0,16,17
 375 76 375 76 393 76 c 3,18,19
 436 76 436 76 484 93 c 0,20,-1
 510 102 l 1,0,-1
EndSplineSet
EndChar
StartChar: Lslash
Encoding: 321 321 378
Width: 600
VWidth: 1034
Flags: W
LayerCount: 3
Fore
SplineSet
14 226 m 5,0,-1
 14 306 l 5,1,-1
 379 530 l 5,2,-1
 379 449 l 5,3,-1
 14 226 l 5,0,-1
EndSplineSet
Refer: 45 76 N 1 0 0 1 0 0 2
EndChar
StartChar: lslash
Encoding: 322 322 379
Width: 600
VWidth: 1034
Flags: W
LayerCount: 3
Fore
SplineSet
118 226 m 5,0,-1
 118 306 l 5,1,-1
 482 530 l 5,2,-1
 482 449 l 5,3,-1
 118 226 l 5,0,-1
EndSplineSet
Refer: 77 108 N 1 0 0 1 0 0 3
EndChar
StartChar: Eng
Encoding: 330 330 382
Width: 600
VWidth: 1034
Flags: W
LayerCount: 3
Fore
SplineSet
389 -145 m 8,0,1
 426 -117 426 -117 433 -71 c 16,2,3
 435 -58 435 -58 436 -46 c 0,4,5
 436 -11 436 -11 419 26 c 2,6,-1
 160 590 l 1,7,-1
 160 0 l 25,8,-1
 67 0 l 25,9,-1
 67 751 l 9,10,-1
 175 766 l 1,11,-1
 439 187 l 1,12,-1
 439 755 l 1,13,-1
 532 755 l 1,14,-1
 532 0 l 2,15,16
 532 -33 532 -33 526 -71 c 0,17,18
 506 -190 506 -190 420 -229 c 0,19,20
 385 -245 385 -245 320 -244 c 2,21,-1
 301 -244 l 1,22,-1
 268 -244 l 1,23,-1
 279 -160 l 1,24,-1
 312 -160 l 2,25,26
 368 -161 368 -161 389 -145 c 8,0,1
EndSplineSet
EndChar
StartChar: eng
Encoding: 331 331 381
Width: 600
VWidth: 1034
Flags: W
LayerCount: 3
Fore
SplineSet
275 -244 m 6,0,-1
 257 -244 l 5,1,-1
 223 -244 l 5,2,-1
 235 -160 l 5,3,-1
 268 -160 l 6,4,5
 293 -160 293 -160 313 -157 c 4,6,7
 394 -143 394 -143 394 0 c 6,8,-1
 394 377 l 2,9,10
 394 418 394 418 383.5 432.5 c 128,-1,11
 373 447 373 447 366 452 c 0,12,13
 347 463 347 463 328 463 c 0,14,15
 290 463 290 463 249 422 c 0,16,17
 203 376 203 376 204 318 c 2,18,-1
 204 0 l 1,19,-1
 111 0 l 1,20,-1
 111 415 l 2,21,22
 111 441 111 441 93 447 c 0,23,24
 88 449 88 449 77 451 c 2,25,-1
 41 457 l 1,26,-1
 53 529 l 1,27,-1
 194 544 l 1,28,-1
 189 459 l 1,29,30
 205 490 205 490 236 510 c 0,31,32
 292 546 292 546 342 546 c 0,33,34
 406 546 406 546 448 511 c 0,35,36
 475 488 475 488 481 449 c 128,-1,37
 487 410 487 410 487 365 c 2,38,-1
 487 34 l 6,39,40
 487 -33 487 -33 481 -71 c 4,41,42
 463 -191 463 -191 376 -229 c 4,43,44
 340 -244 340 -244 275 -244 c 6,0,-1
EndSplineSet
EndChar
StartChar: OE
Encoding: 338 338 106
Width: 600
VWidth: 1034
Flags: W
LayerCount: 3
Fore
SplineSet
582 0 m 1,0,-1
 457 0 l 1,1,-1
 307 0 l 1,2,3
 307 52 l 1,4,5
 302 53 l 1,6,7
 267 -11 267 -11 198 -11 c 3,8,9
 161 -11 161 -11 123 6 c 0,10,11
 79 28 79 28 53 78 c 0,12,13
 29 126 29 126 16.5 199 c 128,-1,14
 4 272 4 272 4 377.5 c 128,-1,15
 4 483 4 483 17 551 c 0,16,17
 30 623 30 623 56 666 c 0,18,19
 93 725 93 725 128 741 c 0,20,21
 165 757 165 757 201 756 c 3,22,23
 272 756 272 756 302 693 c 1,24,-1
 307 693 l 1,25,-1
 307 755 l 1,26,-1
 583 755 l 1,27,-1
 568 669 l 1,28,-1
 398 669 l 1,29,-1
 398 439 l 1,30,-1
 546 439 l 1,31,-1
 534 353 l 1,32,-1
 398 353 l 1,33,-1
 398 86 l 1,34,-1
 598 86 l 1,35,-1
 582 0 l 1,0,-1
287 117 m 24,36,37
 306 158 306 158 305 244 c 2,38,-1
 305 494 l 2,39,40
 305 520 305 520 304 523 c 0,41,42
 297 679 297 679 211 680 c 0,43,44
 183 680 183 680 161 665 c 0,45,46
 134 646 134 646 119 593.5 c 128,-1,47
 104 541 104 541 101 496 c 0,48,49
 97 444 97 444 97 378 c 0,50,51
 97 321 97 321 101 260 c 0,52,53
 104 212 104 212 117 166 c 0,54,55
 134 107 134 107 158 86 c 0,56,57
 185 65 185 65 214 65 c 3,58,59
 264 65 264 65 287 117 c 24,36,37
EndSplineSet
EndChar
StartChar: oe
Encoding: 339 339 118
Width: 600
VWidth: 1034
Flags: W
LayerCount: 3
Fore
SplineSet
161 -10 m 3,0,1
 90 -10 90 -10 50 34 c 0,2,3
 2 85 2 85 2 265 c 3,4,5
 2 434 2 434 46 487 c 0,6,7
 90 542 90 542 161 542 c 256,8,9
 228 542 228 542 256 524 c 0,10,11
 279 510 279 510 289 493 c 0,12,-1
 299 477 l 1,13,-1
 310 493 l 0,14,15
 324 511 324 511 348 524 c 0,16,17
 374 540 374 540 431 540 c 3,18,19
 529 540 529 540 567 481 c 0,20,21
 590 446 590 446 595 395 c 0,22,23
 600 346 600 346 600 243 c 1,24,-1
 347 243 l 1,25,-1
 347 156 l 2,26,27
 347 104 347 104 378 74 c 0,28,29
 395 58 395 58 442 59 c 3,30,31
 467 59 467 59 487 80 c 0,32,33
 505 98 505 98 512 129 c 1,34,-1
 587 106 l 1,35,36
 576 65 576 65 554 34 c 0,37,38
 523 -12 523 -12 442 -11 c 3,39,40
 366 -11 366 -11 336 11 c 0,41,42
 309 33 309 33 298 57 c 1,43,-1
 275 28 l 2,44,45
 245 -10 245 -10 161 -10 c 3,0,1
172 64 m 3,46,47
 257 64 257 64 257 156 c 2,48,-1
 257 363 l 2,49,50
 257 467 257 467 172 468 c 259,51,52
 120 468 120 468 100 419 c 24,53,54
 81 371 81 371 82 268 c 259,55,56
 82 135 82 135 103 101 c 0,57,58
 129 64 129 64 172 64 c 3,46,47
347 313 m 1,59,-1
 520 313 l 1,60,61
 520 395 520 395 504 430 c 0,62,63
 486 467 486 467 433 468 c 3,64,65
 383 468 383 468 363 424 c 0,66,67
 349 393 349 393 347 313 c 1,59,-1
EndSplineSet
EndChar
StartChar: Tbar
Encoding: 358 358 383
Width: 600
VWidth: 1034
Flags: W
LayerCount: 3
Fore
SplineSet
120 397 m 5,0,-1
 483 397 l 5,1,-1
 473 314 l 5,2,-1
 120 314 l 5,3,-1
 120 397 l 5,0,-1
EndSplineSet
Refer: 53 84 N 1 0 0 1 0 0 3
EndChar
StartChar: tbar
Encoding: 359 359 384
Width: 600
VWidth: 1034
Flags: W
LayerCount: 3
Fore
SplineSet
112 303 m 5,0,-1
 468 325 l 5,1,-1
 457 263 l 5,2,-1
 101 240 l 5,3,-1
 112 303 l 5,0,-1
EndSplineSet
Refer: 85 116 N 1 0 0 1 0 0 3
EndChar
StartChar: longs
Encoding: 383 383 370
Width: 600
VWidth: 1034
Flags: W
LayerCount: 3
Fore
SplineSet
316 0 m 25,0,-1
 222 0 l 25,1,-1
 222 446 l 1,2,-1
 60 434 l 1,3,-1
 72 512 l 1,4,-1
 222 522 l 1,5,-1
 222 602 l 2,6,7
 222 679 222 679 265.5 721 c 128,-1,8
 309 763 309 763 387 763 c 3,9,10
 460 763 460 763 492 745 c 0,11,12
 546 714 546 714 553 670 c 9,13,-1
 469 639 l 17,14,15
 466 653 466 653 447 670 c 0,16,17
 430 686 430 686 395 686 c 3,18,19
 351 686 351 686 332 660 c 0,20,21
 315 637 315 637 316 580 c 2,22,-1
 316 0 l 25,0,-1
EndSplineSet
EndChar
StartChar: uni018F
Encoding: 399 399 369
Width: 600
VWidth: 1034
Flags: W
AnchorPoint: "Anchor 2" 286 745 basechar 0
AnchorPoint: "Anchor 0" 306 -5 basechar 0
LayerCount: 3
Fore
SplineSet
305 71 m 3,0,1
 379 71 379 71 411.5 105.5 c 128,-1,2
 444 140 444 140 444 337 c 1,3,-1
 170 337 l 1,4,5
 170 139 170 139 202 105 c 128,-1,6
 234 71 234 71 305 71 c 3,0,1
534 371 m 11,7,8
 534 185 534 185 522 133 c 0,9,10
 511 80 511 80 482 48 c 0,11,12
 431 -11 431 -11 298 -11 c 3,13,14
 177 -11 177 -11 128 48 c 0,15,16
 98 84 98 84 88 133 c 0,17,18
 76 192 76 192 76 308 c 0,19,20
 76 333 76 333 77 360 c 0,21,22
 77 364 77 364 77 368 c 2,23,-1
 77 417 l 1,24,-1
 441 417 l 1,25,26
 441 595 441 595 390 644 c 0,27,28
 356 677 356 677 290 678 c 0,29,30
 246 678 246 678 211 655 c 0,31,32
 191 642 191 642 181 617 c 1,33,-1
 92 637 l 1,34,35
 104 681 104 681 137 712 c 0,36,37
 186 758 186 758 290 757 c 3,38,39
 374 757 374 757 421 734 c 0,40,41
 467 712 467 712 491 670 c 0,42,43
 515 630 515 630 523 581 c 0,44,45
 534 526 534 526 534 371 c 11,7,8
EndSplineSet
EndChar
StartChar: florin
Encoding: 402 402 97
Width: 600
VWidth: 1034
Flags: W
LayerCount: 3
Fore
SplineSet
67 -123 m 17,0,1
 109 -136 109 -136 143 -137 c 0,2,3
 178 -137 178 -137 191 -109 c 0,4,5
 200 -90 200 -90 209 22 c 2,6,-1
 233 342 l 1,7,-1
 81 331 l 1,8,-1
 90 409 l 1,9,-1
 239 419 l 1,10,-1
 251 602 l 2,11,12
 256 684 256 684 296 721 c 0,13,14
 339 763 339 763 403 763 c 3,15,16
 460 763 460 763 492 745 c 0,17,18
 546 714 546 714 553 670 c 9,19,-1
 469 639 l 17,20,21
 466 657 466 657 452 668 c 0,22,23
 435 684 435 684 404 684 c 3,24,25
 375 684 375 684 361 664 c 0,26,27
 345 643 345 643 341 580 c 2,28,-1
 331 426 l 1,29,-1
 505 440 l 1,30,-1
 497 362 l 1,31,-1
 325 350 l 1,32,-1
 300 7 l 2,33,34
 290 -142 290 -142 248.5 -182 c 128,-1,35
 207 -222 207 -222 139 -222 c 3,36,37
 66 -222 66 -222 25 -200 c 9,38,-1
 67 -123 l 17,0,1
EndSplineSet
EndChar
StartChar: uni0237
Encoding: 567 567 346
Width: 600
VWidth: 1034
Flags: W
AnchorPoint: "Anchor 0" 366 519 basechar 0
LayerCount: 3
Fore
SplineSet
254 -144 m 267,0,1
 296 -144 296 -144 316 -130 c 24,2,3
 330 -120 330 -120 330 -91 c 18,4,-1
 330 421 l 10,5,6
 330 439 330 439 322 448 c 24,7,8
 314 457 314 457 296 457 c 26,9,-1
 177 459 l 25,10,-1
 189 532 l 25,11,-1
 522 546 l 25,12,-1
 535 480 l 25,13,-1
 457 468 l 26,14,15
 437 465 437 465 431 458 c 24,16,17
 423 450 423 450 423 432 c 18,18,-1
 423 -103 l 2,19,20
 423 -143 423 -143 401 -174 c 0,21,22
 366 -222 366 -222 275 -221 c 3,23,24
 145 -221 145 -221 88 -157 c 0,25,26
 68 -135 68 -135 57 -111 c 1,27,-1
 144 -83 l 1,28,29
 164 -119 164 -119 191 -130 c 0,30,31
 223 -144 223 -144 254 -144 c 267,0,1
EndSplineSet
EndChar
StartChar: uni0259
Encoding: 601 601 368
Width: 600
VWidth: 1034
Flags: W
AnchorPoint: "Anchor 0" 306 -5 basechar 0
AnchorPoint: "Anchor 2" 286 528 basechar 0
LayerCount: 3
Back
SplineSet
314.403320312 -11.37890625 m 7,27,28
 433.368164062 -11.37890625 433.368164062 -11.37890625 481.989257812 47.5859375 c 4,29,30
 510.955078125 81.724609375 510.955078125 81.724609375 522.333984375 133.448242188 c 4,31,32
 533.712890625 183.103515625 533.712890625 183.103515625 533.79296875 235.403320312 c 4,33,34
 533.712890625 240 533.712890625 240 533.712890625 244.137695312 c 6,35,-1
 533.712890625 292.758789062 l 1029,36,-1
EndSplineSet
Fore
SplineSet
305 71 m 3,0,1
 381 71 381 71 412 104 c 0,2,3
 444 138 444 138 444 213 c 1,4,-1
 170 213 l 1,5,6
 170 139 170 139 202 104 c 0,7,8
 233 71 233 71 305 71 c 3,0,1
534 247 m 11,9,10
 534 179 534 179 522 133 c 0,11,12
 509 79 509 79 482 48 c 0,13,14
 432 -11 432 -11 298 -11 c 3,15,16
 177 -11 177 -11 128 48 c 0,17,18
 99 83 99 83 88 133 c 0,19,20
 77 183 77 183 77 236 c 0,21,22
 77 240 77 240 77 244 c 2,23,-1
 77 293 l 1,24,-1
 441 293 l 1,25,26
 438 343 438 343 425 383 c 0,27,28
 401 461 401 461 290 460 c 0,29,30
 246 460 246 460 211 438 c 0,31,32
 191 425 191 425 181 399 c 1,33,-1
 92 420 l 1,34,35
 104 464 104 464 137 494 c 0,36,37
 186 540 186 540 290 540 c 3,38,39
 374 540 374 540 421 517 c 128,-1,40
 468 494 468 494 490 453 c 0,41,42
 516 406 516 406 523 364 c 0,43,44
 534 302 534 302 534 247 c 11,9,10
EndSplineSet
EndChar
StartChar: uni02BA
Encoding: 698 698 388
Width: 600
VWidth: 1034
Flags: W
LayerCount: 3
Fore
SplineSet
364 639 m 0,0,-1
 358 715 l 0,1,2
 358 736 358 736 369 746 c 0,3,4
 376 753 376 753 394 753 c 2,5,-1
 432 754 l 2,6,7
 451 754 451 754 458 746 c 0,8,9
 468 735 468 735 469 721 c 0,10,11
 469 720 469 720 469 719 c 2,12,-1
 466 678 l 2,13,14
 463 631 463 631 452 596 c 0,15,16
 435 541 435 541 406 505 c 1,17,-1
 359 520 l 1,18,19
 364 580 364 580 364 639 c 0,0,-1
157 639 m 0,20,-1
 151 715 l 0,21,22
 151 736 151 736 162 746 c 0,23,24
 169 753 169 753 187 753 c 2,25,-1
 226 754 l 2,26,27
 245 754 245 754 251 746 c 0,28,29
 261 735 261 735 262 721 c 0,30,31
 262 720 262 720 262 719 c 2,32,-1
 259 678 l 2,33,34
 256 631 256 631 245 596 c 0,35,36
 228 541 228 541 199 505 c 1,37,-1
 152 520 l 1,38,39
 157 580 157 580 157 639 c 0,20,-1
EndSplineSet
EndChar
StartChar: uni02BC
Encoding: 700 700 389
Width: 600
VWidth: 1034
Flags: W
LayerCount: 3
Fore
SplineSet
250 639 m 4,0,-1
 244 715 l 4,1,2
 244 736 244 736 256 746 c 4,3,4
 263 753 263 753 280 753 c 6,5,-1
 319 754 l 6,6,7
 338 754 338 754 344 746 c 4,8,9
 354 735 354 735 355 721 c 4,10,11
 355 720 355 720 355 719 c 6,12,-1
 352 678 l 6,13,14
 349 631 349 631 338 596 c 4,15,16
 321 541 321 541 292 505 c 5,17,-1
 245 520 l 5,18,19
 250 580 250 580 250 639 c 4,0,-1
EndSplineSet
EndChar
StartChar: circumflex
Encoding: 710 710 102
Width: 600
VWidth: 1034
Flags: W
AnchorPoint: "Anchor 0" 300 534 mark 0
LayerCount: 3
Fore
SplineSet
469 645 m 1,0,-1
 420 599 l 1,1,-1
 299 727 l 1,2,-1
 180 599 l 1,3,-1
 131 645 l 1,4,-1
 274 799 l 1,5,-1
 323 799 l 1,6,-1
 469 645 l 1,0,-1
EndSplineSet
EndChar
StartChar: caron
Encoding: 711 711 221
Width: 600
VWidth: 1034
Flags: W
LayerCount: 3
Fore
SplineSet
469 755 m 1,0,-1
 420 801 l 1,1,-1
 299 673 l 1,2,-1
 180 801 l 1,3,-1
 131 755 l 1,4,-1
 274 601 l 1,5,-1
 323 601 l 1,6,-1
 469 755 l 1,0,-1
EndSplineSet
EndChar
StartChar: breve
Encoding: 728 728 223
Width: 600
VWidth: 1034
Flags: W
LayerCount: 3
Fore
SplineSet
300 604 m 128,-1,1
 212 604 212 604 152 673 c 0,2,3
 129 700 129 700 114 731 c 1,4,-1
 175 758 l 1,5,6
 185 736 185 736 202 717 c 0,7,8
 243 671 243 671 300 671 c 128,-1,9
 357 671 357 671 398 717 c 0,10,11
 414 736 414 736 424 758 c 1,12,-1
 485 730 l 1,13,14
 471 699 471 699 448 673 c 0,15,0
 388 604 388 604 300 604 c 128,-1,1
EndSplineSet
Layer: 2
SplineSet
163.448242188 668.275390625 m 4
 143.448242188 687.5859375 128.965820312 709.655273438 120 734.482421875 c 5
 172.758789062 755.172851562 l 5
 178.965820312 739.310546875 190 723.103515625 205.862304688 706.551757812 c 4
 232.069335938 680.344726562 263.448242188 667.241210938 300 667.241210938 c 7
 337.241210938 667.241210938 368.965820312 680.689453125 395.172851562 707.5859375 c 4
 409.655273438 722.069335938 420 737.930664062 426.20703125 755.172851562 c 5
 478.965820312 734.482421875 l 5
 472.069335938 711.724609375 457.241210938 689.655273438 434.482421875 668.275390625 c 4
 395.172851562 631.034179688 350 612.4140625 298.965820312 612.4140625 c 4
 247.241210938 612.4140625 202.069335938 631.034179688 163.448242188 668.275390625 c 4
EndSplineSet
EndChar
StartChar: dotaccent
Encoding: 729 729 224
Width: 600
VWidth: 1034
Flags: W
LayerCount: 3
Fore
SplineSet
290 635 m 6,0,1
 270 635 270 635 255 650 c 132,-1,2
 240 665 240 665 240 685 c 6,3,-1
 240 712 l 6,4,5
 240 732 240 732 255 746.5 c 132,-1,6
 270 761 270 761 290 761 c 6,7,-1
 308 761 l 6,8,9
 328 761 328 761 343 746 c 132,-1,10
 358 731 358 731 358 712 c 6,11,-1
 358 685 l 6,12,13
 358 665 358 665 343 650 c 4,14,15
 329 635 329 635 308 635 c 6,16,-1
 290 635 l 6,0,1
EndSplineSet
EndChar
StartChar: ring
Encoding: 730 730 225
Width: 600
VWidth: 1034
Flags: W
AnchorPoint: "Anchor 0" 300 534 mark 0
LayerCount: 3
Fore
SplineSet
291 848 m 6,0,-1
 309 848 l 6,1,2
 360 848 360 848 397 812 c 4,3,4
 433 777 433 777 433 727 c 6,5,-1
 433 722 l 6,6,7
 433 672 433 672 397 637 c 4,8,9
 360 601 360 601 309 601 c 6,10,-1
 291 601 l 6,11,12
 237 601 237 601 202 637 c 132,-1,13
 167 673 167 673 167 722 c 6,14,-1
 167 727 l 6,15,16
 167 778 167 778 203 813 c 132,-1,17
 239 848 239 848 291 848 c 6,0,-1
291 791 m 6,18,19
 260 791 260 791 242 773 c 4,20,21
 223 753 223 753 223 727 c 6,22,-1
 223 722 l 6,23,24
 223 697 223 697 243 677.5 c 132,-1,25
 263 658 263 658 291 658 c 6,26,-1
 309 658 l 6,27,28
 336 658 336 658 357 678 c 4,29,30
 377 697 377 697 377 722 c 6,31,-1
 377 727 l 6,32,33
 377 754 377 754 357 772.5 c 132,-1,34
 337 791 337 791 309 791 c 6,35,-1
 291 791 l 6,18,19
EndSplineSet
EndChar
StartChar: ogonek
Encoding: 731 731 238
Width: 600
VWidth: 1034
AnchorPoint: "Anchor 3" 271 -1 basechar 0
LayerCount: 3
Fore
SplineSet
308 10 m 17,0,1
 256 -36 256 -36 257 -89 c 3,2,3
 257 -113 257 -113 266 -124 c 0,4,5
 278 -140 278 -140 318 -140 c 2,6,-1
 393 -140 l 1,7,-1
 393 -207 l 1,8,-1
 318 -207 l 2,9,10
 291 -207 291 -207 274 -203 c 0,11,12
 235 -194 235 -194 219 -173 c 0,13,14
 197 -145 197 -145 197.5 -99 c 131,-1,15
 198 -53 198 -53 252 10 c 9,16,-1
 308 10 l 17,0,1
EndSplineSet
EndChar
StartChar: tilde
Encoding: 732 732 114
Width: 600
VWidth: 1034
Flags: W
AnchorPoint: "Anchor 0" 300 534 mark 0
LayerCount: 3
Back
SplineSet
113.79296875 643.448242188 m 6,0,1
 113.79296875 677.5859375 113.79296875 677.5859375 126.20703125 706.551757812 c 4,2,3
 135.517578125 727.241210938 135.517578125 727.241210938 157.241210938 741.724609375 c 4,4,5
 184.137695312 759.310546875 184.137695312 759.310546875 220.344726562 759.310546875 c 4,6,7
 234.827148438 759.310546875 234.827148438 759.310546875 253.448242188 755.172851562 c 4,8,9
 284.482421875 747.930664062 284.482421875 747.930664062 317.5859375 721.034179688 c 4,10,11
 351.724609375 693.103515625 351.724609375 693.103515625 369.310546875 688.965820312 c 4,12,13
 377.5859375 686.896484375 377.5859375 686.896484375 385.862304688 686.896484375 c 4,14,15
 413.79296875 686.896484375 413.79296875 686.896484375 425.172851562 698.275390625 c 4,16,17
 429.310546875 702.4140625 429.310546875 702.4140625 430.344726562 705.517578125 c 4,18,19
 438.62109375 727.241210938 438.62109375 727.241210938 438.62109375 758.275390625 c 5,20,-1
 495.517578125 747.930664062 l 5,21,22
 494.482421875 707.5859375 494.482421875 707.5859375 482.069335938 681.724609375 c 4,23,24
 473.79296875 664.137695312 473.79296875 664.137695312 453.103515625 648.62109375 c 4,25,26
 434.482421875 635.172851562 434.482421875 635.172851562 404.482421875 631.034179688 c 4,27,28
 396.20703125 630 396.20703125 630 383.79296875 630 c 4,29,30
 372.4140625 630 372.4140625 630 354.827148438 634.137695312 c 4,31,32
 326.896484375 640.344726562 326.896484375 640.344726562 286.551757812 672.4140625 c 4,33,34
 255.517578125 697.241210938 255.517578125 697.241210938 240 700.344726562 c 4,35,36
 230.689453125 702.4140625 230.689453125 702.4140625 222.4140625 702.4140625 c 4,37,38
 216.20703125 702.4140625 216.20703125 702.4140625 206.896484375 701.37890625 c 132,-1,39
 197.5859375 700.344726562 197.5859375 700.344726562 191.37890625 696.20703125 c 4,40,41
 184.137695312 691.034179688 184.137695312 691.034179688 183.103515625 690 c 4,42,43
 182.624023438 687.995117188 182.624023438 687.995117188 178.965820312 683.79296875 c 4,44,45
 170.689453125 674.482421875 170.689453125 674.482421875 170.689453125 631.034179688 c 5,46,-1
 113.79296875 641.37890625 l 5,47,48
 113.79296875 643.448242188 l 6,0,1
EndSplineSet
Fore
SplineSet
387 627 m 0,0,1
 337 627 337 627 284 670 c 24,2,3
 251 696 251 696 226.5 696.5 c 131,-1,4
 202 697 202 697 193 682 c 0,5,6
 186 671 186 671 184 637 c 1,7,-1
 118 641 l 1,8,9
 120 675 120 675 123.5 690.5 c 128,-1,10
 127 706 127 706 141 726 c 128,-1,11
 155 746 155 746 179 754.5 c 128,-1,12
 203 763 203 763 224 763 c 0,13,14
 275 763 275 763 327 721 c 24,15,16
 360 694 360 694 385 694 c 128,-1,17
 410 694 410 694 418 709 c 0,18,19
 425 720 425 720 427 753 c 1,20,-1
 493 749 l 1,21,22
 491 715 491 715 487.5 700 c 128,-1,23
 484 685 484 685 470 664.5 c 128,-1,24
 456 644 456 644 432 635.5 c 128,-1,25
 408 627 408 627 387 627 c 0,0,1
EndSplineSet
EndChar
StartChar: hookabovecomb
Encoding: 777 777 391
Width: 600
VWidth: 1034
Flags: W
AnchorPoint: "Anchor 0" 286 519 mark 0
LayerCount: 3
Fore
SplineSet
320 835 m 2,0,-1
 203 835 l 1,1,-1
 203 760 l 1,2,-1
 290 760 l 2,3,4
 341 760 341 760 340 736 c 0,5,6
 340 719 340 719 312 686 c 2,7,-1
 249 611 l 1,8,-1
 349 611 l 1,9,-1
 404 681 l 2,10,11
 428 711 428 711 428 746 c 0,12,13
 429 835 429 835 320 835 c 2,0,-1
EndSplineSet
EndChar
StartChar: uni0311
Encoding: 785 785 371
Width: 600
VWidth: 1034
Flags: W
LayerCount: 3
Fore
SplineSet
163 699 m 0,0,1
 133 670 133 670 120 633 c 1,2,-1
 173 612 l 1,3,4
 182 636 182 636 206 661 c 0,5,6
 245 700 245 700 300 700 c 3,7,8
 356 700 356 700 395 660 c 0,9,10
 417 638 417 638 426 612 c 1,11,-1
 479 633 l 1,12,13
 469 667 469 667 434 699 c 0,14,15
 375 755 375 755 299 755 c 0,16,17
 221 755 221 755 163 699 c 0,0,1
EndSplineSet
EndChar
StartChar: uni0312
Encoding: 786 786 242
Width: 600
VWidth: 1034
Flags: W
AnchorPoint: "Anchor 0" 280 534 mark 0
LayerCount: 3
Fore
SplineSet
310 759 m 1,0,1
 323 756 323 756 336 744 c 0,2,3
 348 731 348 731 350 711 c 2,4,-1
 350 685 l 2,5,6
 350 664 350 664 334.5 649.5 c 128,-1,7
 319 635 319 635 300 635 c 2,8,-1
 281 635 l 2,9,10
 260 635 260 635 246 650 c 0,11,12
 233 663 233 663 233 685 c 2,13,-1
 233 728 l 2,14,15
 233 789 233 789 287 843 c 0,16,17
 303 859 303 859 328 872 c 1,18,-1
 355 850 l 1,19,20
 351 847 351 847 335 832 c 0,21,22
 312 809 312 809 310 759 c 1,0,1
EndSplineSet
EndChar
StartChar: uni0315
Encoding: 789 789 347
Width: 600
VWidth: 1034
Flags: W
AnchorPoint: "Anchor 0" 263 679 mark 0
LayerCount: 3
Fore
SplineSet
426 661 m 1,0,-1
 420 737 l 2,1,2
 420 758 420 758 431 768 c 0,3,4
 438 775 438 775 451 775 c 2,5,-1
 483 775 l 2,6,7
 505 775 505 775 510 768 c 0,8,9
 520 757 520 757 520 743 c 2,10,11
 520 741 l 1,12,-1
 517 699 l 2,13,14
 513 647 513 647 504 618 c 0,15,16
 482 553 482 553 462 527 c 1,17,-1
 421 542 l 1,18,19
 426 602 426 602 426 661 c 1,0,-1
EndSplineSet
EndChar
StartChar: uni0326
Encoding: 806 806 241
Width: 600
VWidth: 1034
Flags: W
AnchorPoint: "Anchor 2" 300 0 mark 0
LayerCount: 3
Fore
SplineSet
277 -204 m 5,0,1
 264 -201 264 -201 251 -188 c 4,2,3
 239 -175 239 -175 238 -155 c 6,4,-1
 238 -129 l 6,5,6
 238 -108 238 -108 253.5 -94 c 132,-1,7
 269 -80 269 -80 288 -80 c 6,8,-1
 306 -80 l 6,9,10
 327 -80 327 -80 341 -94 c 4,11,12
 354 -107 354 -107 355 -129 c 6,13,-1
 355 -173 l 6,14,15
 355 -234 355 -234 301 -288 c 4,16,17
 285 -304 285 -304 260 -317 c 5,18,-1
 233 -295 l 5,19,20
 237 -292 237 -292 252 -276 c 4,21,22
 275 -254 275 -254 277 -204 c 5,0,1
EndSplineSet
Layer: 2
SplineSet
255.517578125 -191.37890625 m 4
 249.310546875 -115.862304688 l 4
 249.310546875 -102.069335938 253.103515625 -91.724609375 260.689453125 -84.8271484375 c 4
 265.517578125 -80 272.069335938 -77.5859375 280.344726562 -77.5859375 c 6
 312.4140625 -77.5859375 l 6
 326.896484375 -77.5859375 335.862304688 -80 339.310546875 -84.8271484375 c 4
 346.20703125 -92.4140625 349.655273438 -100.689453125 349.655273438 -109.655273438 c 4
 349.655273438 -110.689453125 349.655273438 -110.689453125 349.655273438 -111.724609375 c 6
 346.551757812 -153.103515625 l 6
 343.79296875 -187.5859375 339.310546875 -214.827148438 333.103515625 -234.827148438 c 4
 318.62109375 -278.275390625 304.827148438 -308.62109375 291.724609375 -325.862304688 c 5
 250.344726562 -310.344726562 l 5
 253.79296875 -270.344726562 255.517578125 -230.689453125 255.517578125 -191.37890625 c 4
EndSplineSet
EndChar
StartChar: Alpha
Encoding: 913 913 393
Width: 600
VWidth: 1034
Flags: W
LayerCount: 3
Fore
SplineSet
553 0 m 1,0,-1
 456 0 l 1,1,-1
 398 231 l 1,2,-1
 202 231 l 1,3,-1
 143 0 l 1,4,-1
 47 0 l 1,5,-1
 254 752 l 1,6,-1
 343 763 l 1,7,-1
 553 0 l 1,0,-1
381 303 m 1,8,-1
 301 637 l 1,9,-1
 219 303 l 1,10,-1
 381 303 l 1,8,-1
EndSplineSet
EndChar
StartChar: uni0394
Encoding: 916 916 392
Width: 600
VWidth: 1034
LayerCount: 3
Fore
SplineSet
37 0 m 1,0,-1
 266 750 l 5,1,-1
 334 760 l 1,2,-1
 563 0 l 1,3,-1
 37 0 l 1,0,-1
300 578 m 1,4,-1
 161 93 l 1,5,-1
 439 93 l 1,6,-1
 300 578 l 1,4,-1
EndSplineSet
EndChar
StartChar: uni2010
Encoding: 8208 8208 220
Width: 600
VWidth: 1034
Flags: W
LayerCount: 3
Fore
SplineSet
114 358 m 5,0,-1
 114 281 l 5,1,-1
 486 281 l 5,2,-1
 486 358 l 5,3,-1
 114 358 l 5,0,-1
EndSplineSet
EndChar
StartChar: endash
Encoding: 8211 8211 112
Width: 600
VWidth: 1034
Flags: W
LayerCount: 3
Fore
SplineSet
83 358 m 5,0,-1
 83 281 l 5,1,-1
 517 281 l 5,2,-1
 517 358 l 5,3,-1
 83 358 l 5,0,-1
EndSplineSet
EndChar
StartChar: emdash
Encoding: 8212 8212 113
Width: 600
VWidth: 1034
Flags: W
LayerCount: 3
Fore
SplineSet
0 358 m 1,0,-1
 0 281 l 1,1,-1
 600 281 l 5,2,-1
 600 358 l 5,3,-1
 0 358 l 1,0,-1
EndSplineSet
EndChar
StartChar: quoteleft
Encoding: 8216 8216 107
Width: 600
VWidth: 1034
Flags: W
LayerCount: 3
Fore
SplineSet
307 651 m 13,0,1
 310 651 l 6,2,3
 320 651 320 651 328 643 c 4,4,5
 337 634 337 634 336 625 c 6,6,-1
 331 540 l 6,7,8
 330 529 330 529 323 521 c 4,9,10
 317 515 317 515 305 514 c 6,11,-1
 241 511 l 6,12,13
 230 510 230 510 220 520 c 4,14,15
 214 526 214 526 215 540 c 6,16,-1
 219 589 l 6,17,18
 225 662 225 662 256 701 c 4,19,20
 288 742 288 742 332 770 c 5,21,-1
 366 741 l 5,22,23
 344 728 344 728 328 709 c 4,24,25
 307 685 307 685 307 651 c 13,0,1
EndSplineSet
EndChar
StartChar: quoteright
Encoding: 8217 8217 108
Width: 600
VWidth: 1034
Flags: W
LayerCount: 3
Fore
SplineSet
274 630 m 9,0,1
 271 630 l 2,2,3
 261 630 261 630 253 637 c 0,4,5
 244 646 244 646 245 656 c 2,6,-1
 250 741 l 2,7,8
 251 752 251 752 259 759 c 0,9,10
 265 765 265 765 276 767 c 2,11,-1
 340 770 l 2,12,13
 351 771 351 771 361 760 c 0,14,15
 367 754 367 754 366 741 c 2,16,-1
 362 692 l 2,17,18
 356 619 356 619 326 579 c 0,19,20
 294 538 294 538 249 511 c 1,21,-1
 215 540 l 1,22,23
 237 553 237 553 253 572 c 0,24,25
 274 596 274 596 274 630 c 9,0,1
EndSplineSet
EndChar
StartChar: quotesinglbase
Encoding: 8218 8218 96
Width: 600
VWidth: 1034
Flags: W
LayerCount: 3
Fore
SplineSet
274 -11 m 9,0,1
 271 -11 l 2,2,3
 261 -11 261 -11 253 -4 c 0,4,5
 244 5 244 5 245 14 c 2,6,-1
 250 99 l 2,7,8
 251 110 251 110 259 118 c 0,9,10
 265 124 265 124 276 125 c 2,11,-1
 340 128 l 2,12,13
 351 129 351 129 361 119 c 0,14,15
 367 113 367 113 366 99 c 2,16,-1
 362 51 l 2,17,18
 356 -22 356 -22 326 -62 c 0,19,20
 294 -103 294 -103 249 -130 c 1,21,-1
 215 -101 l 1,22,23
 237 -88 237 -88 253 -69 c 0,24,25
 274 -45 274 -45 274 -11 c 9,0,1
EndSplineSet
EndChar
StartChar: quotedblleft
Encoding: 8220 8220 109
Width: 600
VWidth: 1034
Flags: W
LayerCount: 3
Fore
SplineSet
433 651 m 13,0,1
 437 651 l 6,2,3
 447 651 447 651 454 643 c 4,4,5
 463 634 463 634 462 625 c 6,6,-1
 457 540 l 6,7,8
 456 529 456 529 449 521 c 4,9,10
 443 515 443 515 431 514 c 6,11,-1
 367 511 l 6,12,13
 356 510 356 510 347 520 c 4,14,15
 341 526 341 526 341 540 c 6,16,-1
 346 589 l 6,17,18
 352 662 352 662 382 701 c 4,19,20
 414 742 414 742 458 770 c 5,21,-1
 492 741 l 5,22,23
 470 728 470 728 454 709 c 4,24,25
 433 685 433 685 433 651 c 13,0,1
227 651 m 13,26,-1
 230 651 l 6,27,28
 240 651 240 651 247 643 c 4,29,30
 256 634 256 634 256 625 c 6,31,-1
 250 540 l 6,32,33
 249 529 249 529 242 521 c 4,34,35
 235 514 235 514 224 514 c 6,36,-1
 160 511 l 6,37,38
 149 510 149 510 140 520 c 4,39,40
 134 526 134 526 134 540 c 6,41,-1
 139 589 l 6,42,43
 145 662 145 662 175 701 c 4,44,45
 207 742 207 742 251 770 c 5,46,-1
 286 741 l 5,47,48
 264 728 264 728 247 709 c 4,49,50
 227 685 227 685 227 651 c 13,26,-1
EndSplineSet
EndChar
StartChar: quotedblright
Encoding: 8221 8221 110
Width: 600
VWidth: 1034
Flags: W
LayerCount: 3
Fore
SplineSet
167 630 m 9,0,1
 163 630 l 2,2,3
 153 630 153 630 146 637 c 0,4,5
 137 646 137 646 138 656 c 2,6,-1
 143 741 l 2,7,8
 144 752 144 752 151 759 c 0,9,10
 157 765 157 765 169 767 c 2,11,-1
 233 770 l 2,12,13
 244 771 244 771 253 760 c 0,14,15
 259 754 259 754 259 741 c 2,16,-1
 254 692 l 2,17,18
 248 619 248 619 218 579 c 0,19,20
 186 538 186 538 142 511 c 1,21,-1
 108 540 l 1,22,23
 130 553 130 553 146 572 c 0,24,25
 167 596 167 596 167 630 c 9,0,1
373 630 m 9,26,-1
 370 630 l 2,27,28
 360 630 360 630 353 637 c 0,29,30
 344 646 344 646 344 656 c 2,31,-1
 350 741 l 2,32,33
 351 752 351 752 358 759 c 0,34,35
 364 765 364 765 376 767 c 2,36,-1
 440 770 l 2,37,38
 451 771 451 771 460 760 c 0,39,40
 466 754 466 754 466 741 c 2,41,-1
 461 692 l 2,42,43
 455 619 455 619 425 579 c 0,44,45
 393 538 393 538 349 511 c 1,46,-1
 314 540 l 1,47,48
 336 553 336 553 353 572 c 0,49,50
 373 596 373 596 373 630 c 9,26,-1
EndSplineSet
EndChar
StartChar: quotedblbase
Encoding: 8222 8222 98
Width: 600
VWidth: 1034
Flags: W
LayerCount: 3
Fore
SplineSet
193 -10 m 9,0,1
 190 -10 l 2,2,3
 180 -10 180 -10 173 -3 c 0,4,5
 164 6 164 6 164 16 c 2,6,-1
 170 100 l 2,7,8
 171 111 171 111 178 119 c 0,9,10
 184 125 184 125 196 126 c 2,11,-1
 260 129 l 2,12,13
 271 130 271 130 280 120 c 0,14,15
 286 114 286 114 286 100 c 2,16,-1
 281 52 l 2,17,18
 275 -21 275 -21 245 -61 c 0,19,20
 213 -102 213 -102 169 -129 c 1,21,-1
 134 -100 l 1,22,23
 156 -87 156 -87 173 -68 c 0,24,25
 193 -44 193 -44 193 -10 c 9,0,1
400 -10 m 9,26,-1
 397 -10 l 2,27,28
 387 -10 387 -10 380 -3 c 0,29,30
 371 6 371 6 371 16 c 2,31,-1
 377 100 l 2,32,33
 378 111 378 111 385 119 c 0,34,35
 391 125 391 125 402 126 c 2,36,-1
 467 129 l 2,37,38
 478 130 478 130 487 120 c 0,39,40
 493 114 493 114 492 100 c 2,41,-1
 488 52 l 2,42,43
 482 -21 482 -21 452 -61 c 0,44,45
 420 -102 420 -102 376 -129 c 1,46,-1
 341 -100 l 1,47,48
 363 -87 363 -87 380 -68 c 0,49,50
 400 -44 400 -44 400 -10 c 9,26,-1
EndSplineSet
EndChar
StartChar: dagger
Encoding: 8224 8224 100
Width: 600
VWidth: 1034
Flags: W
LayerCount: 3
Fore
SplineSet
254 505 m 1,0,-1
 254 697 l 1,1,-1
 346 697 l 1,2,-1
 346 505 l 1,3,-1
 540 505 l 1,4,-1
 535 422 l 1,5,-1
 346 422 l 1,6,-1
 346 21 l 1,7,-1
 254 10 l 1,8,-1
 254 422 l 1,9,-1
 65 422 l 1,10,-1
 65 505 l 1,11,-1
 254 505 l 1,0,-1
EndSplineSet
EndChar
StartChar: daggerdbl
Encoding: 8225 8225 101
Width: 600
VWidth: 1034
Flags: W
LayerCount: 3
Fore
SplineSet
254 505 m 1,0,-1
 254 697 l 1,1,-1
 346 697 l 1,2,-1
 346 505 l 1,3,-1
 540 505 l 1,4,-1
 535 422 l 1,5,-1
 346 422 l 1,6,-1
 346 291 l 1,7,-1
 540 291 l 1,8,-1
 535 208 l 1,9,-1
 346 208 l 1,10,-1
 346 21 l 1,11,-1
 254 10 l 1,12,-1
 254 208 l 1,13,-1
 65 208 l 1,14,-1
 65 291 l 1,15,-1
 254 291 l 1,16,-1
 254 422 l 1,17,-1
 65 422 l 1,18,-1
 65 505 l 1,19,-1
 254 505 l 1,0,-1
EndSplineSet
EndChar
StartChar: bullet
Encoding: 8226 8226 111
Width: 600
VWidth: 1034
Flags: W
LayerCount: 3
Fore
SplineSet
157 357 m 263,0,1
 157 417 157 417 200 457 c 4,2,3
 245 499 245 499 300 500 c 263,4,5
 360 500 360 500 400 457 c 4,6,7
 442 412 442 412 443 357 c 263,8,9
 443 297 443 297 400 257 c 4,10,11
 355 215 355 215 300 214 c 263,12,13
 242 214 242 214 199.5 256.5 c 132,-1,14
 157 299 157 299 157 357 c 263,0,1
EndSplineSet
EndChar
StartChar: ellipsis
Encoding: 8230 8230 99
Width: 600
VWidth: 1034
Flags: W
LayerCount: 3
Fore
SplineSet
99 -10 m 256,0,1
 72 -10 72 -10 56.5 9.5 c 128,-1,2
 41 29 41 29 41 58 c 256,3,4
 41 87 41 87 56.5 106.5 c 128,-1,5
 72 126 72 126 99 126 c 256,6,7
 126 126 126 126 141.5 106.5 c 128,-1,8
 157 87 157 87 157 58 c 256,9,10
 157 29 157 29 141.5 9.5 c 128,-1,11
 126 -10 126 -10 99 -10 c 256,0,1
300 -10 m 256,12,13
 273 -10 273 -10 257.5 9.5 c 128,-1,14
 242 29 242 29 242 58 c 256,15,16
 242 87 242 87 257.5 106.5 c 128,-1,17
 273 126 273 126 300 126 c 256,18,19
 327 126 327 126 342.5 106.5 c 128,-1,20
 358 87 358 87 358 58 c 256,21,22
 358 29 358 29 342.5 9.5 c 128,-1,23
 327 -10 327 -10 300 -10 c 256,12,13
501 -10 m 256,24,25
 474 -10 474 -10 458.5 9.5 c 128,-1,26
 443 29 443 29 443 58 c 256,27,28
 443 87 443 87 458.5 106.5 c 128,-1,29
 474 126 474 126 501 126 c 256,30,31
 528 126 528 126 543.5 106.5 c 128,-1,32
 559 87 559 87 559 58 c 256,33,34
 559 29 559 29 543.5 9.5 c 128,-1,35
 528 -10 528 -10 501 -10 c 256,24,25
EndSplineSet
EndChar
StartChar: perthousand
Encoding: 8240 8240 103
Width: 600
VWidth: 1034
Flags: W
LayerCount: 3
Fore
SplineSet
62 611 m 0,0,1
 62 644 62 644 64.5 668.5 c 128,-1,2
 67 693 67 693 76.5 711.5 c 128,-1,3
 86 730 86 730 104 742 c 0,4,5
 124 753 124 753 154 753 c 0,6,7
 185 753 185 753 205 743 c 0,8,9
 225 732 225 732 233 713 c 0,10,11
 243 689 243 689 245 669 c 0,12,13
 247 644 247 644 247 611 c 131,-1,14
 247 578 247 578 245 554 c 0,15,16
 242 530 242 530 232 510.5 c 128,-1,17
 222 491 222 491 204 481 c 0,18,19
 185 470 185 470 154 470 c 0,20,21
 124 470 124 470 104 481 c 0,22,23
 85 492 85 492 76 511 c 128,-1,24
 67 530 67 530 65 554 c 0,25,26
 63 578 63 578 62 611 c 0,0,1
111 611 m 0,27,28
 111 570 111 570 118 548 c 0,29,30
 128 519 128 519 155 519 c 0,31,32
 181 519 181 519 192 548 c 0,33,34
 198 565 198 565 199 611 c 0,35,36
 199 650 199 650 192 674 c 0,37,38
 185 701 185 701 154 701 c 0,39,40
 127 701 127 701 117 674 c 0,41,42
 111 657 111 657 111 611 c 0,27,28
238 156 m 0,43,44
 238 189 238 189 240.5 213.5 c 128,-1,45
 243 238 243 238 252.5 256.5 c 128,-1,46
 262 275 262 275 280 287 c 0,47,48
 300 298 300 298 330 298 c 0,49,50
 363 298 363 298 381 288 c 0,51,52
 397 279 397 279 404 265 c 1,53,54
 413 277 413 277 428 287 c 0,55,56
 445 298 445 298 478 298 c 3,57,58
 509 298 509 298 528 288 c 0,59,60
 549 277 549 277 557 258 c 0,61,62
 567 234 567 234 569 214 c 0,63,64
 572 183 572 183 572 156 c 3,65,66
 572 123 572 123 569 99.5 c 128,-1,67
 566 76 566 76 556 56 c 128,-1,68
 546 36 546 36 528 26 c 0,69,70
 509 15 509 15 478 14.5 c 131,-1,71
 447 14 447 14 428 26 c 0,72,73
 412 35 412 35 404 49 c 1,74,75
 395 35 395 35 380 26 c 0,76,77
 358 15 358 15 330 14 c 0,78,79
 300 14 300 14 280 26 c 0,80,81
 261 37 261 37 252 55.5 c 128,-1,82
 243 74 243 74 241 99 c 0,83,84
 239 123 239 123 238 156 c 0,43,44
287 158 m 0,85,86
 287 116 287 116 294 94 c 0,87,88
 303 67 303 67 331 67 c 0,89,90
 358 67 358 67 368 94 c 0,91,92
 374 111 374 111 374 156 c 0,93,94
 374 197 374 197 368 219 c 0,95,96
 360 246 360 246 330 246 c 0,97,98
 302 246 302 246 293 221 c 0,99,100
 287 202 287 202 287 158 c 0,85,86
72 -18 m 1,101,-1
 23 -1 l 5,102,-1
 402 760 l 5,103,-1
 453 746 l 1,104,-1
 72 -18 l 1,101,-1
434 156 m 0,105,106
 434 116 434 116 442 94 c 0,107,108
 451 67 451 67 479 67 c 128,-1,109
 507 67 507 67 517 89 c 0,110,111
 524 106 524 106 524 156 c 0,112,113
 524 195 524 195 517 221 c 0,114,115
 510 246 510 246 478 246 c 0,116,117
 451 246 451 246 441 219 c 0,118,119
 435 201 435 201 434 173 c 0,120,121
 434 170 434 170 434 156 c 0,105,106
EndSplineSet
EndChar
StartChar: guilsinglleft
Encoding: 8249 8249 105
Width: 600
VWidth: 1034
Flags: W
LayerCount: 3
Fore
SplineSet
415 466 m 1,0,-1
 374 497 l 1,1,-1
 185 271 l 1,2,-1
 185 243 l 1,3,-1
 374 18 l 1,4,-1
 415 49 l 1,5,-1
 242 257 l 1,6,-1
 415 466 l 1,0,-1
EndSplineSet
EndChar
StartChar: guilsinglright
Encoding: 8250 8250 117
Width: 600
VWidth: 1034
Flags: W
LayerCount: 3
Fore
SplineSet
185 466 m 1,0,-1
 226 497 l 1,1,-1
 415 271 l 1,2,-1
 415 243 l 1,3,-1
 226 18 l 1,4,-1
 185 49 l 1,5,-1
 358 257 l 1,6,-1
 185 466 l 1,0,-1
EndSplineSet
EndChar
StartChar: Euro
Encoding: 8364 8364 219
Width: 600
VWidth: 1034
Flags: W
LayerCount: 3
Fore
SplineSet
459 537 m 1,0,1
 445 584 445 584 419 599 c 0,2,3
 387 619 387 619 343 619 c 3,4,5
 291 619 291 619 265 599 c 0,6,7
 239 580 239 580 223 537 c 0,8,9
 204 485 204 485 205 451 c 0,10,11
 205 444 205 444 204 436 c 1,12,-1
 410 436 l 1,13,-1
 393 374 l 1,14,-1
 202 374 l 1,15,16
 202 358 202 358 202 343 c 0,17,18
 202 318 202 318 203 286 c 1,19,-1
 410 286 l 1,20,-1
 393 224 l 1,21,-1
 206 224 l 1,22,23
 210 185 210 185 223 150 c 0,24,25
 240 107 240 107 266 89 c 0,26,27
 298 68 298 68 342 68 c 3,28,29
 389 68 389 68 419 89 c 0,30,31
 443 105 443 105 457 151 c 1,32,-1
 536 119 l 1,33,34
 525 96 525 96 513 72 c 0,35,36
 492 34 492 34 448 11 c 0,37,38
 407 -10 407 -10 342 -9 c 0,39,40
 283 -9 283 -9 232 10 c 0,41,42
 198 23 198 23 168 72 c 0,43,44
 144 111 144 111 130 181 c 0,45,46
 126 203 126 203 124 224 c 1,47,-1
 36 224 l 1,48,-1
 36 286 l 1,49,-1
 119 286 l 1,50,51
 118 314 118 314 118 343 c 0,52,53
 118 356 118 356 118 374 c 1,54,-1
 36 374 l 1,55,-1
 36 436 l 1,56,-1
 121 436 l 1,57,58
 124 470 124 470 130 507 c 0,59,60
 141 568 141 568 168 614 c 0,61,62
 192 656 192 656 232 677 c 0,63,64
 269 697 269 697 342 696 c 3,65,66
 412 696 412 696 454 676 c 0,67,68
 490 657 490 657 516 614 c 0,69,70
 526 597 526 597 536 572 c 1,71,-1
 459 537 l 1,0,1
EndSplineSet
EndChar
StartChar: trademark
Encoding: 8482 8482 115
Width: 600
VWidth: 1034
Flags: W
LayerCount: 3
Fore
SplineSet
439 374 m 5,0,-1
 499 697 l 5,1,-1
 492 376 l 29,2,-1
 543 376 l 29,3,-1
 543 761 l 5,4,5
 480 755 l 5,6,-1
 451 606 l 5,7,-1
 423 452 l 5,8,-1
 393 606 l 5,9,-1
 362 761 l 5,10,11
 299 755 l 5,12,-1
 299 376 l 29,13,-1
 349 376 l 29,14,-1
 343 697 l 5,15,-1
 406 381 l 5,16,-1
 439 374 l 5,0,-1
197 374 m 21,17,-1
 143 374 l 13,18,-1
 144 692 l 6,19,20
 144 712 144 712 126 712 c 6,21,-1
 57 712 l 5,22,-1
 62 755 l 5,23,-1
 282 755 l 5,24,-1
 277 712 l 5,25,-1
 211 712 l 6,26,27
 194 712 194 712 194 692 c 6,28,-1
 197 374 l 21,17,-1
EndSplineSet
EndChar
StartChar: uniFFFD
Encoding: 65533 65533 245
Width: 600
VWidth: 1034
Flags: W
LayerCount: 3
Fore
SplineSet
410 205 m 5,0,-1
 350 209 l 6,1,2
 274 214 274 214 262 214 c 4,3,4
 195 214 195 214 177.5 198.5 c 132,-1,5
 160 183 160 183 160 145 c 4,6,7
 160 105 160 105 185 87 c 4,8,9
 219 62 219 62 277 62 c 260,10,11
 380 62 380 62 402 78 c 5,12,13
 408 140 408 140 409 151 c 4,14,15
 410 180 410 180 410 205 c 5,0,-1
169 377 m 5,16,-1
 104 426 l 5,17,18
 133 459 133 459 170 475 c 132,-1,19
 207 491 207 491 274 491 c 260,20,21
 400 491 400 491 456 423 c 4,22,23
 502 367 502 367 502 247 c 7,24,25
 502 174 502 174 490 66 c 6,26,27
 489 43 489 43 486 27 c 5,28,29
 438 -14 438 -14 284 -14 c 4,30,31
 150 -14 150 -14 103 39 c 4,32,33
 67 80 67 80 67 149 c 4,34,35
 67 209 67 209 100 242 c 4,36,37
 135 276 135 276 182 281 c 4,38,39
 221 285 221 285 266 286 c 4,40,41
 303 286 303 286 325 284 c 14,42,-1
 410 280 l 5,43,44
 410 281 410 281 410 284 c 4,45,46
 410 292 410 292 408 312 c 4,47,48
 405 339 405 339 393 362 c 4,49,50
 382 384 382 384 352 401 c 4,51,52
 321 419 321 419 277 419 c 260,53,54
 202 419 202 419 169 377 c 5,16,-1
EndSplineSet
EndChar
StartChar: .notdef
Encoding: 65536 -1 0
Width: 519
VWidth: 1034
Flags: W
LayerCount: 3
Fore
SplineSet
-1 0 m 1,0,-1
 516 0 l 1,1,-1
 516 517 l 1,2,-1
 -1 517 l 1,3,-1
 -1 0 l 1,0,-1
9 10 m 1,4,-1
 9 507 l 1,5,-1
 506 507 l 1,6,-1
 506 10 l 1,7,-1
 9 10 l 1,4,-1
EndSplineSet
EndChar
